<?xml version="1.0" encoding="utf-8"?>
<!-- Generator: Adobe Illustrator 24.1.3, SVG Export Plug-In . SVG Version: 6.00 Build 0)  -->
<svg version="1.1" xmlns="http://www.w3.org/2000/svg" xmlns:xlink="http://www.w3.org/1999/xlink" x="0px" y="0px"
	 viewBox="0 0 1000 1000" style="enable-background:new 0 0 1000 1000;" xml:space="preserve">
<style type="text/css">
	.st0{display:none;}
	.st1{display:inline;stroke:#FFFFFF;stroke-miterlimit:10;}
	.st2{fill:#FFFFFF;}
	.st3{filter:url(#Adobe_OpacityMaskFilter);}
	.st4{fill:none;stroke:#FFFFFF;stroke-width:3;stroke-linecap:round;stroke-miterlimit:10;}
	.st5{mask:url(#SVGID_1_);}
	.st6{fill:#CB9D29;}
	.st7{fill:#C1C47F;}
	.st8{filter:url(#Adobe_OpacityMaskFilter_1_);}
	.st9{fill:none;stroke:#FFFFFF;stroke-width:6;stroke-linecap:round;stroke-miterlimit:10;}
	.st10{fill:#AE4C3B;}
	.st11{fill:#570E00;}
</style>
<g id="Слой_2" class="st0">
	<rect x="-36.5" y="-12.5" class="st1" width="1060" height="1012"/>
</g>
<g id="Слой_1">
	<g>
		<g>
			<g>
				<g>
					<path class="st2" d="M97.6,643.47c-4.27-9.4-10.88-21.76-19.84-37.09c-8.96-15.33-18.14-30.47-27.52-45.42l-28.96-46.63
						c-9.5-15.7-16.59-27.66-21.28-35.89l11.2,0.96l9.76,0.64l8.48,0.32l8.16-0.16l9.92-0.8l11.52-0.96
						c2.24,4.59,7.84,14.77,16.8,30.56l26.88,46.24c4.37,7.47,8.29,14.27,11.76,20.4c3.46,6.14,5.94,10.64,7.44,13.52
						c2.66-4.05,6.4-10.72,11.2-20c1.92-3.84,4.85-9.92,8.8-18.24c2.02-4.27,4.1-8.59,6.24-12.96L164,503.08l11.04-24.64
						c5.33,0.64,10.66,0.96,16,0.96c4.8,0,10.02-0.32,15.68-0.96c-9.07,16.21-21.39,39.47-36.96,69.76
						c-6.08,11.73-11.26,21.87-15.52,30.4c-1.71,3.41-6.67,13.44-14.88,30.08c-5.98,12.05-10.83,21.97-14.56,29.76
						c-13.76,28.59-23.47,50.08-29.12,64.48l-6.4-0.64l-7.36-0.64l-7.36,0.64l-6.72,0.64c3.84-6.62,9.01-16.56,15.52-29.8
						L97.6,643.47z"/>
				</g>
				<g>
					<path class="st2" d="M96.94,777.88l22.79-53.52l19.88-47.86c7.65-18.43,14.76-36.38,21.34-53.84
						c6.25-15.84,12.12-31.53,17.62-47.05c1.29,0,2.64,0,4.04,0c1.51,0.33,2.69,0.58,3.56,0.75c0.86,0.17,1.97,0.31,3.31,0.42
						c1.35,0.11,2.34,0.17,2.99,0.17c1.29,0,2.59,0,3.88,0c1.4-0.33,2.48-0.56,3.23-0.67c2.59-0.45,4.96-0.67,7.11-0.67
						c21.77,59.82,47.95,127.24,78.56,202.26h15.84l-1.94,17.62c0,5.5,0.65,11.48,1.94,17.94h-5.01c-3.88-4.85-10.75-8-20.61-9.46
						c-9.86-1.45-21.04-2.18-33.54-2.18h-97.8c-14.66,0-26.7,0.65-36.13,1.94c-9.43,1.29-16.25,4.53-20.45,9.7h-5.01
						c0.54-2.37,0.97-5.07,1.29-8.08c0.32-3.02,0.48-6.3,0.48-9.86c0-1.94-0.16-4.47-0.48-7.6c-0.32-3.12-0.76-6.47-1.29-10.02
						H96.94z M229.33,777.88c-6.36-19.62-13.53-39.94-21.5-60.96l-29.26-78.42c-24.68,60.58-42.51,107.04-53.51,139.38l22.63,0.81
						l27.32,0.48l29.58-0.48L229.33,777.88z"/>
					<path class="st2" d="M361.72,719.86c0,18.97,4.12,33.97,12.37,45.02c8.24,11.05,20.55,16.57,36.94,16.57
						c6.57,0,13.39-1.37,20.45-4.12c7.06-2.75,13.17-6.33,18.35-10.75l3.56,3.07l-6.95,18.43c-6.47,4.42-14.04,8.03-22.71,10.83
						c-8.68,2.8-16.89,4.2-24.65,4.2c-13.58,0-25.7-2-36.37-5.98c-5.5-2.05-10.48-4.47-14.95-7.27c-4.47-2.8-8.6-6.14-12.37-10.02
						c-7.44-7.54-13.07-16.7-16.89-27.48c-3.83-10.77-5.74-22.9-5.74-36.37c0-11.42,1.78-22.06,5.33-31.93
						c3.56-9.86,8.7-18.32,15.44-25.38c6.73-7.06,14.9-12.53,24.49-16.41c9.59-3.88,20.31-5.82,32.17-5.82
						c46.34,0,69.51,27.8,69.51,83.41H361.72z M414.1,704.02c0-12.82-1.81-24.87-5.42-36.13c-3.61-11.26-9.67-16.89-18.19-16.89
						c-10.45,0-17.73,5.44-21.82,16.33c-2.16,5.93-3.85,11.88-5.09,17.86c-1.24,5.98-1.86,12.26-1.86,18.83H414.1z"/>
					<path class="st2" d="M487.19,639.85c3.56,0.43,7.46,0.81,11.72,1.13c4.26,0.32,7.95,0.48,11.07,0.48
						c7.11,0,14.76-0.54,22.95-1.62v70.48l2.91,0.32c2.8-2.8,6.09-6.2,9.86-10.18c2.59-2.69,5.82-6.2,9.7-10.51l20.04-22.63
						l23.92-27.48l3.72,0.32l3.56,0.48l3.88,0.32l3.07,0.16l3.07-0.16l3.72-0.32l3.39-0.48l3.72-0.32v1.94
						c-1.73,2.26-3.77,4.74-6.14,7.44c-1.51,1.73-3.77,4.2-6.79,7.44l-15.68,15.84l-14.71,14.55l-12.29,13.42l26.83,42.03
						c4.42,7.01,8.14,13.04,11.15,18.1c3.99,6.57,7.6,12.66,10.83,18.27c2.59,4.42,6.09,10.62,10.51,18.59v2.26l-12.77-0.65
						L606,798.42c-3.45,0-7.71,0.21-12.77,0.65l-12.29,0.65c-14.77-27.37-27.7-49.36-38.8-65.95c-2.8-4.53-5.88-8.03-9.21-10.51
						v76.46l-11.8-0.65l-11.15-0.65c-1.62,0-3.18,0-4.69,0c-2.8,0.32-5.01,0.54-6.63,0.65l-11.48,0.65V639.85z"/>
					<path class="st2" d="M646.45,723.26c0-12.93,1.94-24.73,5.82-35.4c3.88-10.67,9.54-19.83,16.97-27.48
						c7.44-7.65,16.3-13.55,26.59-17.7c10.29-4.15,21.63-6.22,34.03-6.22c16.59,0,31.3,3.18,44.13,9.54
						c12.82,6.36,22.79,15.55,29.9,27.56c7.11,12.02,10.67,26.16,10.67,42.43c0,16.71-3.5,31.68-10.51,44.94
						c-7.01,13.26-16.89,23.6-29.66,31.04s-27.62,11.15-44.53,11.15c-16.16,0-30.58-3.26-43.24-9.78
						c-12.66-6.52-22.53-15.84-29.58-27.97C649.98,753.24,646.45,739.21,646.45,723.26z M695.43,722.29
						c0,8.73,0.97,18.13,2.91,28.21c1.94,10.08,5.47,18.86,10.59,26.35c5.12,7.49,12.1,11.23,20.93,11.23
						c11.74,0,20.63-7.81,26.67-23.44c6.03-15.62,9.05-33.73,9.05-54.31c0-16.92-2.91-31.04-8.73-42.35S742.79,651,732.12,651
						c-12.61,0-21.88,6.52-27.8,19.56C698.39,683.6,695.43,700.84,695.43,722.29z"/>
					<path class="st2" d="M845.46,639.85l5.82,0.32l5.66,0.48l5.98,0.32l4.69,0.16l4.69-0.16l5.82-0.32l5.33-0.48l5.98-0.32v28.77
						c3.77-9.91,9.59-17.75,17.46-23.52c7.86-5.76,17.08-8.65,27.64-8.65c11.64,0,21.63,2.13,29.99,6.39
						c8.35,4.26,15.14,10.08,20.37,17.46c5.23,7.38,9.05,15.92,11.48,25.62c2.42,9.7,3.64,20.04,3.64,31.04
						c0,19.07-3.05,35.05-9.13,47.93c-6.09,12.88-14.17,22.47-24.25,28.77c-10.08,6.3-20.99,9.46-32.73,9.46
						c-18.32,0-32.55-7.97-42.67-23.92v105.23c-3.99-0.59-8-1.06-12.04-1.41c-4.04-0.36-7.68-0.53-10.91-0.53
						c-2.8,0-6.22,0.16-10.26,0.48s-8.22,0.75-12.53,1.29V639.85z M951.02,720.51c0-41.92-9.59-62.88-28.77-62.88
						c-12.5,0-20.99,6.76-25.46,20.29c-4.47,13.53-6.71,28.32-6.71,44.37c0,39.44,10.07,59.16,30.23,59.16
						c10.35-1.18,18.05-7.14,23.12-17.86C948.49,752.87,951.02,738.51,951.02,720.51z"/>
				</g>
				<g>
					<path class="st2" d="M253.2,587.13l-6.18-0.32l-6.02-0.32c-1.11,0-2.19,0-3.25,0c-1.27,0.16-2.22,0.26-2.85,0.32l-6.1,0.32
						V476.05h39.9c11.29,0,19.9,2.3,25.81,6.89c5.91,4.59,8.87,11.43,8.87,20.51c0,9.13-2.05,16.3-6.14,21.5
						c-4.09,5.2-9.87,8.79-17.34,10.77c-7.47,1.98-16.38,2.97-26.72,2.97V587.13z M253.2,529.57c2.38,0,4.37-0.09,5.98-0.28
						c1.61-0.18,3.18-0.46,4.71-0.83c4.91-1.32,8.54-3.99,10.89-8c2.35-4.01,3.52-8.71,3.52-14.09c0-6.39-1.44-11.55-4.32-15.48
						c-2.88-3.93-6.45-5.9-10.73-5.9H253.2V529.57z"/>
					<path class="st2" d="M320.21,553.4l-4,11.35l-4.42,12.56l-3.01,9.66l-3.64-0.24l-3.96-0.24l-3.8,0.24l-3.96,0.24l46.4-112.35
						c2.06,0.32,4.09,0.48,6.1,0.48c1.95,0,4.01-0.16,6.18-0.48l45.29,112.51l-7.12-0.32l-7.04-0.32l-6.96,0.32l-6.81,0.32
						c-2-6.44-3.51-11.16-4.51-14.17c-1.74-5.23-3.01-8.97-3.8-11.24c-1-2.85-2.06-5.62-3.17-8.31H320.21z M354.22,543.5
						l-14.41-37.77l-15.25,37.77H354.22z"/>
					<path class="st2" d="M455.74,476.52h1.58l1.9-0.24l1.66-0.16l1.82-0.24c1.69,4.64,3.4,9.26,5.15,13.86
						c1.95,5.28,3.48,9.34,4.59,12.19l10.77,27.79l10.21,25.81l12.75,31.43l-5.38-0.48l-4.83-0.32l-4.04-0.16l-4.04,0.16
						c-0.95,0-1.72,0.03-2.3,0.08c-0.58,0.05-1.45,0.16-2.61,0.32l-5.3,0.4c-1.79-6.07-3.85-12.48-6.18-19.24
						c-2.53-7.39-4.62-13.25-6.25-17.58l-7.84-20.66l-8.47-22.8c-13.25,32.09-23.3,58.85-30.17,80.28c-2.53-0.32-5.07-0.48-7.6-0.48
						c-2.48,0-4.96,0.16-7.44,0.48l12.59-29.45l11.16-26.37l10.77-26.84c1.64-4.12,3.43-8.78,5.38-13.97
						c1.95-5.2,3.72-10.02,5.3-14.45l2.85,0.32C453.32,476.41,454.64,476.52,455.74,476.52z"/>
				</g>
			</g>
			<defs>
				<filter id="Adobe_OpacityMaskFilter" filterUnits="userSpaceOnUse" x="165.29" y="115.58" width="807.73" height="490.69">
					
						<feColorMatrix  type="matrix" values="-1 0 0 0 1  0 -1 0 0 1  0 0 -1 0 1  0 0 0 1 0" color-interpolation-filters="sRGB" result="source"/>
					<feFlood  style="flood-color:white;flood-opacity:1" result="back"/>
					<feBlend  in="source" in2="back" mode="normal"/>
				</filter>
			</defs>
			<mask maskUnits="userSpaceOnUse" x="165.29" y="115.58" width="807.73" height="490.69" id="SVGID_1_">
				<g class="st3">
					<line class="st4" x1="374.22" y1="115.58" x2="677.57" y2="606.27"/>
					<line class="st4" x1="509.78" y1="115.58" x2="817.4" y2="606.27"/>
					<line class="st4" x1="640.74" y1="115.58" x2="942.18" y2="606.25"/>
				</g>
			</mask>
			<g class="st5">
				<g>
					<path class="st6" d="M677.57,606.27h-65.19l-20.85-20.77l20.61-5.34c-11.12-12.02-37.39-31.75-37.39-31.75l19.28-7.08
						c-13.28-11.17-40.19-25.7-40.19-25.7l17.84-11.28c-10.62-7.4-42.03-19.34-42.03-19.34l15.91-13.26
						c-17.77-7.44-44.08-13.06-44.08-13.06l15.68-15.47c-16.85-4.06-45.69-6.08-45.69-6.08l14.97-18
						c-8.53-0.96-47.53,0.31-47.53,0.31l12.29-19.41c-13.8,0.65-46.14,7.55-46.14,7.55l11.43-22.21
						c-21.35,4.96-45.07,14.88-45.07,14.88l7.55-23.72c-19.62,7.76-43.12,22.21-43.12,22.21l5.82-24.15
						c-12.29,6.04-40.32,26.95-40.32,26.95l1.29-24.8c-13.37,11.21-35.79,33.42-35.79,33.42l-1.29-24.15
						c-5.61,5.17-32.45,38.6-32.45,38.6l-1.62-25.23c-10.57,10.57-29.97,43.23-29.97,43.23l-5.17-23.4
						c-4.96,4.74-23.5,46.79-23.5,46.79l-7.55-18.97l208.94-331.49L677.57,606.27z"/>
				</g>
				<g>
					<polygon class="st7" points="404.3,115.58 374.22,115.58 677.57,606.27 709.2,606.27 					"/>
				</g>
				<g>
					<polygon class="st7" points="509.78,115.58 538.67,115.58 844.01,606.25 817.4,606.27 					"/>
				</g>
				<defs>
					<filter id="Adobe_OpacityMaskFilter_1_" filterUnits="userSpaceOnUse" x="456.63" y="115.58" width="485.55" height="490.69">
						
							<feColorMatrix  type="matrix" values="-1 0 0 0 1  0 -1 0 0 1  0 0 -1 0 1  0 0 0 1 0" color-interpolation-filters="sRGB" result="source"/>
						<feFlood  style="flood-color:white;flood-opacity:1" result="back"/>
						<feBlend  in="source" in2="back" mode="normal"/>
					</filter>
				</defs>
				<mask maskUnits="userSpaceOnUse" x="456.63" y="115.58" width="485.55" height="490.69" id="SVGID_1_">
					<g class="st8">
						<g>
							<line class="st9" x1="456.63" y1="199.79" x2="709.2" y2="606.27"/>
							<line class="st9" x1="844.01" y1="606.25" x2="589.64" y2="197.48"/>
						</g>
					</g>
				</mask>
				<g>
					<g>
						<polygon class="st10" points="509.78,115.58 456.63,199.79 709.2,606.27 817.4,606.27 						"/>
					</g>
					<g>
						<polygon class="st11" points="640.74,115.58 589.64,197.48 844.01,606.25 942.18,606.25 						"/>
					</g>
				</g>
				<g>
					<polygon class="st7" points="640.74,115.58 671.79,115.58 973.01,606.25 942.18,606.25 					"/>
				</g>
			</g>
		</g>
	</g>
</g>
</svg>
