<svg width="2587" height="1991" viewBox="0 0 2587 1991" fill="none" xmlns="http://www.w3.org/2000/svg">
<path d="M153.5 942.788C113.267 952.445 10.209 950.884 0 942.788C101.22 1107.06 159.566 1197.94 251.5 1369.29C223.763 1433.26 207.065 1467.09 175.5 1524.29C202.915 1520.49 218.63 1520.2 247.5 1524.29C350.002 1296.85 413.09 1169.55 534 942.788H453C398.374 1064.09 367.775 1131.69 315 1227.79C250.411 1118.47 213.865 1057.62 153.5 942.788Z" fill="black"/>
<path fill-rule="evenodd" clip-rule="evenodd" d="M592 1224.29V937.788H706.5C757.655 943.207 783 959.288 785 1006.79C787 1054.29 759.5 1086.79 712.5 1093.79C665.5 1100.79 655 1099.29 655 1099.29V1224.29C630.572 1221.7 616.798 1221.35 592 1224.29ZM655 960.788V1074.79C655 1074.79 667.5 1076.29 689.5 1070.29C711.5 1064.29 719 1040.79 720 1015.79C721 990.788 707.5 962.288 685 960.788C662.5 959.288 655 960.788 655 960.788Z" fill="black"/>
<path d="M153.5 942.788C113.267 952.445 10.209 950.884 0 942.788C101.22 1107.06 159.566 1197.94 251.5 1369.29C223.763 1433.26 207.065 1467.09 175.5 1524.29C202.915 1520.49 218.63 1520.2 247.5 1524.29C350.002 1296.85 413.09 1169.55 534 942.788H453C398.374 1064.09 367.775 1131.69 315 1227.79C250.411 1118.47 213.865 1057.62 153.5 942.788Z" stroke="black"/>
<path fill-rule="evenodd" clip-rule="evenodd" d="M592 1224.29V937.788H706.5C757.655 943.207 783 959.288 785 1006.79C787 1054.29 759.5 1086.79 712.5 1093.79C665.5 1100.79 655 1099.29 655 1099.29V1224.29C630.572 1221.7 616.798 1221.35 592 1224.29ZM655 960.788V1074.79C655 1074.79 667.5 1076.29 689.5 1070.29C711.5 1064.29 719 1040.79 720 1015.79C721 990.788 707.5 962.288 685 960.788C662.5 959.288 655 960.788 655 960.788Z" stroke="black"/>
<path d="M1161 936.288C1123.64 1040.24 1096.59 1104.76 1044.5 1223.79C1061.07 1221.78 1070 1221.61 1085 1223.79C1112.39 1139.92 1129 1094.91 1161 1018.79C1192.99 1097.1 1209.36 1142.09 1236.5 1223.79C1266.23 1219.8 1282.28 1219.94 1310 1223.79C1265.79 1114.65 1240.96 1051.94 1196.5 936.288C1182.64 938.592 1174.86 938.18 1161 936.288Z" fill="black"/>
<path fill-rule="evenodd" clip-rule="evenodd" d="M759 1223.79C806.695 1110.3 833.208 1046.61 877.5 932.288C890.19 934.557 897.306 934.596 910 932.288L1027.5 1223.79C1000.02 1222.18 984.231 1222.35 956 1223.79L925.5 1137.29C888.035 1136.12 867.081 1135.9 829 1137.29L797.5 1223.79C782.122 1222.19 773.752 1222.46 759 1223.79ZM877.5 1014.29L841 1110.29C869.8 1112.29 886.083 1112.45 915.5 1110.29L877.5 1014.29Z" fill="black"/>
<path d="M1161 936.288C1123.64 1040.24 1096.59 1104.76 1044.5 1223.79C1061.07 1221.78 1070 1221.61 1085 1223.79C1112.39 1139.92 1129 1094.91 1161 1018.79C1192.99 1097.1 1209.36 1142.09 1236.5 1223.79C1266.23 1219.8 1282.28 1219.94 1310 1223.79C1265.79 1114.65 1240.96 1051.94 1196.5 936.288C1182.64 938.592 1174.86 938.18 1161 936.288Z" stroke="black"/>
<path fill-rule="evenodd" clip-rule="evenodd" d="M759 1223.79C806.695 1110.3 833.208 1046.61 877.5 932.288C890.19 934.557 897.306 934.596 910 932.288L1027.5 1223.79C1000.02 1222.18 984.231 1222.35 956 1223.79L925.5 1137.29C888.035 1136.12 867.081 1135.9 829 1137.29L797.5 1223.79C782.122 1222.19 773.752 1222.46 759 1223.79ZM877.5 1014.29L841 1110.29C869.8 1112.29 886.083 1112.45 915.5 1110.29L877.5 1014.29Z" stroke="black"/>
<path fill-rule="evenodd" clip-rule="evenodd" d="M213.5 1809.79C219.216 1774.18 219.155 1753.97 213.5 1717.29H249C335.32 1521.05 382.254 1407.62 461 1193.79C489.121 1199.67 505.276 1200.06 535 1193.79C611.073 1403.42 655.219 1518.75 738.5 1717.79H779.5C772.615 1754.28 771.206 1774.55 779.5 1809.79H766C744.282 1788.65 719.794 1782.48 657 1780.29C522.452 1778.96 447.072 1778.37 314.5 1782.29C273.42 1783.7 251.592 1786.11 227 1809.79H213.5ZM461.5 1359.29C404.513 1498.3 374.336 1576.7 323.5 1717.29C427.073 1722.39 486.058 1722.5 593 1717.79C543.947 1574.82 514.752 1496.84 461.5 1359.29Z" fill="black"/>
<path fill-rule="evenodd" clip-rule="evenodd" d="M1163 1687.79L1174 1697.29L1156 1744.79C1068.53 1791.46 1016.5 1789.29 934 1766.79C895.391 1756.26 839.807 1703.62 819 1635.29C795.346 1557.6 810.5 1482.79 850 1423.79C889.501 1364.79 988.5 1346.79 1049 1354.29C1109.5 1361.79 1149.87 1395.15 1175 1464.29C1188.05 1506.4 1190.09 1528.91 1190 1568.29H936C946.953 1675.73 968.796 1714.91 1051 1726.79C1104.58 1727.3 1127.45 1716.13 1163 1687.79ZM982 1395.79C956.5 1404.29 944.15 1448.63 936 1525.29H1071C1065.15 1456.48 1055.5 1403.79 1033.5 1395.79C1011.5 1387.79 1007.5 1387.29 982 1395.79Z" fill="black"/>
<path d="M1261 1774.79V1361.29C1305.84 1367.92 1331.48 1367.81 1378 1361.29V1543.29C1378 1543.29 1384.5 1543.79 1387 1543.29C1389.5 1542.79 1488.78 1433.63 1552.5 1361.29C1579.57 1364.35 1595.53 1364.12 1625 1361.29C1578.75 1419.69 1542.82 1455.43 1480 1518.79C1544.1 1618.05 1578.64 1673.98 1635 1774.79C1584.8 1770.88 1556.11 1770.53 1503.5 1774.79C1450.07 1679.92 1414.53 1604.33 1378 1577.29V1774.79C1331.44 1769.49 1305.88 1769.78 1261 1774.79Z" fill="black"/>
<path fill-rule="evenodd" clip-rule="evenodd" d="M2187 1360.79V1990.79C2233.86 1985.79 2260.14 1985.45 2307 1990.79V1722.79C2333.37 1763.07 2352 1780.79 2418.5 1783.79C2485 1786.79 2575 1727.29 2585.5 1596.29C2596 1465.29 2524 1371.79 2478.5 1360.79C2433 1349.79 2404.05 1349.26 2369.5 1360.79C2332.83 1380.3 2318.86 1396.61 2302 1432.29V1360.79C2257.98 1365.37 2232.84 1365.55 2187 1360.79ZM2385.5 1405.29C2326 1406.79 2300.5 1503.29 2302 1568.79C2303.5 1634.29 2307 1702.29 2354.5 1722.79C2402 1743.29 2453 1704.79 2460 1607.79C2467 1510.79 2445 1403.79 2385.5 1405.29Z" fill="black"/>
<path fill-rule="evenodd" clip-rule="evenodd" d="M1674.5 1610.79C1671.08 1545.25 1676.59 1511.99 1699 1458.29C1727.41 1409.36 1748.85 1391.61 1793 1370.29C1852.73 1348.69 1890.63 1346.65 1967 1363.29C2034.54 1386.29 2063.66 1410.84 2096 1480.79C2110.29 1546.22 2110.46 1580.27 2096 1637.29C2077.9 1688.1 2060.76 1709.98 2022.5 1741.79C1972.32 1775.57 1940.14 1782.49 1879 1783.79C1796.26 1777.46 1759 1756.14 1705 1693.79C1687.38 1663.83 1680.58 1645.71 1674.5 1610.79ZM1816 1458.29C1802.58 1495.46 1799.97 1529.72 1801 1606.29C1806.51 1661.99 1815.25 1688.82 1843.5 1726.79C1865.1 1743.76 1878.49 1748.23 1906 1741.79C1930.89 1733.37 1944.37 1717.91 1967 1657.79C1983.47 1589.84 1984.35 1551.75 1975.5 1483.79C1954.57 1416.11 1937.94 1392.05 1894 1389.79C1851.27 1393.03 1835.16 1409.91 1816 1458.29Z" fill="black"/>
<path d="M424 854.5L443.5 904L504 783L518.5 844C550.81 789.839 567.965 763.577 595 732L600 797L684 697L688 759.5L779 673L776.5 737C816.511 705.857 838.95 689.914 879 668L866 730C907.863 704.235 931.821 691.504 975.5 672.5L958 733.5C1002.49 714.923 1027.81 706.674 1073.5 695L1045 753C1092.09 741.575 1117.99 737.42 1163.5 733L1132.5 784C1181.72 780.881 1208.27 780.175 1252.5 782L1217 830C1267.04 832.974 1292.56 836.447 1334 845.5L1294.5 885.5C1343.09 896.105 1368.51 903.021 1407 919L1366.5 953C1416.76 971.837 1442.25 982.641 1476 1003L1429.5 1031.5C1474.32 1056.24 1497.77 1070.72 1534 1098.5L1484 1117.5L1581.5 1198.5L1527.5 1213.5L1581.5 1267.5H1744.5L962.5 1.5L424 854.5Z" fill="#CB9D29"/>
<path d="M1045 1H971.5L1754.5 1267.5H1832L1045 1Z" fill="#C1C47F"/>
<path d="M1395.5 0H1322L2105 1266.5H2182.5L1395.5 0Z" fill="#C1C47F"/>
<path d="M1745.5 0H1672L2455 1266.5H2532.5L1745.5 0Z" fill="#C1C47F"/>
<path d="M1313 0.5L1182.5 208L1840 1267.5L2095.5 1266.5L1313 0.5Z" fill="#AE4C3B"/>
<path d="M1663.5 0L1533 207.5L2190.5 1266.5H2448L1663.5 0Z" fill="#570E00"/>
</svg>
