<svg width="540" height="325" viewBox="0 0 540 325" fill="none" xmlns="http://www.w3.org/2000/svg">
<path d="M0 218.492L4.9868 231.151L20.4587 200.207L24.1668 215.807C32.4296 201.956 36.8167 195.24 43.7304 187.165L45.0091 203.787L66.4907 178.214L67.5136 194.197L90.7853 172.076L90.146 188.443C100.378 180.479 106.116 176.402 116.359 170.798L113.034 186.653C123.74 180.064 129.867 176.809 141.037 171.949L136.562 187.548C147.939 182.798 154.414 180.688 166.099 177.703L158.81 192.535C170.853 189.613 177.475 188.551 189.115 187.42L181.187 200.463C193.775 199.665 200.563 199.485 211.875 199.951L202.796 212.227C215.592 212.987 222.119 213.875 232.717 216.19L222.616 226.42C235.043 229.132 241.542 230.9 251.386 234.987L241.029 243.682C253.882 248.499 260.4 251.262 269.031 256.468L257.14 263.757C268.602 270.085 274.598 273.786 283.864 280.891L271.077 285.75L296.011 306.464L282.202 310.3L296.011 324.11H337.696L137.712 0.351562L0 218.492Z" fill="white"/>
<path d="M158.789 0.234375H139.992L340.231 324.121H360.051L158.789 0.234375Z" fill="white"/>
<path d="M248.441 0H229.645L429.884 323.886H449.703L248.441 0Z" fill="white"/>
<path d="M337.937 0H319.141L519.38 323.886H539.199L337.937 0Z" fill="white"/>
<path d="M227.358 0.128906L193.984 53.1936L362.129 324.143L427.469 323.887L227.358 0.128906Z" fill="white"/>
<path d="M316.975 0L283.602 53.0646L451.746 323.886H517.598L316.975 0Z" fill="white"/>
</svg>
