<?xml version="1.0" encoding="UTF-8"?>
<!DOCTYPE svg PUBLIC "-//W3C//DTD SVG 1.1//EN" "http://www.w3.org/Graphics/SVG/1.1/DTD/svg11.dtd">
<!-- Creator: CorelDRAW X8 -->
<svg xmlns="http://www.w3.org/2000/svg" xml:space="preserve" width="4mm" height="6.1618mm" version="1.1" style="shape-rendering:geometricPrecision; text-rendering:geometricPrecision; image-rendering:optimizeQuality; fill-rule:evenodd; clip-rule:evenodd"
viewBox="0 0 2711 4176"
 xmlns:xlink="http://www.w3.org/1999/xlink">
 <defs>
  <style type="text/css">
   <![CDATA[
    .fil1 {fill:#2B2A29}
    .fil0 {fill:#292929}
   ]]>
  </style>
 </defs>
 <g id="Слой_x0020_1">
  <metadata id="CorelCorpID_0Corel-Layer"/>
  <rect class="fil0" transform="matrix(0.374052 0.374052 -0.374052 0.374052 1355.38 -75.4843)" width="3825" height="3825" rx="344" ry="344"/>
  <path class="fil1" d="M2533 2568l125 124c70,71 70,186 0,257l-1174 1174c-71,70 -186,70 -257,0l-1174 -1174c-71,-71 -71,-186 0,-257l124 -124 1050 1049c71,71 186,71 257,0l1049 -1049z"/>
  <path class="fil1" d="M2533 1836l125 125c70,70 70,186 0,257l-1174 1173c-71,71 -186,71 -257,0l-1174 -1173c-71,-71 -71,-187 0,-257l124 -125 1050 1050c71,71 186,71 257,0l1049 -1050z"/>
 </g>
</svg>
