<?xml version="1.0" encoding="UTF-8"?>
<!DOCTYPE svg PUBLIC "-//W3C//DTD SVG 1.1//EN" "http://www.w3.org/Graphics/SVG/1.1/DTD/svg11.dtd">
<!-- Creator: CorelDRAW X8 -->
<svg xmlns="http://www.w3.org/2000/svg" xml:space="preserve" width="33.0023mm" height="31.8471mm" version="1.1" style="shape-rendering:geometricPrecision; text-rendering:geometricPrecision; image-rendering:optimizeQuality; fill-rule:evenodd; clip-rule:evenodd"
viewBox="0 0 30368 29305"
 xmlns:xlink="http://www.w3.org/1999/xlink">
 <defs>
  <style type="text/css">
   <![CDATA[
    .str0 {stroke:#2B2A29;stroke-width:545.306;stroke-linecap:round;stroke-linejoin:round}
    .fil0 {fill:none}
   ]]>
  </style>
 </defs>
 <g id="Слой_x0020_1">
  <metadata id="CorelCorpID_0Corel-Layer"/>
  <g id="_2536224487328">
   <path class="fil0 str0" d="M2055 19240c20,-1434 1875,-1267 1875,-281 0,528 -48,1219 -938,1219 -505,0 -937,-428 -937,-938zm12848 -10316c-2875,0 -3472,2667 -2907,3845 -1257,841 -1434,2434 -2503,440 -720,-1342 -693,-3062 -93,-4349 2057,-4419 7660,-2631 7660,-1343 0,287 -664,801 -867,1008 -745,761 -271,399 -1290,399zm-11590 4274c265,1742 780,772 -1657,3205 -337,336 -603,589 -875,1001 -202,307 -508,1005 -508,1461l0 4785 5627 0c-23,-1696 -296,-2004 1148,-3449 2910,-2909 5771,-5853 8676,-8769 916,-916 9736,-9629 9736,-9753 0,-559 -1025,-1406 -1313,-1406 -286,0 -2360,2171 -2492,2367 -8557,-5730 -20032,-564 -18342,10558z"/>
   <path class="fil0 str0" d="M17625 11345c336,635 751,1006 751,2063 0,1333 -1217,2719 -2533,2719 -3556,0 -758,-2383 -4947,1806 -473,473 -2422,2227 -2461,2696 722,-16 901,-375 1781,-375 0,1485 -504,2457 920,1482 296,-204 458,-286 769,-450 505,754 109,1019 562,1875 861,-200 712,-1013 1595,-1219 384,726 425,1314 844,1594 618,-165 589,-1048 1125,-1406 593,158 662,877 1313,1313 646,-433 348,-1689 938,-1689 365,0 818,882 1500,938 220,-415 202,-402 187,-1032 -11,-457 -127,-890 327,-813 642,107 2090,1603 1491,-538 -229,-820 -268,-984 1034,-652 1727,439 244,-819 244,-1841 970,-227 2023,139 1820,-496 -142,-447 -917,-768 -976,-1474 617,-144 1445,-294 1688,-656 -158,-593 -877,-662 -1313,-1313 351,-524 1109,-540 1501,-1126 -256,-382 -1139,-738 -1595,-844 11,-508 252,-613 563,-843 305,-226 522,-353 563,-845 -501,-240 -1185,-236 -1782,-375 16,-750 668,-1029 844,-1782 -716,-379 -1028,126 -1970,-94 13,-552 346,-1159 469,-1688 -544,12 -772,444 -1430,1102 -759,759 -3445,3251 -3822,3963z"/>
   <path class="fil0 str0" d="M273 28712c0,476 861,281 2157,281 364,0 281,-240 281,-844 8666,0 15626,1074 24947,0 0,1073 -311,844 2157,844 216,0 281,-65 281,-281l0 -3470c0,-219 -156,-375 -375,-375l-29448 0 0 3845z"/>
  </g>
 </g>
</svg>
