<?xml version="1.0" encoding="UTF-8"?>
<!DOCTYPE svg PUBLIC "-//W3C//DTD SVG 1.1//EN" "http://www.w3.org/Graphics/SVG/1.1/DTD/svg11.dtd">
<!-- Creator: CorelDRAW X8 -->
<svg xmlns="http://www.w3.org/2000/svg" xml:space="preserve" width="45.4837mm" height="32.1786mm" version="1.1" style="shape-rendering:geometricPrecision; text-rendering:geometricPrecision; image-rendering:optimizeQuality; fill-rule:evenodd; clip-rule:evenodd"
viewBox="0 0 68157 48220"
 xmlns:xlink="http://www.w3.org/1999/xlink">
 <defs>
  <style type="text/css">
   <![CDATA[
    .str0 {stroke:#2B2A29;stroke-width:888.01;stroke-linecap:round;stroke-linejoin:round}
    .fil0 {fill:none}
    .fil1 {fill:#FEFEFE}
   ]]>
  </style>
 </defs>
 <g id="Слой_x0020_1">
  <metadata id="CorelCorpID_0Corel-Layer"/>
  <g id="_2572656451424">
   <rect class="fil0 str0" x="13396" y="5848" width="38062" height="26961"/>
   <line class="fil0 str0" x1="13396" y1="32809" x2="444" y2= "47776" />
   <line class="fil0 str0" x1="13396" y1="5848" x2="1766" y2= "444" />
   <rect class="fil1 str0" x="444" y="444" width="6608" height="47332"/>
   <rect class="fil1 str0" x="13396" y="5848" width="3304" height="26961"/>
   <polyline class="fil0 str0" points="16700,5848 7052,444 7052,47776 16700,32809 "/>
   <polygon class="fil1 str0" points="7052,25210 7052,22854 13396,19328 16700,19328 "/>
   <line class="fil0 str0" x1="54762" y1="32809" x2="67713" y2= "47776" />
   <line class="fil0 str0" x1="54762" y1="5848" x2="66392" y2= "444" />
   <rect class="fil1 str0" x="61105" y="444" width="6608" height="47332"/>
   <rect class="fil1 str0" x="51458" y="5848" width="3304" height="26961"/>
   <polyline class="fil0 str0" points="51458,5848 61105,444 61105,47776 51458,32809 "/>
   <polygon class="fil1 str0" points="61105,25210 61105,22854 54762,19328 51458,19328 "/>
   <polygon class="fil1 str0" points="61105,15232 61105,12877 54762,12391 51458,12391 "/>
   <polygon class="fil1 str0" points="61105,35936 61105,31632 54762,26289 51458,26289 "/>
   <rect class="fil0 str0" x="16700" y="5848" width="9646" height="26961"/>
   <rect class="fil1 str0" x="26346" y="444" width="14273" height="36099"/>
   <polygon class="fil1 str0" points="40619,444 40619,36543 42535,32809 42535,3056 "/>
   <line class="fil0 str0" x1="26346" y1="3041" x2="40619" y2= "36543" />
   <polyline class="fil0 str0" points="26346,8724 40333,35873 26346,14671 "/>
   <line class="fil0 str0" x1="26346" y1="20354" x2="40333" y2= "35873" />
   <line class="fil0 str0" x1="36323" y1="36543" x2="26346" y2= "25772" />
   <line class="fil0 str0" x1="26346" y1="28416" x2="31036" y2= "36543" />
   <polyline class="fil0 str0" points="26614,3671 30250,1421 40619,26697 40619,36543 "/>
   <line class="fil0 str0" x1="30598" y1="35784" x2="34015" y2= "34052" />
   <line class="fil0 str0" x1="36323" y1="36543" x2="38869" y2= "34248" />
   <line class="fil0 str0" x1="26346" y1="25772" x2="29040" y2= "23344" />
   <line class="fil0 str0" x1="26346" y1="20354" x2="28958" y2= "18631" />
   <line class="fil0 str0" x1="26346" y1="14671" x2="28767" y2= "13424" />
   <line class="fil0 str0" x1="26346" y1="8724" x2="28395" y2= "7851" />
   <rect class="fil1 str0" x="19274" y="12292" width="7072" height="22335"/>
   <rect class="fil1 str0" x="57732" y="7798" width="2247" height="5617"/>
   <rect class="fil1 str0" x="54891" y="15034" width="2247" height="5617"/>
   <rect class="fil1 str0" x="57666" y="16620" width="2247" height="5617"/>
   <rect class="fil1 str0" x="57732" y="25409" width="2247" height="5617"/>
   <polygon class="fil1 str0" points="53437,22456 57732,25409 57732,31026 53437,26289 "/>
   <polyline class="fil0 str0" points="59979,25409 55221,22457 53437,22456 "/>
   <line class="fil0 str0" x1="40619" y1="3141" x2="31010" y2= "3141" />
   <line class="fil0 str0" x1="26346" y1="444" x2="28432" y2= "2546" />
   <line class="fil0 str0" x1="19274" y1="16886" x2="26346" y2= "16886" />
   <line class="fil0 str0" x1="19274" y1="26005" x2="26346" y2= "26005" />
  </g>
 </g>
</svg>
