<?xml version="1.0" encoding="UTF-8"?>
<!DOCTYPE svg PUBLIC "-//W3C//DTD SVG 1.1//EN" "http://www.w3.org/Graphics/SVG/1.1/DTD/svg11.dtd">
<!-- Creator: CorelDRAW X8 -->
<svg xmlns="http://www.w3.org/2000/svg" xml:space="preserve" width="31.5581mm" height="31.9869mm" version="1.1" style="shape-rendering:geometricPrecision; text-rendering:geometricPrecision; image-rendering:optimizeQuality; fill-rule:evenodd; clip-rule:evenodd"
viewBox="0 0 31448 31876"
 xmlns:xlink="http://www.w3.org/1999/xlink">
 <defs>
  <style type="text/css">
   <![CDATA[
    .str1 {stroke:#2B2A29;stroke-width:590.54;stroke-linecap:round;stroke-linejoin:round}
    .str0 {stroke:#2B2A29;stroke-width:590.54;stroke-linecap:round;stroke-linejoin:round}
    .fil1 {fill:none}
    .fil0 {fill:#FEFEFE}
   ]]>
  </style>
 </defs>
 <g id="Слой_x0020_1">
  <metadata id="CorelCorpID_0Corel-Layer"/>
  <g id="_2572656479552">
   <g>
    <path class="fil0 str0" d="M8350 19562c-3014,-56 -5987,-720 -8053,-2067 36,-801 -95,-1795 166,-2481 373,-978 1536,-1420 3162,-1994 964,-482 1930,-965 2895,-1447 323,-217 455,-577 280,-1168 -621,-753 -880,-1558 -1158,-2701 -160,91 -380,-282 -470,-401 -530,-697 -801,-1590 -158,-1742 -339,-2386 -24,-4226 1879,-5055 1777,-403 3079,-251 3736,654 2521,202 2635,2212 2334,4296 431,113 263,931 -56,1478 -215,367 -511,676 -691,623 -262,1801 -670,2400 -1182,2950 -5,464 129,959 622,1299 937,538 1906,877 2870,1254l50 54c228,830 499,1599 911,2331 -824,412 -1649,825 -2473,1237 -1729,610 -3663,1292 -4664,2880z"/>
    <path class="fil1 str1" d="M6800 10405c1558,1454 2957,1367 4234,102"/>
    <path class="fil1 str1" d="M8805 18966l0 -5032c-936,-700 -1872,-1400 -2808,-2100 -652,957 -763,1800 -287,2663 307,-716 1471,-1778 2221,-1216"/>
    <path class="fil1 str1" d="M8805 13934c936,-700 1872,-1400 2808,-2100 652,957 763,1800 287,2663 -307,-716 -1471,-1778 -2221,-1216"/>
   </g>
   <path class="fil0 str0" d="M31095 24160c-5321,3254 -15963,3536 -21459,-48 44,-1000 -119,-2243 208,-3100 465,-1223 1919,-1775 3950,-2492 1206,-603 2412,-1206 3618,-1809 404,-271 569,-720 350,-1459 -775,-941 -1099,-1947 -1446,-3375 -201,113 -475,-353 -588,-502 -662,-871 -1001,-1986 -198,-2177 -423,-2982 -29,-5281 2349,-6317 2221,-504 3848,-314 4669,817 3151,253 3292,2765 2917,5369 539,142 329,1164 -70,1846 -268,460 -638,845 -863,780 -329,2250 -838,2999 -1478,3686 -6,581 161,1199 777,1624 1965,1128 4046,1556 6011,2684 1212,724 1441,2582 1253,4473z"/>
   <path class="fil1 str1" d="M17376 10822c-246,-418 -348,-939 -219,-1628 876,0 1752,0 2628,0 -10,560 -21,1119 -31,1679 -793,-17 -1585,-34 -2378,-51z"/>
   <path class="fil1 str1" d="M23519 10822c246,-418 349,-939 219,-1628 -876,0 -1751,0 -2627,0 10,560 20,1119 31,1679 792,-17 1585,-34 2377,-51z"/>
   <line class="fil1 str1" x1="19773" y1="9951" x2="21122" y2= "9951" />
   <line class="fil1 str1" x1="23782" y1="9680" x2="25465" y2= "9364" />
   <line class="fil1 str1" x1="17115" y1="9674" x2="15497" y2= "9248" />
   <path class="fil1 str1" d="M17762 15252c1948,1817 3696,1709 5292,127"/>
   <path class="fil1 str1" d="M20268 26701c0,-2346 0,-4693 0,-7039 -1169,-875 -2339,-1750 -3509,-2624 -814,1196 -953,2249 -358,3327 383,-895 1838,-2221 2776,-1519"/>
   <path class="fil1 str1" d="M20268 19662c1170,-875 2340,-1750 3510,-2624 814,1196 953,2249 358,3327 -383,-895 -1838,-2221 -2776,-1519"/>
   <rect class="fil1 str1" x="22113" y="21779" width="4702" height="2900"/>
   <line class="fil1 str1" x1="23047" y1="22805" x2="25882" y2= "22805" />
   <line class="fil1 str1" x1="23047" y1="23678" x2="25882" y2= "23678" />
   <rect class="fil0 str1" x="2428" y="17043" width="12051" height="14538"/>
   <circle class="fil0 str1" cx="8453" cy="27778" r="1300"/>
   <line class="fil1 str1" x1="4699" y1="20358" x2="12208" y2= "20358" />
   <line class="fil1 str1" x1="4699" y1="22896" x2="12208" y2= "22896" />
   <line class="fil1 str1" x1="4699" y1="27778" x2="5735" y2= "27778" />
   <line class="fil1 str1" x1="11095" y1="27778" x2="12131" y2= "27778" />
   <circle class="fil0 str1" cx="8453" cy="27778" r="327"/>
  </g>
 </g>
</svg>
