<?xml version="1.0" encoding="UTF-8"?>
<!DOCTYPE svg PUBLIC "-//W3C//DTD SVG 1.1//EN" "http://www.w3.org/Graphics/SVG/1.1/DTD/svg11.dtd">
<!-- Creator: CorelDRAW X8 -->
<svg xmlns="http://www.w3.org/2000/svg" xml:space="preserve" width="30.328mm" height="31.6824mm" version="1.1" style="shape-rendering:geometricPrecision; text-rendering:geometricPrecision; image-rendering:optimizeQuality; fill-rule:evenodd; clip-rule:evenodd"
viewBox="0 0 26642 27832"
 xmlns:xlink="http://www.w3.org/1999/xlink">
 <defs>
  <style type="text/css">
   <![CDATA[
    .str0 {stroke:#2B2A29;stroke-width:520.581;stroke-linecap:round;stroke-linejoin:round}
    .fil0 {fill:none}
    .fil1 {fill:#FEFEFE}
   ]]>
  </style>
 </defs>
 <g id="Слой_x0020_1">
  <metadata id="CorelCorpID_0Corel-Layer"/>
  <g id="_2572656454624">
   <path class="fil0 str0" d="M2508 17459c238,-159 335,-423 206,-857 -456,-553 -646,-1145 -850,-1984 -118,67 -279,-207 -345,-295 -389,-512 -588,-1167 -116,-1279 -249,-1753 -18,-3104 1380,-3713 1208,-273 2116,-198 2627,341 -474,1050 -738,2215 -738,3442 0,1889 626,3631 1682,5032 -416,325 -758,737 -968,1287 -245,645 -220,1192 -215,1792 -1477,-219 -3299,-839 -4601,-1823 -1146,-868 1200,-1573 1938,-1943z"/>
   <path class="fil0 str0" d="M6888 7442c-330,-486 -494,-1022 -669,-1740 -117,66 -279,-208 -345,-295 -389,-512 -588,-1168 -116,-1280 -249,-1752 -17,-3103 1380,-3712 1305,-296 2262,-184 2744,480 1852,149 1935,1625 1714,3155 249,66 226,449 92,805 -1886,307 -3561,1243 -4800,2587z"/>
   <path class="fil0 str0" d="M14190 4825c-119,-335 -91,-626 210,-698 -249,-1752 -17,-3103 1380,-3712 1305,-296 2262,-184 2744,480 1852,149 1935,1625 1714,3155 317,84 193,684 -41,1086 -158,269 -375,496 -507,457 -137,937 -327,1431 -560,1783 -1278,-1355 -3003,-2285 -4940,-2551z"/>
   <circle class="fil0 str0" cx="13040" cy="13114" r="8368"/>
   <circle class="fil0 str0" cx="13040" cy="13114" r="8368"/>
   <path class="fil0 str0" d="M13040 4746c4621,0 8367,3746 8367,8368 0,2125 -793,4065 -2099,5541l1 1 6693 6693c507,506 507,1336 0,1843l0 0c-507,506 -1336,506 -1843,0l-6693 -6693c-59,-59 -111,-122 -156,-189 -1250,744 -2710,1171 -4270,1171 -4622,0 -8368,-3746 -8368,-8367 0,-4622 3746,-8368 8368,-8368z"/>
   <path class="fil0 str0" d="M23628 17459c-238,-159 -335,-423 -206,-857 456,-553 646,-1145 850,-1984 118,67 279,-207 345,-295 389,-512 588,-1167 116,-1279 249,-1753 18,-3104 -1380,-3713 -1208,-273 -2116,-198 -2627,341 474,1050 738,2215 738,3442 0,1889 -626,3631 -1682,5032 416,325 758,737 968,1287 245,645 220,1192 215,1792 1477,-219 3299,-839 4601,-1823 1146,-868 -1200,-1573 -1938,-1943z"/>
   <path class="fil1 str0" d="M19329 21837c-3128,1912 -9381,2078 -12611,-28 26,-588 -70,-1319 122,-1822 273,-719 1128,-1043 2321,-1465 709,-354 1418,-709 2127,-1063 237,-159 334,-423 205,-857 -455,-553 -646,-1145 -850,-1984 -117,67 -279,-207 -345,-295 -389,-512 -588,-1167 -116,-1279 -249,-1753 -17,-3104 1380,-3713 1305,-295 2261,-184 2744,481 1851,148 1935,1624 1714,3155 317,83 193,684 -41,1085 -158,270 -375,497 -507,458 -193,1322 -493,1763 -869,2166 -4,341 95,705 457,955 1155,663 2378,914 3532,1577 713,426 847,1517 737,2629z"/>
   <path class="fil1 str0" d="M13040 4746c4621,0 8367,3746 8367,8368 0,2125 -793,4065 -2099,5541l1 1 6693 6693c507,506 507,1336 0,1843l0 0c-507,506 -1336,506 -1843,0l-6693 -6693c-59,-59 -111,-122 -156,-189 -1250,744 -2710,1171 -4270,1171 -4622,0 -8368,-3746 -8368,-8367 0,-4622 3746,-8368 8368,-8368zm0 1807c3623,0 6561,2937 6561,6561 0,3623 -2938,6561 -6561,6561 -3624,0 -6561,-2938 -6561,-6561 0,-3624 2937,-6561 6561,-6561z"/>
  </g>
 </g>
</svg>
