<?xml version="1.0" encoding="UTF-8"?>
<!DOCTYPE svg PUBLIC "-//W3C//DTD SVG 1.1//EN" "http://www.w3.org/Graphics/SVG/1.1/DTD/svg11.dtd">
<!-- Creator: CorelDRAW X8 -->
<svg xmlns="http://www.w3.org/2000/svg" xml:space="preserve" width="35.7822mm" height="31.6574mm" version="1.1" style="shape-rendering:geometricPrecision; text-rendering:geometricPrecision; image-rendering:optimizeQuality; fill-rule:evenodd; clip-rule:evenodd"
viewBox="0 0 35863 31729"
 xmlns:xlink="http://www.w3.org/1999/xlink">
 <defs>
  <style type="text/css">
   <![CDATA[
    .str0 {stroke:#2B2A29;stroke-width:593.945;stroke-linecap:round;stroke-linejoin:round}
    .fil1 {fill:none}
    .fil0 {fill:none;fill-rule:nonzero}
   ]]>
  </style>
 </defs>
 <g id="Слой_x0020_1">
  <metadata id="CorelCorpID_0Corel-Layer"/>
  <path class="fil0 str0" d="M18185 31432c2328,-4321 6332,-10728 6332,-14304 0,-3576 -1583,-7152 -6332,-7152 -4750,0 -6333,3576 -6333,7152 0,3576 4042,9947 6333,14304z"/>
  <circle class="fil1 str0" cx="18185" cy="16400" r="3203"/>
  <path class="fil1 str0" d="M297 17201l6262 0 -2421 -2573m2421 2573l-2421 2573"/>
  <path class="fil1 str0" d="M35566 17201l-6239 0 2421 -2573m-2421 2573l2421 2573"/>
  <path class="fil1 str0" d="M32428 28549l-4335 -4336 3531 -107m-3531 107l-107 3531"/>
  <path class="fil1 str0" d="M3862 28534l4321 -4321 -3532 -107m3532 107l107 3531"/>
  <path class="fil1 str0" d="M32389 5614l-4296 4296 3531 107m-3531 -107l-107 -3532"/>
  <path class="fil1 str0" d="M4123 5850l4060 4060 -3532 107m3532 -107l107 -3532"/>
  <path class="fil1 str0" d="M18185 297l0 5401 2573 -2422m-2573 2422l-2573 -2422"/>
 </g>
</svg>
