<?xml version="1.0" encoding="UTF-8"?>
<!DOCTYPE svg PUBLIC "-//W3C//DTD SVG 1.1//EN" "http://www.w3.org/Graphics/SVG/1.1/DTD/svg11.dtd">
<!-- Creator: CorelDRAW X8 -->
<svg xmlns="http://www.w3.org/2000/svg" xml:space="preserve" width="5.448mm" height="6.1338mm" version="1.1" style="shape-rendering:geometricPrecision; text-rendering:geometricPrecision; image-rendering:optimizeQuality; fill-rule:evenodd; clip-rule:evenodd"
viewBox="0 0 3953 4451"
 xmlns:xlink="http://www.w3.org/1999/xlink">
 <defs>
  <style type="text/css">
   <![CDATA[
    .fil0 {fill:#292929}
   ]]>
  </style>
 </defs>
 <g id="Слой_x0020_1">
  <metadata id="CorelCorpID_0Corel-Layer"/>
  <path class="fil0" d="M288 0l1554 0c158,0 287,129 287,288l0 636 -491 0c-147,-158 -354,-250 -573,-250 -433,0 -784,351 -784,784 0,433 351,784 784,784 219,0 426,-92 573,-250l491 0 0 2171c0,158 -129,288 -287,288l-1554 0c-159,0 -288,-130 -288,-288l0 -3875c0,-159 129,-288 288,-288zm2703 1141l808 0c85,0 154,70 154,154l0 326c0,84 -69,153 -154,153l-808 0 -715 0 -742 0c-102,151 -274,250 -469,250 -313,0 -566,-254 -566,-566 0,-313 253,-566 566,-566 195,0 367,99 469,249l742 0 715 0zm-1926 1487c174,0 316,142 316,317 0,127 -76,237 -184,287l0 0 199 689 -331 0 -331 0 199 -689 0 0c-109,-50 -185,-160 -185,-287 0,-175 142,-317 317,-317z"/>
 </g>
</svg>
