<?xml version="1.0" encoding="UTF-8"?>
<!DOCTYPE svg PUBLIC "-//W3C//DTD SVG 1.1//EN" "http://www.w3.org/Graphics/SVG/1.1/DTD/svg11.dtd">
<!-- Creator: CorelDRAW X8 -->
<svg xmlns="http://www.w3.org/2000/svg" xml:space="preserve" width="34.9317mm" height="31.9075mm" version="1.1" style="shape-rendering:geometricPrecision; text-rendering:geometricPrecision; image-rendering:optimizeQuality; fill-rule:evenodd; clip-rule:evenodd"
viewBox="0 0 32007 29236"
 xmlns:xlink="http://www.w3.org/1999/xlink">
 <defs>
  <style type="text/css">
   <![CDATA[
    .str0 {stroke:#2B2A29;stroke-width:542.99;stroke-linecap:round;stroke-linejoin:round}
    .fil0 {fill:none}
   ]]>
  </style>
 </defs>
 <g id="Слой_x0020_1">
  <metadata id="CorelCorpID_0Corel-Layer"/>
  <g id="_2572656472064">
   <path class="fil0 str0" d="M12111 27121c-950,-689 -455,-1633 299,-2622 109,-163 187,-852 -2,-1715 -121,-555 -578,-1208 -672,-1731 -717,-5381 1466,-9150 6142,-11535 2741,-1144 5399,-1150 8053,-113 -437,1495 -471,2371 441,3516 1686,1455 2729,3531 2667,5885 -316,3101 842,3581 2697,4944 -58,2624 -1215,4343 -3820,4869 -4694,0 -9388,0 -14083,0 -574,-500 -1148,-999 -1722,-1498z"/>
   <path class="fil0 str0" d="M25714 10272c4730,1853 6591,6318 5728,13264"/>
   <polyline class="fil0 str0" points="12686,27621 603,27621 603,28965 "/>
   <line class="fil0 str0" x1="12963" y1="25969" x2="14348" y2= "27392" />
   <path class="fil0 str0" d="M28577 12010c475,0 951,0 1427,0 948,-28 1361,492 1311,1487 0,1200 0,2400 0,3600"/>
   <circle class="fil0 str0" cx="21043" cy="18880" r="5543"/>
   <circle class="fil0 str0" cx="28384" cy="25687" r="524"/>
   <polyline class="fil0 str0" points="12686,27621 603,27621 603,23852 12522,23852 "/>
   <line class="fil0 str0" x1="2171" y1="23852" x2="2171" y2= "25701" />
   <line class="fil0 str0" x1="4643" y1="23852" x2="4643" y2= "25701" />
   <line class="fil0 str0" x1="7198" y1="23852" x2="7198" y2= "25701" />
   <line class="fil0 str0" x1="9737" y1="23852" x2="9737" y2= "25701" />
   <path class="fil0 str0" d="M6069 16855c0,-5462 197,-4353 3930,-8470 527,-831 827,-1799 827,-2837 0,-2914 -2363,-5277 -5277,-5277 -2915,0 -5278,2363 -5278,5277"/>
   <circle class="fil0 str0" cx="6069" cy="19898" r="524"/>
  </g>
 </g>
</svg>
