<?xml version="1.0" encoding="UTF-8"?>
<!DOCTYPE svg PUBLIC "-//W3C//DTD SVG 1.1//EN" "http://www.w3.org/Graphics/SVG/1.1/DTD/svg11.dtd">
<!-- Creator: CorelDRAW X8 -->
<svg xmlns="http://www.w3.org/2000/svg" xml:space="preserve" width="98.4251mm" height="82.8959mm" version="1.1" style="shape-rendering:geometricPrecision; text-rendering:geometricPrecision; image-rendering:optimizeQuality; fill-rule:evenodd; clip-rule:evenodd"
viewBox="0 0 5445316 4586171"
 xmlns:xlink="http://www.w3.org/1999/xlink">
 <defs>
  <style type="text/css">
   <![CDATA[
    .fil0 {fill:#292929}
   ]]>
  </style>
 </defs>
 <g id="Слой_x0020_1">
  <metadata id="CorelCorpID_0Corel-Layer"/>
  <path class="fil0" d="M5041093 3952291c5843,19336 9002,39812 9002,60990l0 360644c0,116734 -95507,212246 -212247,212246l-165902 0c-116740,0 -212246,-95512 -212246,-212246l0 -360644c0,-21178 3159,-41654 9001,-60990l-3492086 0c5842,19336 9001,39812 9001,60990l0 360644c0,116734 -95506,212246 -212246,212246l-165902 0c-116740,0 -212247,-95512 -212247,-212246l0 -360644c0,-21178 3159,-41654 9002,-60990l-404223 0 0 -1317414 5445316 0 0 1317414 -404223 0zm-3835905 -2537235l390347 0 185415 0 390347 0 312274 556238 -1590656 0 312273 -556238zm2068831 0l390347 0 185415 0 390347 0 312273 556238 -1590656 0 312274 -556238zm-2561645 -1210123l4020568 0 0 -204933 204921 0 0 204933 0 97587 0 1668774 507447 409860 -2722655 0 -2722655 0 507447 -409860 6 0 0 -1668774 0 -97587 0 -204933 204921 0 0 204933z"/>
 </g>
</svg>
