<?xml version="1.0" encoding="UTF-8"?>
<!DOCTYPE svg PUBLIC "-//W3C//DTD SVG 1.1//EN" "http://www.w3.org/Graphics/SVG/1.1/DTD/svg11.dtd">
<!-- Creator: CorelDRAW X8 -->
<svg xmlns="http://www.w3.org/2000/svg" xml:space="preserve" width="90.0908mm" height="79.9042mm" version="1.1" style="shape-rendering:geometricPrecision; text-rendering:geometricPrecision; image-rendering:optimizeQuality; fill-rule:evenodd; clip-rule:evenodd"
viewBox="0 0 1967970 1745451"
 xmlns:xlink="http://www.w3.org/1999/xlink">
 <defs>
  <style type="text/css">
   <![CDATA[
    .fil0 {fill:#292929}
   ]]>
  </style>
 </defs>
 <g id="Слой_x0020_1">
  <metadata id="CorelCorpID_0Corel-Layer"/>
  <path class="fil0" d="M0 0l967128 0 0 1745451 -967128 0 0 -1745451zm1967970 0l-967128 0 0 1745451 967128 0 0 -1745451zm-817818 1519083c-46814,0 -84767,37952 -84767,84766 0,46815 37953,84767 84767,84767 46815,0 84767,-37952 84767,-84767 0,-46814 -37952,-84766 -84767,-84766zm72248 -1087542l0 1059601 574110 0 0 -1059601c-117521,0 -124325,-281276 -287056,-281276 -162732,0 -169536,281276 -287056,281276l2 0zm-404582 1087542c46814,0 84766,37952 84766,84766 0,46815 -37952,84767 -84766,84767 -46815,0 -84767,-37952 -84767,-84767 0,-46814 37952,-84766 84767,-84766zm-72248 -1087542l0 1059601 -574110 0 0 -1059601c117520,0 124325,-281276 287056,-281276 162731,0 169536,281276 287056,281276l-2 0z"/>
 </g>
</svg>
