<?xml version="1.0" encoding="UTF-8"?>
<!DOCTYPE svg PUBLIC "-//W3C//DTD SVG 1.1//EN" "http://www.w3.org/Graphics/SVG/1.1/DTD/svg11.dtd">
<!-- Creator: CorelDRAW X8 -->
<svg xmlns="http://www.w3.org/2000/svg" xml:space="preserve" width="89.5572mm" height="77.9333mm" version="1.1" style="shape-rendering:geometricPrecision; text-rendering:geometricPrecision; image-rendering:optimizeQuality; fill-rule:evenodd; clip-rule:evenodd"
viewBox="0 0 1307344 1137660"
 xmlns:xlink="http://www.w3.org/1999/xlink">
 <defs>
  <style type="text/css">
   <![CDATA[
    .fil0 {fill:#292929}
   ]]>
  </style>
 </defs>
 <g id="Слой_x0020_1">
  <metadata id="CorelCorpID_0Corel-Layer"/>
  <path class="fil0" d="M979015 205707c15708,0 28441,12734 28441,28441 0,15708 -12733,28441 -28441,28441 -15708,0 -28441,-12733 -28441,-28441 0,-15707 12733,-28441 28441,-28441zm-437522 696707l224356 0c7502,0 13638,6137 13638,13639l0 119509c0,7501 -6136,13638 -13638,13638l-224356 0c-7502,0 -13637,-6137 -13637,-13638l0 -119509c0,-7502 6135,-13639 13637,-13639zm370561 -212106l263889 0 0 -92690 99 0c3,-1494 -139,-3060 -412,-4679 -970,-5775 -4235,-10175 -8601,-13159 -5528,-3777 -12612,-5684 -19684,-5700 -2004,-3 -4160,184 -6421,563 -6014,1012 -11407,3973 -15329,7882 -3021,3010 -4882,6113 -4901,8543 -109,14000 -11550,25263 -25552,25153 -14001,-109 -25263,-11551 -25154,-25552 127,-16204 7650,-32009 19814,-44135 10950,-10916 25997,-19177 42770,-21999 4670,-786 9631,-1172 14773,-1161 16944,40 34301,4870 48319,14451 15179,10376 26577,25971 30075,46761 671,3988 1019,8331 1009,13032l99 0 0 92690 40005 0c22271,0 40492,18221 40492,40493l0 366367c0,22271 -18221,40492 -40492,40492l-354798 0c-22270,0 -40491,-18221 -40491,-40492 0,22271 -18221,40492 -40492,40492l-354798 0c-22271,0 -40492,-18221 -40492,-40492 0,22271 -18221,40492 -40491,40492l-354798 0c-22271,0 -40492,-18221 -40492,-40492l0 -1056676c0,-22272 18221,-40492 40492,-40492l354798 0c22270,0 40491,18220 40491,40492l0 202812c0,-53463 154260,-63542 154260,-243304 71540,0 -11180,0 60361,0 71540,0 -11180,0 60361,0 0,179762 154260,189841 154260,243304 0,62990 0,43065 0,106054 -71541,0 -143081,0 -214621,0 -71541,0 -143079,0 -214621,0l0 381443c0,-22272 18221,-40493 40492,-40493l5785 0 0 -16694c0,-11932 9762,-21694 21694,-21694l120032 0c11933,0 21693,9762 21693,21694l0 16694 16390 0 0 -16694c0,-11932 9760,-21694 21693,-21694l120032 0c11932,0 21694,9762 21694,21694l0 16694 5785 0c22271,0 40492,18221 40492,40493 0,-22272 18221,-40493 40491,-40493zm13499 391299l327801 0 0 -334898 -327801 0 0 334898zm-22009 -1081607l371819 0c17590,0 31981,14389 31981,31980l0 280227c0,17591 -14391,31981 -31981,31981l-371819 0c-17591,0 -31981,-14390 -31981,-31981l0 -280227c0,-17591 14390,-31980 31981,-31980zm22009 54470l327801 0 0 235247 -327801 0 0 -235247zm-435113 240229c53320,0 106640,0 159962,0 53320,0 106640,0 159962,0 0,-13770 0,-27542 0,-41314 -6306,-5380 -16453,-12040 -21222,-15383 -19544,-13697 -38146,-27352 -55357,-44020 -41014,-39715 -64213,-86526 -73242,-139325 -3381,0 -6762,0 -10141,0 -3381,0 -6762,0 -10141,0 -9029,52799 -32228,99610 -73242,139325 -17212,16668 -35813,30323 -55358,44020 -4769,3343 -14915,10003 -21221,15383 0,13772 0,27544 0,41314zm-444051 442721l342262 0 0 347083 -342262 0 0 -347083zm0 -680669l342262 0 0 597754 -342262 0 0 -597754zm434946 804689l344674 0 0 225602 -344674 0 0 -225602zm0 -127747l344674 0 0 79541 -344674 0 0 -79541zm497680 97025c15708,0 28441,-12734 28441,-28441 0,-15708 -12733,-28441 -28441,-28441 -15708,0 -28441,12733 -28441,28441 0,15707 12733,28441 28441,28441zm-396505 -85697c15708,0 28441,12734 28441,28441 0,15709 -12733,28443 -28441,28443 -15707,0 -28441,-12734 -28441,-28443 0,-15707 12734,-28441 28441,-28441zm142322 0c15709,0 28441,12734 28441,28441 0,15709 -12732,28443 -28441,28443 -15707,0 -28441,-12734 -28441,-28443 0,-15707 12734,-28441 28441,-28441zm-70494 0c15707,0 28441,12734 28441,28441 0,15709 -12734,28443 -28441,28443 -15709,0 -28441,-12734 -28441,-28443 0,-15707 12732,-28441 28441,-28441zm-318105 10843c15707,0 28441,12734 28441,28441 0,15709 -12734,28441 -28441,28441 -15708,0 -28441,-12732 -28441,-28441 0,-15707 12733,-28441 28441,-28441zm0 -194270c15707,0 28441,12734 28441,28441 0,15709 -12734,28441 -28441,28441 -15708,0 -28441,-12732 -28441,-28441 0,-15707 12733,-28441 28441,-28441z"/>
 </g>
</svg>
