<?xml version="1.0" encoding="UTF-8"?>
<!DOCTYPE svg PUBLIC "-//W3C//DTD SVG 1.1//EN" "http://www.w3.org/Graphics/SVG/1.1/DTD/svg11.dtd">
<!-- Creator: CorelDRAW X8 -->
<svg xmlns="http://www.w3.org/2000/svg" xml:space="preserve" width="61.3836mm" height="85.9828mm" version="1.1" style="shape-rendering:geometricPrecision; text-rendering:geometricPrecision; image-rendering:optimizeQuality; fill-rule:evenodd; clip-rule:evenodd"
viewBox="0 0 458090 641667"
 xmlns:xlink="http://www.w3.org/1999/xlink">
 <defs>
  <style type="text/css">
   <![CDATA[
    .fil0 {fill:#292929}
   ]]>
  </style>
 </defs>
 <g id="Слой_x0020_1">
  <metadata id="CorelCorpID_0Corel-Layer"/>
  <path class="fil0" d="M458090 530146l-207649 65348c-26395,28399 -64066,46173 -105895,46173 -79831,0 -144546,-64715 -144546,-144545 0,-48664 24049,-91712 60909,-117906l0 -291747 277941 -87469 119240 78921 0 451225zm-334556 -57951l51270 51272c-5360,2743 -9804,7026 -12752,12261l-51143 -51142c5328,-2800 9731,-7122 12625,-12391zm67957 68125l3801 3801 3797 3799 -1391 5189 -1388 5189 -5189 1388 -5188 1393 -3800 -3799 -3798 -3798 1390 -5191 1389 -5188 5191 -1389 5186 -1394zm-37719 -96672l-14624 -3401 23469 -23406 7825 13200 7821 -678 31636 31972 9181 48302 -7143 5100 -20407 -40478 -12926 -13264 -20409 -9183 -4423 -8164zm31711 33394l-26345 26344 -9379 -9379 26256 -26257 9468 9292zm-43060 43059l-39518 39518c-2581,2579 -6798,2579 -9377,0l-3 -2c-2581,-2579 -2581,-6801 0,-9377l39519 -39518 9379 9379zm-45710 -89299c14746,0 26702,11956 26702,26704 0,14744 -11956,26699 -26702,26699 -14744,0 -26701,-11955 -26701,-26699 0,-2481 340,-4882 972,-7158l13458 13108 17884 -340 484 -16499 -14385 -14500c2609,-852 5397,-1315 8288,-1315zm91999 93197c14745,0 26702,11956 26702,26701 0,14746 -11957,26702 -26702,26702 -14746,0 -26701,-11956 -26701,-26702 0,-14745 11955,-26701 26701,-26701zm4577 9616l6255 6255 6251 6251 -2289 8544 -2291 8541 -8538 2288 -8542 2292 -6255 -6256 -6251 -6254 2289 -8541 2288 -8541 8541 -2288 8542 -2291zm74781 38612l45157 -14212c-184,-585 -284,-1208 -284,-1854l0 -103712 -28239 9213c2861,11347 4388,23224 4388,35460 0,27506 -7682,53219 -21022,75105zm13104 -122383l31769 -10365 0 -179632 -112873 36823c-633,206 -1275,303 -1906,303l0 65881c38789,15506 69289,47330 83010,86990zm-136628 -74965c67512,0 122243,54730 122243,122243 0,67512 -54731,122242 -122243,122242 -67513,0 -122243,-54730 -122243,-122242 0,-67513 54730,-122243 122243,-122243zm180467 -236466c183,585 283,1208 283,1854l0 102580 112873 -36824c633,-206 1275,-303 1906,-303l0 -103518 -115062 36211zm115062 79958l-114779 37445 0 179633 112873 -36824c633,-205 1275,-303 1906,-303l0 -179951zm0 192602l-114779 37445 0 105799 114779 -36121 0 -107123zm-241911 -126650l114779 -37446 0 -104666 -114779 36122 0 105990z"/>
 </g>
</svg>
