<?xml version="1.0" encoding="UTF-8"?>
<!DOCTYPE svg PUBLIC "-//W3C//DTD SVG 1.1//EN" "http://www.w3.org/Graphics/SVG/1.1/DTD/svg11.dtd">
<!-- Creator: CorelDRAW X8 -->
<svg xmlns="http://www.w3.org/2000/svg" xml:space="preserve" width="89.173mm" height="67.5817mm" version="1.1" style="shape-rendering:geometricPrecision; text-rendering:geometricPrecision; image-rendering:optimizeQuality; fill-rule:evenodd; clip-rule:evenodd"
viewBox="0 0 805613 610551"
 xmlns:xlink="http://www.w3.org/1999/xlink">
 <defs>
  <style type="text/css">
   <![CDATA[
    .fil0 {fill:#292929;fill-rule:nonzero}
   ]]>
  </style>
 </defs>
 <g id="Слой_x0020_1">
  <metadata id="CorelCorpID_0Corel-Layer"/>
  <path class="fil0" d="M12546 371140l117220 0 0 -20014c0,-4692 1911,-8949 4989,-12027 3077,-3077 7335,-4988 12026,-4988l25240 0 0 -16565c0,-4560 1857,-8700 4848,-11692 2706,-2706 6351,-4484 10398,-4799l0 -2402 -32758 0c-11609,0 -22154,-4740 -29790,-12377 -7637,-7636 -12378,-18180 -12378,-29790 0,-11609 4741,-22153 12378,-29790 7636,-7637 18181,-12377 29790,-12377l74924 0c11609,0 22154,4740 29790,12377 7637,7637 12377,18181 12377,29790l0 44519 3063 0c4561,0 8700,1857 11691,4849 2992,2992 4849,7132 4849,11692l0 16565 52012 0 0 -16565c0,-4560 1858,-8700 4849,-11692 2992,-2992 7132,-4849 11692,-4849l5936 0 0 -211575c0,-24606 10058,-46966 26261,-63169 16203,-16203 38563,-26261 63169,-26261 24607,0 46967,10058 63170,26261 16203,16203 26261,38563 26261,63169l0 12236c523,436 1025,894 1505,1374 4043,4043 6553,9632 6553,15788l0 25714c0,6157 -2510,11745 -6553,15787 -4043,4043 -9630,6553 -15787,6553l-48366 0c-6156,0 -11745,-2510 -15787,-6553 -4043,-4042 -6554,-9630 -6554,-15787l0 -25714c0,-6156 2511,-11745 6554,-15788 555,-555 1140,-1081 1751,-1576 -709,-12800 -2943,-20390 -5991,-24648 -1999,-2794 -4902,-3527 -7845,-3527 -2919,0 -5750,734 -7669,3548 -3560,5223 -5922,15381 -5922,33775l0 190393 5415 0c4562,0 8700,1857 11692,4849 2992,2992 4849,7132 4849,11692l0 16565 52012 0 0 -16565c0,-4560 1858,-8700 4849,-11692 2992,-2992 7132,-4849 11692,-4849l3062 0 0 -44519c0,-11609 4741,-22153 12377,-29790 7637,-7637 18182,-12377 29790,-12377l74925 0c11609,0 22154,4740 29790,12377 7636,7637 12377,18181 12377,29790 0,11610 -4741,22154 -12377,29790 -7636,7637 -18181,12377 -29790,12377l-32758 0 0 2402c4047,315 7691,2093 10397,4799 2992,2992 4849,7132 4849,11692l0 16565 25239 0c4649,0 8899,1921 12001,5014l26 -26c3077,3078 4988,7335 4988,12027l0 20014 117220 0c6929,0 12546,5617 12546,12545 0,64893 -29922,114360 -70150,150356 -59350,53106 -141952,76510 -181912,76510l-301489 0c-39960,0 -122562,-23404 -181912,-76510 -40229,-35996 -70150,-85463 -70150,-150356 0,-6928 5617,-12545 12546,-12545zm514974 -249561l-42864 0 0 20212 42864 0 0 -20212zm-136737 179426l24568 0 0 -190393c0,-23998 4120,-38774 10333,-47888 7854,-11521 18092,-14526 28349,-14526 10068,0 20284,2912 28231,14015 5127,7161 8925,17972 10287,34275l26911 0 0 -7058c0,-17680 -7242,-33763 -18909,-45429 -11667,-11667 -27749,-18910 -45430,-18910 -17681,0 -33764,7243 -45431,18910 -11667,11666 -18909,27749 -18909,45429l0 211575zm168321 0l34152 0 0 -14898c0,-6928 5617,-12545 12545,-12545l45304 0c4683,0 8949,-1925 12050,-5026 3101,-3100 5026,-7367 5026,-12050 0,-4683 -1925,-8950 -5026,-12050 -3101,-3101 -7367,-5026 -12050,-5026l-74925 0c-4683,0 -8950,1925 -12050,5026 -3100,3100 -5026,7367 -5026,12050l0 44519zm-19603 33106l69001 0 0 -8015 -2701 0 -59242 0 -7058 0 0 8015zm-327143 -33106l34151 0 0 -44519c0,-4683 -1925,-8950 -5026,-12050 -3099,-3101 -7367,-5026 -12050,-5026l-74924 0c-4684,0 -8951,1925 -12051,5026 -3100,3100 -5025,7367 -5025,12050 0,4683 1925,8950 5025,12050 3100,3101 7367,5026 12051,5026l45303 0c6929,0 12546,5617 12546,12545l0 14898zm-15247 33106l69002 0 0 -8015 -7058 0 -59243 0 -2701 0 0 8015zm171195 0l69001 0 0 -8015 -9410 0 -49659 0 -9932 0 0 8015zm-213449 37029l495899 0 0 -11937 -33704 0 -86101 0 -85094 0 -86101 0 -85093 0 -86102 0 -33704 0 0 11937zm247949 25091l-256025 0 -121249 0c3567,50586 28544,89896 61280,119188 54331,48616 129199,70041 165250,70041l301489 0c36051,0 110919,-21424 165250,-70041 32736,-29292 57712,-68602 61280,-119188l-121249 0 -256026 0z"/>
 </g>
</svg>
