<?xml version="1.0" encoding="UTF-8"?>
<!DOCTYPE svg PUBLIC "-//W3C//DTD SVG 1.1//EN" "http://www.w3.org/Graphics/SVG/1.1/DTD/svg11.dtd">
<!-- Creator: CorelDRAW X8 -->
<svg xmlns="http://www.w3.org/2000/svg" xml:space="preserve" width="51.8758mm" height="46.8834mm" version="1.1" style="shape-rendering:geometricPrecision; text-rendering:geometricPrecision; image-rendering:optimizeQuality; fill-rule:evenodd; clip-rule:evenodd"
viewBox="0 0 225314 203630"
 xmlns:xlink="http://www.w3.org/1999/xlink">
 <defs>
  <style type="text/css">
   <![CDATA[
    .fil1 {fill:#292929}
    .fil0 {fill:#292929;fill-rule:nonzero}
   ]]>
  </style>
 </defs>
 <g id="Слой_x0020_1">
  <metadata id="CorelCorpID_0Corel-Layer"/>
  <g id="_2536227230928">
   <path class="fil0" d="M128173 80720c-718,-695 -29567,-2230 -59611,-4055 -669,235 -1388,364 -2137,364 -260,0 -516,-16 -768,-46 -13485,-1159 -26174,-2148 -36914,-2983l-37 -3 -16 -2 -373 -29 -4506 -351 -58 -5 -2843 -222c-2365,-184 -4503,4397 -6091,10756 -1298,5198 -1948,11402 -1948,17671 0,6270 650,12473 1948,17672 1588,6358 3726,10939 6091,10754l2598 -203c184,-22 369,-36 557,-43l4616 -359 25 -2 483 -38c10708,-833 23315,-1817 36708,-2969 930,-76 1829,49 2656,339 30046,-1825 58902,-3360 59620,-4056l-1 -27 0 -42136 1 -27zm-38383 7497c7510,0 13599,6088 13599,13598 0,7510 -6089,13599 -13599,13599 -7510,0 -13598,-6089 -13598,-13599 0,-7510 6088,-13598 13598,-13598zm135524 -7470l0 42136c0,3555 -2881,6436 -6435,6436l-84271 0c-648,0 -1273,-96 -1862,-274 -12078,4249 -35747,7367 -59887,9738l1 58412c0,3554 -2881,6435 -6435,6435l-42137 0c-3554,0 -6435,-2881 -6435,-6435l0 -54362c-7734,-1559 -12833,-9549 -15502,-20230 -1567,-6274 -2351,-13564 -2351,-20788 0,-7224 784,-14515 2351,-20788 2668,-10681 7769,-18670 15502,-20229l0 -54362c0,-3555 2881,-6436 6435,-6436l42137 0c3554,0 6435,2881 6435,6436l0 58412c24141,2371 47808,5489 59886,9738 589,-179 1214,-275 1862,-275l84271 0c3554,0 6435,2882 6435,6436zm-12871 35701l0 -29266 -71400 0 0 29266 71400 0zm-152454 74311l0 -50722c-9129,760 -18370,1485 -26708,2136l-430 33 -429 34 -427 33 -349 27 -76 6 -424 33 -422 33 0 48387 29265 0zm-29265 -177888l0 48387 422 33 424 33 76 7 349 26 427 34 429 33 431 34 386 30 45 4c8225,641 17302,1355 26276,2102l0 -50723 -29265 0z"/>
   <circle class="fil1" cx="89790" cy="101815" r="5554"/>
  </g>
 </g>
</svg>
