<?xml version="1.0" encoding="UTF-8"?>
<!DOCTYPE svg PUBLIC "-//W3C//DTD SVG 1.1//EN" "http://www.w3.org/Graphics/SVG/1.1/DTD/svg11.dtd">
<!-- Creator: CorelDRAW X8 -->
<svg xmlns="http://www.w3.org/2000/svg" xml:space="preserve" width="63.3618mm" height="48.1901mm" version="1.1" style="shape-rendering:geometricPrecision; text-rendering:geometricPrecision; image-rendering:optimizeQuality; fill-rule:evenodd; clip-rule:evenodd"
viewBox="0 0 240337 182789"
 xmlns:xlink="http://www.w3.org/1999/xlink">
 <defs>
  <style type="text/css">
   <![CDATA[
    .fil0 {fill:#292929}
    .fil1 {fill:#292929;fill-rule:nonzero}
   ]]>
  </style>
 </defs>
 <g id="Слой_x0020_1">
  <metadata id="CorelCorpID_0Corel-Layer"/>
  <g id="_2536227251184">
   <path class="fil0" d="M181923 25072l-22273 11200 235 7760 1 0 -2928 1350 -2912 -6292 5604 -2818 9871 3316 11568 -5336 0 46616c-236,0 -476,45 -709,140l-34656 14338 -53765 -19983 4649 -2144 -1634 -605 -114 -3759 -9181 4617 0 98191 60083 11126 94575 -17524 -556 -106813 -57858 -33380zm-834 59676l0 64106 -33458 6793 0 -57057 33458 -13842zm-37159 71651l-54214 11006 -139 -88954 54316 20187 0 57388c0,128 13,252 37,373zm-38637 -87186l44197 -20386 -2774 -6049 -48104 24191 6681 2244z"/>
   <polygon class="fil0" points="85679,73472 146716,42778 139606,27275 149821,29959 154046,39090 181923,25072 97356,0 0,57858 59708,68739 56760,62313 65894,64713 68499,70341 "/>
   <path class="fil1" d="M169978 78254l12797 27216c436,932 33,2041 -898,2476 -931,435 -2040,32 -2475,-899l-12804 -27229 3380 -1564z"/>
   <path class="fil1" d="M140080 25473l10215 2683c560,147 994,535 1219,1022l21964 47459c431,935 22,2044 -913,2475l-7573 3504c-935,431 -2044,23 -2475,-912l-24605 -53655c-427,-934 -15,-2040 920,-2467 407,-186 846,-213 1248,-109zm8417 6067l-5556 -1460 22183 48366 4184 -1937 -20811 -44969z"/>
   <path class="fil1" d="M175291 43491l-13698 -4601 115 3826 13690 5065 -107 -4290zm-15049 -8986l17469 5868c723,243 1251,918 1270,1723l205 8214c26,269 -6,547 -105,818 -355,967 -1428,1464 -2396,1110l-17443 -6454c-693,-259 -1197,-917 -1218,-1701l-233 -7678c-17,-239 11,-484 92,-725 327,-975 1384,-1501 2359,-1175z"/>
   <path class="fil1" d="M83917 107894l11443 24335c389,833 29,1824 -803,2213 -833,390 -1824,30 -2213,-803l-11449 -24346 3022 -1399z"/>
   <path class="fil1" d="M57235 60510l9133 2399c561,147 994,535 1219,1023l19639 42433c430,935 22,2044 -913,2475l-6772 3134c-934,431 -2044,22 -2474,-913l-22000 -47975c-428,-934 -16,-2040 919,-2467 407,-186 846,-213 1249,-109zm7335 5783l-4475 -1176 19578 42686 3383 -1565 -18486 -39945z"/>
   <path class="fil1" d="M108555 72273l-11849 -3980 91 3005 11843 4382 -85 -3407zm-13199 -8364l15619 5246c723,243 1251,918 1270,1723l184 7331c26,269 -7,548 -106,818 -355,968 -1428,1464 -2395,1110l-15597 -5771c-694,-259 -1197,-917 -1219,-1701l-207 -6857c-17,-238 11,-483 92,-724 327,-975 1383,-1502 2359,-1175z"/>
  </g>
 </g>
</svg>
