<?xml version="1.0" encoding="UTF-8"?>
<!DOCTYPE svg PUBLIC "-//W3C//DTD SVG 1.1//EN" "http://www.w3.org/Graphics/SVG/1.1/DTD/svg11.dtd">
<!-- Creator: CorelDRAW X8 -->
<svg xmlns="http://www.w3.org/2000/svg" xml:space="preserve" width="93.8519mm" height="64.1631mm" version="1.1" style="shape-rendering:geometricPrecision; text-rendering:geometricPrecision; image-rendering:optimizeQuality; fill-rule:evenodd; clip-rule:evenodd"
viewBox="0 0 471353 322247"
 xmlns:xlink="http://www.w3.org/1999/xlink">
 <defs>
  <style type="text/css">
   <![CDATA[
    .fil0 {fill:#292929}
    .fil1 {fill:#292929;fill-rule:nonzero}
   ]]>
  </style>
 </defs>
 <g id="Слой_x0020_1">
  <metadata id="CorelCorpID_0Corel-Layer"/>
  <g id="_2536227255984">
   <path class="fil0" d="M208728 45736l166202 -44932c13207,-3571 24012,5102 24012,19274l0 196863c0,14171 -10805,28688 -24012,32259l-166202 44932c-13207,3571 -24012,-5103 -24012,-19275l0 -43863 32052 -6855 0 34316c0,11203 8540,18058 18980,15236l131376 -35518c10439,-2823 18979,-14296 18979,-25498l0 -155613c0,-11201 -8540,-18057 -18979,-15235l-131376 35518c-10440,2822 -18980,14296 -18980,25498l0 18317 -32052 7310 0 -50476c0,-14172 10805,-28687 24012,-32258z"/>
   <path class="fil1" d="M258167 117094l-106524 24294 0 91315 106524 -22784 0 -92825zm-112931 15006l116613 -26596c497,-156 1026,-240 1573,-240 2903,0 5257,2353 5257,5255l0 103642 -9 0c3,2427 -1690,4609 -4159,5132l-116704 24960c-452,127 -928,195 -1421,195 -2902,0 -5256,-2354 -5256,-5256l0 -101980 15 0c-3,-2399 1654,-4564 4091,-5112z"/>
   <path class="fil1" d="M257505 213593l679 -102582c-219,-1121 -565,-2691 -919,-4305 -2358,-10742 -5152,-23466 5081,-30990 7798,-5732 17452,-4099 29476,-2067 9766,1651 21342,3608 33945,1535 7181,-1181 14283,-5629 20099,-9272 3319,-2079 6276,-3932 8898,-5047 14527,-6180 21585,-2229 24819,5376 2981,7007 1352,16896 323,23148l-119 726c-1003,6137 -3046,10733 -5289,15783 -3665,8247 -7945,17880 -7945,39068 0,23922 4184,35183 8534,46894 1938,5216 3908,10517 5595,16880 3332,12568 -429,18183 -8929,20437 -5593,1482 -13152,758 -22108,-101 -3052,-292 -6294,-604 -10137,-867 -11768,-809 -25234,5309 -37196,10745 -10449,4747 -19868,9026 -27789,8653 -11445,-540 -18201,-8951 -17020,-33985l2 -29zm11154 -103054l-684 103575c-808,17117 2046,22786 7040,23021 5373,253 13723,-3540 22985,-7748 13086,-5947 27816,-12640 42207,-11650 3316,227 6975,579 10424,909 7932,760 14625,1402 18452,388 2060,-546 2791,-2590 1456,-7625 -1594,-6013 -3445,-10994 -5266,-15894 -4706,-12668 -9233,-24852 -9233,-50549 0,-23290 4790,-34069 8890,-43297 1942,-4372 3710,-8348 4509,-13238l120 -726c838,-5094 2164,-13150 375,-17358 -922,-2165 -3886,-2885 -11063,168 -2021,859 -4584,2465 -7461,4267 -6638,4158 -14741,9234 -23959,10750 -14331,2357 -26818,245 -37354,-1535 -9608,-1625 -17323,-2929 -21550,178 -4715,3467 -2710,12601 -1017,20313 348,1584 684,3110 1046,5087 54,314 84,635 83,964z"/>
   <path class="fil0" d="M332050 97609c22081,2045 87426,25926 113798,33752 -18355,-3876 -38617,18465 -45258,49902 -6178,29247 1612,56059 17508,62774l-1 4 -103297 -31110c-22754,-6192 -31646,-29396 -28648,-61765 2998,-32368 35156,-54551 45898,-53557z"/>
   <path class="fil1" d="M443412 141352c-6348,-1172 -13287,2389 -19408,9138 -6888,7596 -12569,19014 -15408,32449l-4 18c-2837,13448 -2260,26189 967,35918 2871,8657 7772,14722 14039,16205 218,31 430,76 638,133 6347,1173 13286,-2388 19407,-9136 6858,-7562 12519,-18912 15369,-32270l84 -394c2789,-13375 2203,-26042 -1008,-35722 -2871,-8658 -7773,-14724 -14041,-16206 -216,-32 -427,-75 -635,-133zm-27168 2117c8730,-9627 19289,-14492 29611,-12322l21 5c10350,2185 18057,10913 22150,23253 3784,11408 4513,26096 1290,41356l-1 8c-3229,15280 -9839,28427 -17912,37329 -8723,9619 -19275,14485 -29590,12325l-42 -9c-10349,-2186 -18056,-10913 -22151,-23253 -3783,-11408 -4512,-26095 -1290,-41355 3230,-15284 9838,-28434 17914,-37337z"/>
   <ellipse class="fil0" cx="280179" cy="98104" rx="7871" ry="10095"/>
   <ellipse class="fil0" cx="361968" cy="81678" rx="7871" ry="10095"/>
   <ellipse class="fil0" cx="280521" cy="219843" rx="7871" ry="10095"/>
   <path class="fil1" d="M417755 204698c-2060,718 -4313,-370 -5030,-2430 -718,-2060 370,-4312 2430,-5030l7170 -2505 3910 -10636c751,-2052 3025,-3105 5077,-2353 855,313 1536,891 1986,1607l6386 9304 1233 -3009c447,-1088 1324,-1869 2353,-2228l9551 -3338c2060,-718 4313,371 5031,2430 717,2061 -371,4313 -2431,5031l-7871 2749 -3263 7967c-272,760 -776,1444 -1493,1934 -1803,1231 -4264,766 -5495,-1037l-6277 -9145 -1910 5197 -7 -2c-393,1072 -1246,1965 -2408,2370l-8942 3124z"/>
   <path class="fil0" d="M69556 69779l44050 14287c0,79393 0,158787 0,238181 -15513,-5704 -31027,-11407 -46541,-17111 -273,-1947 -650,-3786 -1191,-5453l3682 -229904zm21713 24691c4724,0 8555,5669 8555,12662 0,6993 -3831,12662 -8555,12662 -4725,0 -8555,-5669 -8555,-12662 0,-6993 3830,-12662 8555,-12662zm0 178978c4724,0 8555,5669 8555,12662 0,6993 -3831,12661 -8555,12661 -4725,0 -8555,-5668 -8555,-12661 0,-6993 3830,-12662 8555,-12662zm-38348 17615c-929,65 -1915,191 -2967,384 -10038,1370 -22101,2735 -32139,4103 -12357,604 -17472,-9930 -17795,-28061 -228,-51332 1569,-102660 1341,-153992 1140,-15515 9583,-24185 25323,-26009 9310,-912 19771,-1826 29541,-2739l-3304 206314z"/>
  </g>
 </g>
</svg>
