<?xml version="1.0" encoding="UTF-8"?>
<!DOCTYPE svg PUBLIC "-//W3C//DTD SVG 1.1//EN" "http://www.w3.org/Graphics/SVG/1.1/DTD/svg11.dtd">
<!-- Creator: CorelDRAW X8 -->
<svg xmlns="http://www.w3.org/2000/svg" xml:space="preserve" width="7.7338mm" height="6.1338mm" version="1.1" style="shape-rendering:geometricPrecision; text-rendering:geometricPrecision; image-rendering:optimizeQuality; fill-rule:evenodd; clip-rule:evenodd"
viewBox="0 0 6664 5285"
 xmlns:xlink="http://www.w3.org/1999/xlink">
 <defs>
  <style type="text/css">
   <![CDATA[
    .fil0 {fill:#292929}
   ]]>
  </style>
 </defs>
 <g id="Слой_x0020_1">
  <metadata id="CorelCorpID_0Corel-Layer"/>
  <path class="fil0" d="M6664 3803l-1026 -114 877 -297 149 411zm-6664 570l5866 0 0 912 -5866 0 0 -912zm1363 -628l-114 -148 -296 354 -114 -217 159 -946 -68 -194 -456 183 -11 -262 695 -821 80 -160 -525 -114 149 -216 866 -251 160 -148 -365 -365 228 -114 923 205 228 0 -217 -531 240 0 877 714 137 45 34 -558 240 182 410 1003 57 137 319 -399 137 205 -182 1014 0 194 478 -228 23 274 -638 741 -46 125 502 80 -148 216 -810 342 -2918 0 -34 -342zm1596 -1504c183,0 331,148 331,330 0,183 -148,331 -331,331 -183,0 -330,-148 -330,-331 0,-182 147,-330 330,-330zm3408 353l-843 650 467 -798 376 148z"/>
 </g>
</svg>
