<?xml version="1.0" encoding="UTF-8"?>
<!DOCTYPE svg PUBLIC "-//W3C//DTD SVG 1.1//EN" "http://www.w3.org/Graphics/SVG/1.1/DTD/svg11.dtd">
<!-- Creator: CorelDRAW X8 -->
<svg xmlns="http://www.w3.org/2000/svg" xml:space="preserve" width="155.178mm" height="67.1335mm" version="1.1" style="shape-rendering:geometricPrecision; text-rendering:geometricPrecision; image-rendering:optimizeQuality; fill-rule:evenodd; clip-rule:evenodd"
viewBox="0 0 1177782 509537"
 xmlns:xlink="http://www.w3.org/1999/xlink">
 <defs>
  <style type="text/css">
   <![CDATA[
    .fil0 {fill:#292929}
    .fil1 {fill:#292929;fill-rule:nonzero}
   ]]>
  </style>
 </defs>
 <g id="Слой_x0020_1">
  <metadata id="CorelCorpID_0Corel-Layer"/>
  <g id="_2536227257552">
   <path class="fil0" d="M514949 86293l331160 -86293 0 60853 -238208 68783 -92952 -43343zm205981 -32636l24721 -7119 0 25990 -24721 7119 0 -25990zm-123785 32159l24721 -7119 0 25990 -24721 7118 0 -25989zm63706 -15598l24721 -7119 0 25990 -24721 7118 0 -25989z"/>
   <path class="fil0" d="M0 148399l281143 184419 0 176719 -281143 -184420 0 -176718zm41832 132614c-5167,-3421 -6584,-10384 -3163,-15551 3421,-5167 10384,-6583 15551,-3163l131200 87021c5167,3421 6583,10384 3163,15551 -3421,5167 -10384,6583 -15551,3163l-131200 -87021z"/>
   <path class="fil1" d="M273111 337146l-216028 -141707c-3709,-2425 -4748,-7399 -2322,-11108 1120,-1712 2783,-2855 4614,-3351l424498 -115303c2062,-559 4155,-262 5900,675l284719 132334c2931,1352 4658,4251 4660,7280l15 0 0 97730c0,3687 -2485,6795 -5873,7738l-489421 177851c-4159,1507 -8753,-642 -10261,-4801 -326,-902 -482,-1823 -481,-2730l-20 0 0 -144608zm-192319 -145347l204439 134104c2360,1399 3944,3972 3944,6915l0 137494 473928 -172219 0 -87021 -277832 -129133 -404479 109860z"/>
   <path class="fil1" d="M283685 377560c-4194,1404 -8732,-857 -10135,-5051 -1403,-4193 858,-8731 5051,-10134l489992 -164002c4193,-1404 8731,857 10135,5051 1403,4193 -858,8731 -5051,10135l-489992 164001z"/>
   <path class="fil1" d="M477943 73427c0,-4436 3597,-8032 8032,-8032 4436,0 8033,3596 8033,8032l0 78848 163901 85735c3915,2045 5433,6878 3389,10794 -2045,3915 -6878,5433 -10794,3389l-165310 -86472 -318813 97929c-4228,1300 -8710,-1075 -10009,-5303 -1300,-4227 1075,-8709 5303,-10008l316268 -97148 0 -77764z"/>
   <path class="fil0" d="M786860 242783l390922 -139232 0 64260 -390922 149943 0 -74971zm23927 17816l51059 -20505 0 27446 -51059 20504 0 -27445zm104090 -41502l26106 -9993 0 27445 -26106 9993 0 -27445zm67273 -22849l26106 -9993 0 27445 -26106 9993 0 -27445zm63443 -23503l26106 -9993 0 27445 -26106 9993 0 -27445z"/>
   <path class="fil0" d="M786860 298342l0 -41502 -224246 78988 0 43431 224246 -80917zm-203210 48708c-5227,1913 -4188,9567 1424,9978 686,33 1374,-54 2020,-290l19375 -6887c5227,-1913 4188,-9568 -1424,-9978 -686,-34 -1374,53 -2020,290l-19375 6887zm168129 -48854c5227,-1913 4188,-9567 -1424,-9978 -686,-33 -1373,53 -2020,290l-19375 6888c-5227,1913 -4188,9567 1424,9978 686,33 1374,-53 2020,-290l19375 -6888zm-48437 17219c5227,-1913 4188,-9567 -1424,-9978 -686,-33 -1374,54 -2020,290l-19375 6887c-5227,1913 -4188,9568 1424,9978 686,34 1374,-53 2020,-290l19375 -6887zm-48437 17218c5228,-1913 4189,-9567 -1423,-9978 -687,-33 -1374,53 -2021,290l-19375 6887c-5227,1913 -4188,9567 1424,9978 686,33 1374,-53 2021,-290l19374 -6887z"/>
   <polygon class="fil0" points="562614,369298 562614,345200 281143,445609 281143,470376 "/>
  </g>
 </g>
</svg>
