<?xml version="1.0" encoding="UTF-8"?>
<!DOCTYPE svg PUBLIC "-//W3C//DTD SVG 1.1//EN" "http://www.w3.org/Graphics/SVG/1.1/DTD/svg11.dtd">
<!-- Creator: CorelDRAW X8 -->
<svg xmlns="http://www.w3.org/2000/svg" xml:space="preserve" width="3.9997mm" height="5.3823mm" version="1.1" style="shape-rendering:geometricPrecision; text-rendering:geometricPrecision; image-rendering:optimizeQuality; fill-rule:evenodd; clip-rule:evenodd"
viewBox="0 0 2600 3498"
 xmlns:xlink="http://www.w3.org/1999/xlink">
 <defs>
  <style type="text/css">
   <![CDATA[
    .fil0 {fill:#292929}
   ]]>
  </style>
 </defs>
 <g id="Слой_x0020_1">
  <metadata id="CorelCorpID_0Corel-Layer"/>
  <path class="fil0" d="M2018 646l531 531c68,67 67,179 0,246l-1126 1126c-67,67 -179,67 -246,0l-1126 -1126c-68,-67 -68,-179 0,-246l531 -531 595 -595c67,-68 178,-68 246,0l595 595zm412 1310l119 119c68,68 67,179 0,247l-1126 1126c-67,67 -179,67 -246,0l-1126 -1126c-68,-68 -68,-179 0,-247l119 -119 1007 1007c67,67 178,68 246,0l1007 -1007z"/>
 </g>
</svg>
