<?xml version="1.0" encoding="UTF-8"?>
<!DOCTYPE svg PUBLIC "-//W3C//DTD SVG 1.1//EN" "http://www.w3.org/Graphics/SVG/1.1/DTD/svg11.dtd">
<!-- Creator: CorelDRAW X8 -->
<svg xmlns="http://www.w3.org/2000/svg" xml:space="preserve" width="8.2365mm" height="5.9313mm" version="1.1" style="shape-rendering:geometricPrecision; text-rendering:geometricPrecision; image-rendering:optimizeQuality; fill-rule:evenodd; clip-rule:evenodd"
viewBox="0 0 10690 7698"
 xmlns:xlink="http://www.w3.org/1999/xlink">
 <defs>
  <style type="text/css">
   <![CDATA[
    .fil0 {fill:#292929}
   ]]>
  </style>
 </defs>
 <g id="Слой_x0020_1">
  <metadata id="CorelCorpID_0Corel-Layer"/>
  <path class="fil0" d="M4273 175l3250 3250c234,233 234,615 0,848l-3250 3250c-233,234 -615,234 -848,0l-3250 -3250c-233,-233 -233,-615 0,-848l3250 -3250c233,-233 615,-233 848,0zm2162 3700l-199 198c-14,14 -37,14 -51,0l-198 -198c-14,-14 -14,-37 0,-51l198 -199c14,-14 37,-14 51,0l199 199c14,14 14,37 0,51zm-2487 -885l760 760c55,55 55,144 0,198l-760 760c-54,55 -143,55 -198,0l-760 -760c-54,-54 -54,-143 0,-198l760 -760c55,-54 144,-54 198,0zm-73 -1726l198 198c14,14 14,37 0,51l-198 199c-14,14 -37,14 -51,0l-199 -199c-14,-14 -14,-37 0,-51l199 -198c14,-14 37,-14 51,0zm0 4710l198 198c14,14 14,37 0,51l-198 198c-14,15 -37,15 -51,0l-199 -198c-14,-14 -14,-37 0,-51l199 -198c14,-15 37,-15 51,0zm0 -790l198 198c14,14 14,37 0,51l-198 198c-14,15 -37,15 -51,0l-199 -198c-14,-14 -14,-37 0,-51l199 -198c14,-15 37,-15 51,0zm0 -4710l198 198c14,14 14,37 0,52l-198 198c-14,14 -37,14 -51,0l-199 -198c-14,-15 -14,-38 0,-52l199 -198c14,-14 37,-14 51,0zm0 1593l198 198c14,14 14,37 0,52l-198 198c-14,14 -37,14 -51,0l-199 -198c-14,-15 -14,-38 0,-52l199 -198c14,-14 37,-14 51,0zm0 4710l198 198c14,14 14,37 0,51l-198 198c-14,15 -37,15 -51,0l-199 -198c-14,-14 -14,-37 0,-51l199 -198c14,-14 37,-14 51,0zm-2150 -2902l-198 198c-14,14 -38,14 -52,0l-198 -198c-14,-14 -14,-37 0,-51l198 -199c14,-14 38,-14 52,0l198 199c14,14 14,37 0,51zm790 0l-198 198c-15,14 -38,14 -52,0l-198 -198c-14,-14 -14,-37 0,-51l198 -199c14,-14 37,-14 52,0l198 199c14,14 14,37 0,51zm4710 0l-198 198c-15,14 -38,14 -52,0l-198 -198c-14,-14 -14,-37 0,-51l198 -199c14,-14 37,-14 52,0l198 199c14,14 14,37 0,51zm-1593 0l-199 198c-14,14 -37,14 -51,0l-198 -198c-14,-14 -14,-37 0,-51l198 -199c14,-14 37,-14 51,0l199 199c14,14 14,37 0,51zm-4710 0l-198 198c-15,14 -38,14 -52,0l-198 -198c-14,-14 -14,-37 0,-51l198 -199c14,-14 37,-14 52,0l198 199c14,14 14,37 0,51z"/>
  <path class="fil0" d="M7265 175l3250 3250c234,233 233,615 0,848l-3250 3250c-233,234 -615,234 -848,0l-625 -625 2625 -2625c233,-233 233,-615 0,-848l-2625 -2625 625 -625c233,-233 615,-233 848,0z"/>
 </g>
</svg>
