<?xml version="1.0" encoding="UTF-8"?>
<!DOCTYPE svg PUBLIC "-//W3C//DTD SVG 1.1//EN" "http://www.w3.org/Graphics/SVG/1.1/DTD/svg11.dtd">
<!-- Creator: CorelDRAW X8 -->
<svg xmlns="http://www.w3.org/2000/svg" xml:space="preserve" width="3.9999mm" height="6.2663mm" version="1.1" style="shape-rendering:geometricPrecision; text-rendering:geometricPrecision; image-rendering:optimizeQuality; fill-rule:evenodd; clip-rule:evenodd"
viewBox="0 0 2420 3791"
 xmlns:xlink="http://www.w3.org/1999/xlink">
 <defs>
  <style type="text/css">
   <![CDATA[
    .fil0 {fill:#292929}
   ]]>
  </style>
 </defs>
 <g id="Слой_x0020_1">
  <metadata id="CorelCorpID_0Corel-Layer"/>
  <path class="fil0" d="M2373 1598l-1048 1048c-63,63 -167,63 -230,0l-1048 -1048c-36,-37 -52,-87 -46,-135l0 -133c5,35 20,68 46,94l1048 1048c63,63 167,63 230,0l1048 -1048c29,-29 44,-66 47,-105l0 154c0,7 0,13 0,20l0 0c-3,38 -18,76 -47,105zm0 -273l-1048 1048c-63,63 -167,63 -230,0l-1048 -1048c-63,-63 -63,-167 0,-230l1048 -1048c63,-63 167,-63 230,0l1048 1048c63,63 63,167 0,230z"/>
  <path class="fil0" d="M2373 2696l-1048 1048c-63,63 -167,63 -230,0l-1048 -1048c-36,-37 -52,-87 -46,-135l0 -133c5,35 20,68 46,94l1048 1048c63,63 167,63 230,0l1048 -1048c29,-29 44,-66 47,-105l0 154c0,7 0,13 0,20l0 0c-3,38 -18,76 -47,105zm0 -273l-1048 1048c-63,63 -167,63 -230,0l-1048 -1048c-63,-63 -63,-166 0,-230l228 -227 820 820c63,63 167,63 230,0l820 -820 228 227c63,64 63,167 0,230z"/>
 </g>
</svg>
