<?xml version="1.0" encoding="UTF-8"?>
<!DOCTYPE svg PUBLIC "-//W3C//DTD SVG 1.1//EN" "http://www.w3.org/Graphics/SVG/1.1/DTD/svg11.dtd">
<!-- Creator: CorelDRAW X8 -->
<svg xmlns="http://www.w3.org/2000/svg" xml:space="preserve" width="8.4402mm" height="6.0426mm" version="1.1" style="shape-rendering:geometricPrecision; text-rendering:geometricPrecision; image-rendering:optimizeQuality; fill-rule:evenodd; clip-rule:evenodd"
viewBox="0 0 10441 7475"
 xmlns:xlink="http://www.w3.org/1999/xlink">
 <defs>
  <style type="text/css">
   <![CDATA[
    .fil0 {fill:#292929}
   ]]>
  </style>
 </defs>
 <g id="Слой_x0020_1">
  <metadata id="CorelCorpID_0Corel-Layer"/>
  <g id="_2536227255632">
   <path class="fil0" d="M9198 2062l32 0 0 246c0,1138 -2066,2062 -4615,2062 -2549,0 -4615,-924 -4615,-2062l0 -246 33 0c-22,81 -33,163 -33,246l0 638c0,1139 2066,2062 4615,2062 2549,0 4615,-923 4615,-2062l0 -638c0,-83 -11,-165 -32,-246z"/>
   <path class="fil0" d="M4615 0c2549,0 4615,923 4615,2062 0,1139 -2066,2062 -4615,2062 -2549,0 -4615,-923 -4615,-2062 0,-1139 2066,-2062 4615,-2062zm0 1550c633,0 1146,229 1146,512 0,283 -513,512 -1146,512 -633,0 -1146,-229 -1146,-512 0,-283 513,-512 1146,-512z"/>
   <path class="fil0" d="M10409 3437l32 0 0 299c0,2508 -4525,3362 -7709,2791l0 778c3184,572 7709,-282 7709,-2790l0 -779c0,-101 -11,-201 -32,-299z"/>
   <path class="fil0" d="M10409 4315l32 0 0 -241c0,-605 -404,-1090 -1056,-1461l0 -628c652,371 1056,856 1056,1460l0 629c0,81 -11,162 -32,241z"/>
  </g>
 </g>
</svg>
