<?xml version="1.0" encoding="UTF-8"?>
<!DOCTYPE svg PUBLIC "-//W3C//DTD SVG 1.1//EN" "http://www.w3.org/Graphics/SVG/1.1/DTD/svg11.dtd">
<!-- Creator: CorelDRAW X8 -->
<svg xmlns="http://www.w3.org/2000/svg" xml:space="preserve" width="7.511mm" height="5.333mm" version="1.1" style="shape-rendering:geometricPrecision; text-rendering:geometricPrecision; image-rendering:optimizeQuality; fill-rule:evenodd; clip-rule:evenodd"
viewBox="0 0 7985 5670"
 xmlns:xlink="http://www.w3.org/1999/xlink">
 <defs>
  <style type="text/css">
   <![CDATA[
    .fil0 {fill:#292929}
   ]]>
  </style>
 </defs>
 <g id="Слой_x0020_1">
  <metadata id="CorelCorpID_0Corel-Layer"/>
  <path class="fil0" d="M7806 1178l158 345 2 5c44,95 13,198 -91,264l-5928 3815c-147,94 -394,82 -539,-35l-1050 -849c-98,-80 -139,-266 -208,-399 13,14 27,27 44,40l1031 783c149,113 391,128 539,35l5946 -3749c101,-64 133,-163 96,-255z"/>
  <path class="fil0" d="M110 3810l5947 -3750c148,-93 390,-76 539,36l1031 783c148,113 149,282 1,375l-5946 3749c-148,93 -390,78 -539,-35l-1031 -783c-149,-113 -149,-282 -2,-375z"/>
 </g>
</svg>
