<?xml version="1.0" encoding="UTF-8"?>
<!DOCTYPE svg PUBLIC "-//W3C//DTD SVG 1.1//EN" "http://www.w3.org/Graphics/SVG/1.1/DTD/svg11.dtd">
<!-- Creator: CorelDRAW X8 -->
<svg xmlns="http://www.w3.org/2000/svg" xml:space="preserve" width="4mm" height="6.7266mm" version="1.1" style="shape-rendering:geometricPrecision; text-rendering:geometricPrecision; image-rendering:optimizeQuality; fill-rule:evenodd; clip-rule:evenodd"
viewBox="0 0 2074 3488"
 xmlns:xlink="http://www.w3.org/1999/xlink">
 <defs>
  <style type="text/css">
   <![CDATA[
    .fil0 {fill:#292929}
   ]]>
  </style>
 </defs>
 <g id="Слой_x0020_1">
  <metadata id="CorelCorpID_0Corel-Layer"/>
  <rect class="fil0" transform="matrix(0.374052 0.374052 -0.374052 0.374052 1036.95 -57.7502)" width="2926" height="2926" rx="263" ry="263"/>
  <path class="fil0" d="M2005 1261l28 28c54,54 54,142 0,196l-898 898c-54,54 -142,54 -196,0l-898 -898c-54,-54 -55,-142 0,-196l27 -28 871 870c54,54 142,54 196,0l870 -870z"/>
  <path class="fil0" d="M2005 1616l28 27c54,55 54,143 0,197l-898 898c-54,54 -142,54 -196,0l-898 -898c-54,-54 -55,-142 0,-197l27 -27 871 870c54,54 142,54 196,0l870 -870z"/>
  <path class="fil0" d="M2005 1970l28 27c54,55 54,143 0,197l-898 898c-54,54 -142,54 -196,0l-898 -898c-54,-54 -55,-142 0,-197l27 -27 871 870c54,54 142,54 196,0l870 -870z"/>
  <path class="fil0" d="M2005 2324l28 28c54,54 54,143 0,197l-898 898c-54,54 -142,54 -196,0l-898 -898c-54,-54 -55,-143 0,-197l27 -28 871 871c54,54 142,54 196,0l870 -871z"/>
 </g>
</svg>
