<?xml version="1.0" encoding="UTF-8"?>
<!DOCTYPE svg PUBLIC "-//W3C//DTD SVG 1.1//EN" "http://www.w3.org/Graphics/SVG/1.1/DTD/svg11.dtd">
<!-- Creator: CorelDRAW X8 -->
<svg xmlns="http://www.w3.org/2000/svg" xml:space="preserve" width="5.6126mm" height="6.0453mm" version="1.1" style="shape-rendering:geometricPrecision; text-rendering:geometricPrecision; image-rendering:optimizeQuality; fill-rule:evenodd; clip-rule:evenodd"
viewBox="0 0 3853 4150"
 xmlns:xlink="http://www.w3.org/1999/xlink">
 <defs>
  <style type="text/css">
   <![CDATA[
    .fil0 {fill:#292929}
   ]]>
  </style>
 </defs>
 <g id="Слой_x0020_1">
  <metadata id="CorelCorpID_0Corel-Layer"/>
  <path class="fil0" d="M1383 1431l1326 1325c-139,71 -254,182 -330,317l-1322 -1322c138,-72 252,-184 326,-320zm1757 1761l98 98 98 98 -36 134 -36 134 -134 36 -134 36 -98 -98 -98 -98 36 -134 36 -135 134 -36 134 -35zm-975 -2499l-378 -88 607 -605 202 341 202 -17 818 826 237 1248 -185 132 -527 -1046 -334 -343 -528 -237 -114 -211zm819 863l-680 681 -243 -243 679 -678 244 240zm-1112 1113l-1022 1021c-67,67 -176,67 -242,0l0 0c-67,-66 -67,-175 0,-242l1021 -1022 243 243zm-1182 -2308c381,0 690,309 690,690 0,381 -309,690 -690,690 -381,0 -690,-309 -690,-690 0,-64 9,-126 25,-185l348 339 462 -9 13 -426 -372 -375c67,-22 139,-34 214,-34zm2378 2409c381,0 690,309 690,690 0,381 -309,690 -690,690 -381,0 -690,-309 -690,-690 0,-381 309,-690 690,-690zm118 248l162 162 161 161 -59 221 -59 221 -221 59 -220 59 -162 -161 -162 -162 60 -221 59 -220 220 -60 221 -59z"/>
 </g>
</svg>
