<?xml version="1.0" encoding="UTF-8"?>
<!DOCTYPE svg PUBLIC "-//W3C//DTD SVG 1.1//EN" "http://www.w3.org/Graphics/SVG/1.1/DTD/svg11.dtd">
<!-- Creator: CorelDRAW X8 -->
<svg xmlns="http://www.w3.org/2000/svg" xml:space="preserve" width="15.1432mm" height="13.7182mm" version="1.1" style="shape-rendering:geometricPrecision; text-rendering:geometricPrecision; image-rendering:optimizeQuality; fill-rule:evenodd; clip-rule:evenodd"
viewBox="0 0 8650 7836"
 xmlns:xlink="http://www.w3.org/1999/xlink">
 <defs>
  <style type="text/css">
   <![CDATA[
    .fil0 {fill:#2B2A29}
   ]]>
  </style>
 </defs>
 <g id="Слой_x0020_1">
  <metadata id="CorelCorpID_0Corel-Layer"/>
  <path class="fil0" d="M328 2953c84,0 152,67 152,151 0,83 -68,151 -152,151 -83,0 -151,-68 -151,-151 0,-84 68,-151 151,-151zm-99 -2953l1169 0 0 5931 -1169 0c-126,0 -229,-103 -229,-229l0 -5473c0,-126 103,-229 229,-229zm1449 0l1014 0 0 3412 -1014 0 0 -3412zm1294 0l804 0c126,0 229,103 229,229l0 3183 -1033 0 0 -3412zm1033 3692l0 558 -2327 0 0 -558 2327 0zm-1633 1395l-694 0 0 -557 706 0c-49,81 -77,176 -77,277 0,98 26,190 72,270l-7 10zm1632 635c-10,117 -109,209 -228,209l-99 0 0 -209 327 0zm-1402 209l-924 0 0 -564 632 0c23,161 139,293 292,338l0 226zm722 -2978c84,0 151,67 151,151 0,83 -67,151 -151,151 -83,0 -151,-68 -151,-151 0,-84 68,-151 151,-151zm-982 0c83,0 151,67 151,151 0,83 -68,151 -151,151 -84,0 -151,-68 -151,-151 0,-84 67,-151 151,-151z"/>
  <path class="fil0" d="M2844 4555l5554 0c138,0 252,113 252,252l0 0c0,139 -114,252 -252,252l-52 0 0 125 178 0c69,0 126,57 126,126l0 0c0,70 -57,126 -126,126l-178 0 0 2148c0,138 -114,252 -252,252l0 0c-139,0 -252,-114 -252,-252l0 -2148 -4450 0 0 2148c0,138 -114,252 -252,252l0 0c-139,0 -252,-114 -252,-252l0 -2148 -170 0c-69,0 -126,-56 -126,-126l0 0c0,-69 57,-126 126,-126l170 0 0 -125 -44 0c-139,0 -252,-113 -252,-252l0 0c0,-139 113,-252 252,-252zm4998 504l-4450 0 0 125 4450 0 0 -125z"/>
 </g>
</svg>
