<?xml version="1.0" encoding="UTF-8"?>
<!DOCTYPE svg PUBLIC "-//W3C//DTD SVG 1.1//EN" "http://www.w3.org/Graphics/SVG/1.1/DTD/svg11.dtd">
<!-- Creator: CorelDRAW X8 -->
<svg xmlns="http://www.w3.org/2000/svg" xml:space="preserve" width="8.0168mm" height="6.1378mm" version="1.1" style="shape-rendering:geometricPrecision; text-rendering:geometricPrecision; image-rendering:optimizeQuality; fill-rule:evenodd; clip-rule:evenodd"
viewBox="0 0 7268 5564"
 xmlns:xlink="http://www.w3.org/1999/xlink">
 <defs>
  <style type="text/css">
   <![CDATA[
    .fil0 {fill:#292929}
   ]]>
  </style>
 </defs>
 <g id="Слой_x0020_1">
  <metadata id="CorelCorpID_0Corel-Layer"/>
  <path class="fil0" d="M2300 694l130 -694 352 0 352 0 130 694c235,54 455,147 654,271l582 -399 249 249 249 249 -399 582c125,199 217,419 271,655l694 129 0 352 0 352 -694 130c-54,235 -146,455 -271,654l399 582 -249 249 -249 249 -582 -399c-199,125 -419,217 -654,271l-130 694 -352 0 -352 0 -130 -694c-235,-54 -455,-146 -654,-271l-582 399 -249 -249 -249 -249 399 -582c-124,-199 -217,-419 -271,-654l-694 -130 0 -352 0 -352 694 -129c54,-236 147,-456 271,-655l-399 -582 249 -249 249 -249 582 399c199,-124 419,-217 654,-271zm482 1249c463,0 839,376 839,839 0,464 -376,839 -839,839 -463,0 -839,-375 -839,-839 0,-463 376,-839 839,-839z"/>
  <path class="fil0" d="M6088 526l47 -251 127 0 128 0 46 251c85,20 165,53 237,98l210 -144 90 90 90 90 -144 210c45,72 78,152 98,237l251 47 0 127 0 127 -251 47c-20,85 -53,164 -98,236l144 211 -90 90 -90 90 -210 -145c-72,45 -152,79 -237,98l-46 251 -128 0 -127 0 -47 -251c-85,-19 -164,-53 -236,-98l-211 145 -90 -90 -90 -90 145 -211c-45,-72 -79,-151 -98,-236l-251 -47 0 -127 0 -127 251 -47c19,-85 53,-165 98,-237l-145 -210 90 -90 90 -90 211 144c72,-45 151,-78 236,-98zm174 452c168,0 303,135 303,303 0,167 -135,303 -303,303 -167,0 -303,-136 -303,-303 0,-168 136,-303 303,-303z"/>
 </g>
</svg>
