<?xml version="1.0" encoding="UTF-8"?>
<!DOCTYPE svg PUBLIC "-//W3C//DTD SVG 1.1//EN" "http://www.w3.org/Graphics/SVG/1.1/DTD/svg11.dtd">
<!-- Creator: CorelDRAW X8 -->
<svg xmlns="http://www.w3.org/2000/svg" xml:space="preserve" width="6.0717mm" height="6.0717mm" version="1.1" style="shape-rendering:geometricPrecision; text-rendering:geometricPrecision; image-rendering:optimizeQuality; fill-rule:evenodd; clip-rule:evenodd"
viewBox="0 0 4075 4075"
 xmlns:xlink="http://www.w3.org/1999/xlink">
 <defs>
  <style type="text/css">
   <![CDATA[
    .fil0 {fill:#292929}
   ]]>
  </style>
 </defs>
 <g id="Слой_x0020_1">
  <metadata id="CorelCorpID_0Corel-Layer"/>
  <path class="fil0" d="M3891 628c21,154 -28,317 -147,435 -125,126 -299,173 -461,143l-288 289 81 170c19,41 2,91 -40,111l0 0c-42,20 -92,2 -111,-40l-56 -116 -165 165 81 170c19,42 2,92 -40,112l0 0c-41,19 -91,2 -111,-40l-56 -116 0 0 -267 -561 0 0 -81 -170c-19,-41 -2,-92 40,-111l0 0c42,-20 92,-2 111,39l56 116 165 -165 -81 -170c-19,-41 -2,-91 40,-111l0 0c41,-20 91,-2 111,39l55 117 142 -142c-30,-162 18,-335 143,-461 119,-118 281,-167 436,-146l93 -94c122,-121 321,-121 443,0l0 0c122,122 122,322 0,443l-93 94zm-3083 2880c57,149 26,325 -95,445 -163,163 -427,163 -591,0 -163,-163 -163,-428 0,-591 121,-120 296,-152 445,-95l-5 -5 105 -105 -181 -181c-37,-37 -37,-98 0,-135l0 0c37,-37 98,-37 135,0 -37,-37 -37,-98 0,-135l0 0c37,-37 98,-37 136,0l181 181 100 -101 -181 -180c-37,-38 -37,-99 0,-136l0 0c37,-37 98,-37 135,0l181 181 251 251 190 190c37,37 37,98 0,135l0 0c-37,37 -98,37 -135,0l-190 -190 -100 101 189 189c37,38 37,99 0,136l0 0c-37,37 -98,37 -135,0 37,37 37,98 0,135l0 0c-37,37 -98,37 -135,0l-190 -190 -105 105 -5 -5zm-227 -14c90,90 90,236 0,326 -90,90 -236,90 -326,0 -90,-90 -90,-236 0,-326 90,-89 236,-90 326,0zm1834 -1420l-121 122 0 0c64,247 -249,543 -471,827 -128,-129 -257,-257 -385,-385 -129,-129 -257,-257 -386,-385 284,-223 580,-535 828,-472l268 -268 267 561zm-476 62l0 0c40,40 40,106 0,146l-140 140c-40,40 -106,40 -146,0l0 0c-40,-40 -40,-105 0,-145l141 -141c40,-40 105,-40 145,0zm1670 -1669c127,127 127,334 0,461 -128,127 -334,127 -462,0 -127,-127 -127,-334 0,-461 128,-128 334,-128 462,0z"/>
 </g>
</svg>
