<?xml version="1.0" encoding="UTF-8"?>
<!DOCTYPE svg PUBLIC "-//W3C//DTD SVG 1.1//EN" "http://www.w3.org/Graphics/SVG/1.1/DTD/svg11.dtd">
<!-- Creator: CorelDRAW X8 -->
<svg xmlns="http://www.w3.org/2000/svg" xml:space="preserve" width="7.3377mm" height="6.0483mm" version="1.1" style="shape-rendering:geometricPrecision; text-rendering:geometricPrecision; image-rendering:optimizeQuality; fill-rule:evenodd; clip-rule:evenodd"
viewBox="0 0 5861 4831"
 xmlns:xlink="http://www.w3.org/1999/xlink">
 <defs>
  <style type="text/css">
   <![CDATA[
    .fil0 {fill:#292929}
   ]]>
  </style>
 </defs>
 <g id="Слой_x0020_1">
  <metadata id="CorelCorpID_0Corel-Layer"/>
  <path class="fil0" d="M2120 2634c164,184 233,546 255,998 -348,1913 -2115,457 -1893,-780 -3,-9 70,-422 -294,-309 -473,148 -38,2014 1125,2256 749,155 917,-301 1199,-284l0 0c119,165 261,228 418,225 158,3 300,-60 418,-225l0 0c283,-17 451,439 1200,284 1163,-242 1597,-2108 1125,-2256 -364,-113 -291,300 -294,309 222,1237 -1545,2693 -1893,780 22,-452 91,-814 255,-998 -607,-836 -496,-1646 -496,-2634l-646 0c0,1001 132,1793 -479,2634zm810 867c115,0 208,92 208,207 0,115 -93,208 -208,208 -114,0 -207,-93 -207,-208 0,-115 93,-207 207,-207zm0 -1209c115,0 208,93 208,208 0,114 -93,207 -208,207 -114,0 -207,-93 -207,-207 0,-115 93,-208 207,-208z"/>
 </g>
</svg>
