<?xml version="1.0" encoding="UTF-8"?>
<!DOCTYPE svg PUBLIC "-//W3C//DTD SVG 1.1//EN" "http://www.w3.org/Graphics/SVG/1.1/DTD/svg11.dtd">
<!-- Creator: CorelDRAW X8 -->
<svg xmlns="http://www.w3.org/2000/svg" xml:space="preserve" width="7.5691mm" height="6.0152mm" version="1.1" style="shape-rendering:geometricPrecision; text-rendering:geometricPrecision; image-rendering:optimizeQuality; fill-rule:evenodd; clip-rule:evenodd"
viewBox="0 0 4723 3753"
 xmlns:xlink="http://www.w3.org/1999/xlink">
 <defs>
  <style type="text/css">
   <![CDATA[
    .fil0 {fill:#292929}
   ]]>
  </style>
 </defs>
 <g id="Слой_x0020_1">
  <metadata id="CorelCorpID_0Corel-Layer"/>
  <path class="fil0" d="M4332 0l196 0c107,0 195,88 195,195l0 3491c0,37 -30,67 -68,67l-323 0 -1707 0 -781 0 -103 0c-102,0 -185,-83 -185,-185l0 -3033c0,-294 240,-535 534,-535l535 0 0 3095 1707 0 0 -3095zm-3470 895c0,-77 62,-139 138,-139 76,0 138,62 138,139l0 210 219 0 0 1893 -219 0 0 210c0,77 -62,139 -138,139 -76,0 -138,-62 -138,-139l0 -210 -156 0 0 210c0,77 -62,139 -138,139 -76,0 -138,-62 -138,-139l0 -210 -153 0 0 210c0,77 -62,139 -138,139 -77,0 -138,-62 -138,-139l0 -210 -1 0 0 -1893 1 0 0 -210c0,-77 61,-139 138,-139 76,0 138,62 138,139l0 210 153 0 0 -210c0,-77 62,-139 138,-139 76,0 138,62 138,139l0 210 156 0 0 -210z"/>
 </g>
</svg>
