<?xml version="1.0" encoding="UTF-8"?>
<!DOCTYPE svg PUBLIC "-//W3C//DTD SVG 1.1//EN" "http://www.w3.org/Graphics/SVG/1.1/DTD/svg11.dtd">
<!-- Creator: CorelDRAW X8 -->
<svg xmlns="http://www.w3.org/2000/svg" xml:space="preserve" width="5.8539mm" height="6.1338mm" version="1.1" style="shape-rendering:geometricPrecision; text-rendering:geometricPrecision; image-rendering:optimizeQuality; fill-rule:evenodd; clip-rule:evenodd"
viewBox="0 0 2999 3143"
 xmlns:xlink="http://www.w3.org/1999/xlink">
 <defs>
  <style type="text/css">
   <![CDATA[
    .fil0 {fill:#292929}
   ]]>
  </style>
 </defs>
 <g id="Слой_x0020_1">
  <metadata id="CorelCorpID_0Corel-Layer"/>
  <rect class="fil0" x="331" y="2705" width="746" height="438" rx="63" ry="53"/>
  <path class="fil0" d="M704 2623l-373 0 -280 -2507 -51 0 0 -116 38 0 666 0 667 0 37 0 0 116 -50 0 -281 2507 -373 0zm-305 -1815l610 0 0 520 -610 0 0 -520z"/>
  <path class="fil0" d="M1736 0l124 0c43,0 79,36 79,79l0 1041 -282 0 0 -1041c0,-43 35,-79 79,-79zm203 1204l0 1860c0,43 -36,79 -79,79l-124 0c-44,0 -79,-36 -79,-79l0 -1860 282 0z"/>
  <path class="fil0" d="M2514 1993l373 0c62,0 112,50 112,112l0 925c0,62 -50,113 -112,113l-373 0c-63,0 -113,-51 -113,-113l0 -925c0,-62 50,-112 113,-112zm-24 496l420 0 0 195 -420 0 0 -195z"/>
  <polygon class="fil0" points="2576,1907 2700,1907 2824,1907 2794,1060 2700,1060 2606,1060 "/>
 </g>
</svg>
