<?xml version="1.0" encoding="UTF-8"?>
<!DOCTYPE svg PUBLIC "-//W3C//DTD SVG 1.1//EN" "http://www.w3.org/Graphics/SVG/1.1/DTD/svg11.dtd">
<!-- Creator: CorelDRAW X8 -->
<svg xmlns="http://www.w3.org/2000/svg" xml:space="preserve" width="5.1526mm" height="6.1338mm" version="1.1" style="shape-rendering:geometricPrecision; text-rendering:geometricPrecision; image-rendering:optimizeQuality; fill-rule:evenodd; clip-rule:evenodd"
viewBox="0 0 2219 2642"
 xmlns:xlink="http://www.w3.org/1999/xlink">
 <defs>
  <style type="text/css">
   <![CDATA[
    .fil0 {fill:#292929}
   ]]>
  </style>
 </defs>
 <g id="Слой_x0020_1">
  <metadata id="CorelCorpID_0Corel-Layer"/>
  <path class="fil0" d="M548 1855l293 0 0 -775c-170,-37 -297,-188 -297,-368l0 -28 -398 0c-80,0 -146,-66 -146,-146l0 -392c0,-80 66,-146 146,-146l773 0 381 0 774 0c80,0 145,66 145,146l0 392c0,80 -65,146 -145,146l-398 0 0 28c0,180 -128,331 -297,368l0 775 293 0c54,0 99,45 99,99l0 267c0,55 -45,99 -99,99l-293 0 0 232c0,50 -41,90 -90,90l-359 0c-49,0 -89,-40 -89,-90l0 -232 -293 0c-55,0 -99,-44 -99,-99l0 -267c0,-54 44,-99 99,-99zm586 57c7,-7 18,-7 25,0 8,7 8,19 0,26l-24 24 24 24c8,7 8,19 0,26 -7,7 -18,7 -25,0l-24 -24 -24 24c-8,7 -19,7 -26,0 -7,-7 -7,-19 0,-26l24 -24 -24 -24c-7,-7 -7,-19 0,-26 7,-7 18,-7 26,0l24 24 24 -24zm0 412c7,-7 18,-7 25,0 8,7 8,18 0,25l-24 24 24 24c8,8 8,19 0,26 -7,7 -18,7 -25,0l-24 -24 -24 24c-8,7 -19,7 -26,0 -7,-7 -7,-18 0,-26l24 -24 -24 -24c-7,-7 -7,-18 0,-25 7,-7 18,-7 26,0l24 24 24 -24zm0 -864c7,-7 18,-7 25,0 8,7 8,18 0,26l-24 24 24 24c8,7 8,18 0,25 -7,7 -18,7 -25,0l-24 -24 -24 24c-8,7 -19,7 -26,0 -7,-7 -7,-18 0,-25l24 -24 -24 -24c-7,-8 -7,-19 0,-26 7,-7 18,-7 26,0l24 24 24 -24zm836 -1102c7,-7 18,-7 26,0 7,7 7,19 0,26l-25 24 25 24c7,7 7,18 0,25 -8,8 -19,8 -26,0l-24 -24 -24 24c-7,8 -19,8 -26,0 -7,-7 -7,-18 0,-25l24 -24 -24 -24c-7,-7 -7,-19 0,-26 7,-7 19,-7 26,0l24 24 24 -24zm-1673 0c7,-7 19,-7 26,0 7,7 7,19 0,26l-24 24 24 24c7,7 7,18 0,25 -7,8 -19,8 -26,0l-24 -24 -24 24c-7,8 -18,8 -25,0 -8,-7 -8,-18 0,-25l24 -24 -24 -24c-8,-7 -8,-19 0,-26 7,-7 18,-7 25,0l24 24 24 -24zm1646 -59c60,0 109,49 109,109 0,61 -49,110 -109,110 -61,0 -110,-49 -110,-110 0,-60 49,-109 110,-109zm-833 1960c60,0 109,49 109,110 0,60 -49,109 -109,109 -61,0 -110,-49 -110,-109 0,-61 49,-110 110,-110zm-102 -404l203 0 0 203 -203 0 0 -203zm102 -460c60,0 109,49 109,109 0,61 -49,110 -109,110 -61,0 -110,-49 -110,-110 0,-60 49,-109 110,-109zm-497 654l59 0 0 77 -59 0 0 -77zm929 0l59 0 0 77 -59 0 0 -77zm-1268 -1750c61,0 110,49 110,109 0,61 -49,110 -110,110 -60,0 -109,-49 -109,-110 0,-60 49,-109 109,-109zm733 -48l205 0c112,0 203,91 203,202l0 182c0,111 -91,202 -203,202l-205 0c-111,0 -203,-91 -203,-202l0 -182c0,-111 92,-202 203,-202z"/>
 </g>
</svg>
