<?xml version="1.0" encoding="UTF-8"?>
<!DOCTYPE svg PUBLIC "-//W3C//DTD SVG 1.1//EN" "http://www.w3.org/Graphics/SVG/1.1/DTD/svg11.dtd">
<!-- Creator: CorelDRAW X8 -->
<svg xmlns="http://www.w3.org/2000/svg" xml:space="preserve" width="5.24mm" height="5.9174mm" version="1.1" style="shape-rendering:geometricPrecision; text-rendering:geometricPrecision; image-rendering:optimizeQuality; fill-rule:evenodd; clip-rule:evenodd"
viewBox="0 0 2630 2970"
 xmlns:xlink="http://www.w3.org/1999/xlink">
 <defs>
  <style type="text/css">
   <![CDATA[
    .fil0 {fill:#292929}
   ]]>
  </style>
 </defs>
 <g id="Слой_x0020_1">
  <metadata id="CorelCorpID_0Corel-Layer"/>
  <path class="fil0" d="M930 2854l-812 -603 1508 -812c290,180 579,333 868,518 130,86 215,208 27,326l-932 564c-287,186 -488,139 -659,7zm-319 -1972c0,123 -65,222 -145,222 -80,0 -145,-99 -145,-222 0,-123 65,-223 145,-223 80,0 145,100 145,223zm698 -369c0,122 -65,222 -145,222 -80,0 -145,-100 -145,-222 0,-123 65,-223 145,-223 80,0 145,100 145,223zm26 1869c123,0 222,65 222,145 0,80 -99,145 -222,145 -123,0 -222,-65 -222,-145 0,-80 99,-145 222,-145zm699 -397c122,0 222,65 222,145 0,80 -100,145 -222,145 -123,0 -223,-65 -223,-145 0,-80 100,-145 223,-145zm-2032 87l0 -1099c-15,-192 78,-337 254,-445 330,-179 661,-324 992,-504 182,-59 292,-14 294,191l0 1028 -1540 829z"/>
 </g>
</svg>
