<?xml version="1.0" encoding="UTF-8"?>
<!DOCTYPE svg PUBLIC "-//W3C//DTD SVG 1.1//EN" "http://www.w3.org/Graphics/SVG/1.1/DTD/svg11.dtd">
<!-- Creator: CorelDRAW X8 -->
<svg xmlns="http://www.w3.org/2000/svg" xml:space="preserve" width="7.2415mm" height="6.1334mm" version="1.1" style="shape-rendering:geometricPrecision; text-rendering:geometricPrecision; image-rendering:optimizeQuality; fill-rule:evenodd; clip-rule:evenodd"
viewBox="0 0 4936 4180"
 xmlns:xlink="http://www.w3.org/1999/xlink">
 <defs>
  <style type="text/css">
   <![CDATA[
    .fil0 {fill:#292929}
   ]]>
  </style>
 </defs>
 <g id="Слой_x0020_1">
  <metadata id="CorelCorpID_0Corel-Layer"/>
  <path class="fil0" d="M1605 1451l195 -196 0 0c-219,-219 -230,-230 -449,-449 72,-72 144,-144 215,-216 220,219 230,230 450,449l0 1 194 -194 1844 1844 -194 194 129 128 115 116 -323 108 -8 -8 -129 -128 -195 195 -1844 -1844zm2647 1825l87 87 -323 109 -86 -87 322 -109zm221 220l87 87 -323 109 -87 -87 323 -109zm221 224l86 84 -323 108 -86 -83 323 -109zm231 233c52,102 -93,297 -225,202l-95 -94 320 -108zm-4176 -3373l205 -205 109 110 171 -171 -109 -110 204 -204 74 73c105,106 105,279 0,384l-196 196c-106,106 -279,106 -384,0l-74 -73z"/>
  <path class="fil0" d="M1098 1883c606,0 1098,491 1098,1098 0,606 -492,1098 -1098,1098 -606,0 -1098,-492 -1098,-1098 0,-607 492,-1098 1098,-1098zm-159 557l318 0 0 381 382 0 0 319 -382 0 0 381 -318 0 0 -381 -382 0 0 -319 382 0 0 -381z"/>
 </g>
</svg>
