<?xml version="1.0" encoding="UTF-8"?>
<!DOCTYPE svg PUBLIC "-//W3C//DTD SVG 1.1//EN" "http://www.w3.org/Graphics/SVG/1.1/DTD/svg11.dtd">
<!-- Creator: CorelDRAW X8 -->
<svg xmlns="http://www.w3.org/2000/svg" xml:space="preserve" width="29.0793mm" height="32.1786mm" version="1.1" style="shape-rendering:geometricPrecision; text-rendering:geometricPrecision; image-rendering:optimizeQuality; fill-rule:evenodd; clip-rule:evenodd"
viewBox="0 0 27857 30826"
 xmlns:xlink="http://www.w3.org/1999/xlink">
 <defs>
  <style type="text/css">
   <![CDATA[
    .fil0 {fill:#2B2A29;fill-rule:nonzero}
   ]]>
  </style>
 </defs>
 <g id="Слой_x0020_1">
  <metadata id="CorelCorpID_0Corel-Layer"/>
  <path class="fil0" d="M13935 30826l-6337 0c-1341,0 -2168,-117 -2494,-541 -353,-460 -107,-1145 730,-2243l350 -458 176 -234c201,-272 300,-404 475,-488l0 -1c165,-78 319,-75 619,-68 80,2 176,4 368,4l32 0c34,-411 211,-992 814,-1516 451,-392 1146,-755 2209,-986 337,-496 577,-1237 743,-2030 237,-1128 325,-2355 342,-3158l-28 0c-271,0 -518,-112 -698,-291l-1 -1c-180,-180 -292,-428 -292,-699l0 -1058c0,-179 49,-347 132,-492 -648,-144 -1458,-480 -2292,-1138 -2132,-565 -4259,-2008 -5900,-4299 -1434,-2001 -2500,-4651 -2879,-7931 -3,-16 -4,-32 -4,-49 0,-157 127,-284 284,-284l3842 0c-45,-813 -69,-1672 -69,-2581 0,-157 127,-284 284,-284l19188 0c157,0 284,127 284,284 0,909 -24,1768 -70,2581l3830 0c156,0 284,127 284,284 0,17 -2,33 -5,49 -378,3280 -1445,5930 -2878,7931 -1637,2284 -3755,3725 -5880,4294 -837,661 -1649,998 -2300,1142 84,145 132,314 132,493l0 1058c0,263 -104,503 -273,681l-17 19c-180,179 -428,291 -700,291l-28 0c16,803 104,2030 342,3158 166,793 405,1534 742,2030 1064,231 1759,594 2210,986 602,524 780,1105 814,1516l31 0c193,0 289,-2 369,-4 299,-7 454,-10 618,68l28 15c159,85 257,217 448,474l176 234 350 458c837,1098 1082,1783 729,2243 -326,424 -1152,541 -2493,541l-6337 0zm-6144 -16337c-1269,-1420 -2485,-3715 -3167,-7356 -207,-1105 -366,-2334 -462,-3700l-3558 0c396,3038 1402,5499 2740,7366 1267,1768 2829,3002 4447,3690zm6413 -11171l826 2558 2688 -6c156,0 282,127 282,283 0,94 -46,178 -117,229l-2176 1576 835 2554c48,149 -33,309 -182,357 -97,32 -199,8 -271,-54l-2154 -1571 -2172 1584c-126,92 -303,64 -394,-62 -56,-76 -68,-170 -41,-253l835 -2555 -2177 -1575c-127,-92 -155,-270 -63,-396 59,-83 155,-124 250,-117l2667 6 825 -2558c48,-149 208,-230 356,-183 91,29 156,99 183,183zm350 2927l-619 -1919 -620 1919c-36,114 -143,196 -269,196l-2017 -4 1634 1183c97,70 142,197 103,317l-627 1918 1623 -1184c97,-75 235,-80 339,-5l1630 1189 -625 -1910c-41,-115 -4,-249 101,-325l1634 -1183 -2002 4c-126,7 -245,-71 -285,-196zm9153 -2812c-96,1366 -254,2594 -461,3699 -680,3634 -1893,5927 -3159,7348 1610,-689 3164,-1921 4425,-3681 1338,-1867 2345,-4328 2740,-7366l-3545 0zm-549 -289c1,-9 1,-18 2,-26 50,-801 80,-1651 85,-2550l-18620 0c14,2535 219,4668 555,6460 720,3843 2037,6118 3360,7429 1240,1229 2471,1601 3200,1629 63,-13 128,-19 194,-19l167 0c393,-74 791,-50 1206,-25 195,12 394,24 607,25l10 0 11 0 10 0 11 0c213,-1 412,-13 607,-25 415,-25 813,-49 1206,25l167 0c68,0 134,7 198,20 622,-25 1605,-300 2647,-1139l0 0 6 -4 5 -4 0 0c178,-144 358,-304 538,-483 1323,-1311 2640,-3586 3360,-7429 215,-1149 377,-2439 468,-3884zm-11020 13491c-93,13 -197,21 -309,21l-25 -1c-64,21 -122,57 -168,104l-13 11c-69,75 -112,177 -112,288l0 1058c0,117 47,222 123,298l2 2c76,76 181,123 298,123l315 0 3372 0 315 0c116,0 221,-48 298,-125l11 -10c70,-76 114,-177 114,-288l0 -1058c0,-117 -48,-223 -124,-300 -48,-47 -106,-83 -172,-104l-22 0 0 2c-113,0 -216,-8 -309,-21l-1777 0 -10 0 -10 0 -10 0 -10 0 -1777 0zm-3843 12449c-157,0 -284,-127 -284,-284 0,-157 127,-284 284,-284l11280 0c157,0 284,127 284,284 0,157 -127,284 -284,284l-11280 0zm129 -2287l11022 0c-35,-297 -177,-706 -617,-1088 -400,-348 -1037,-672 -2040,-879 -74,-9 -144,-47 -192,-111 -423,-568 -710,-1427 -902,-2339 -247,-1175 -338,-2446 -355,-3273l-2810 0c-17,827 -108,2098 -355,3273 -192,912 -480,1771 -903,2339 -41,53 -100,93 -172,107 -1014,206 -1657,532 -2059,883 -440,382 -583,791 -617,1088zm-826 3461l12674 0c1161,0 1852,-68 2043,-317 164,-214 -72,-694 -730,-1555l-349 -458 -181 -241c-135,-183 -206,-278 -254,-309l-10 -4c-48,-23 -155,-20 -364,-15 -125,2 -274,6 -380,6l-6112 0 -5798 0 -315 0c-105,0 -254,-4 -379,-6 -209,-5 -317,-8 -364,15l0 -1c-49,23 -119,118 -265,314l-180 241 -350 458c-657,861 -894,1341 -730,1555 192,249 882,317 2044,317z"/>
 </g>
</svg>
