<?xml version="1.0" encoding="UTF-8"?>
<!DOCTYPE svg PUBLIC "-//W3C//DTD SVG 1.1//EN" "http://www.w3.org/Graphics/SVG/1.1/DTD/svg11.dtd">
<!-- Creator: CorelDRAW X8 -->
<svg xmlns="http://www.w3.org/2000/svg" xml:space="preserve" width="2.9565mm" height="6.0207mm" version="1.1" style="shape-rendering:geometricPrecision; text-rendering:geometricPrecision; image-rendering:optimizeQuality; fill-rule:evenodd; clip-rule:evenodd"
viewBox="0 0 806 1641"
 xmlns:xlink="http://www.w3.org/1999/xlink">
 <defs>
  <style type="text/css">
   <![CDATA[
    .fil0 {fill:#292929}
   ]]>
  </style>
 </defs>
 <g id="Слой_x0020_1">
  <metadata id="CorelCorpID_0Corel-Layer"/>
  <path class="fil0" d="M445 1104c129,20 228,132 228,267 0,149 -121,270 -270,270 -149,0 -270,-121 -270,-270 0,-135 98,-247 228,-267l0 -257 -60 0 0 -727 -241 0c-33,0 -60,-27 -60,-60l0 0c0,-33 27,-60 60,-60l686 0c33,0 60,27 60,60l0 0c0,33 -27,60 -60,60l-241 0 0 727 -60 0 0 257zm-42 86c100,0 181,81 181,181 0,100 -81,181 -181,181 -100,0 -181,-81 -181,-181 0,-100 81,-181 181,-181z"/>
 </g>
</svg>
