<?xml version="1.0" encoding="UTF-8"?>
<!DOCTYPE svg PUBLIC "-//W3C//DTD SVG 1.1//EN" "http://www.w3.org/Graphics/SVG/1.1/DTD/svg11.dtd">
<!-- Creator: CorelDRAW X8 -->
<svg xmlns="http://www.w3.org/2000/svg" xml:space="preserve" width="4.1344mm" height="6.0086mm" version="1.1" style="shape-rendering:geometricPrecision; text-rendering:geometricPrecision; image-rendering:optimizeQuality; fill-rule:evenodd; clip-rule:evenodd"
viewBox="0 0 1689 2455"
 xmlns:xlink="http://www.w3.org/1999/xlink">
 <defs>
  <style type="text/css">
   <![CDATA[
    .fil0 {fill:#292929}
   ]]>
  </style>
 </defs>
 <g id="Слой_x0020_1">
  <metadata id="CorelCorpID_0Corel-Layer"/>
  <path class="fil0" d="M0 2455l42 -486 92 -159 227 393 -361 252zm1689 -1984l-88 152c-42,72 -135,97 -207,56l-553 -319c-72,-42 -97,-135 -55,-208l88 -152 330 191 -86 149 155 90 86 -150 330 191zm-1496 1235l113 -194 239 413 -113 195 -239 -414zm172 -298l122 -211 239 414 -122 211 -239 -414zm182 -314l340 -589 179 104 179 103 -459 796 -239 -414z"/>
 </g>
</svg>
