<?xml version="1.0" encoding="UTF-8"?>
<!DOCTYPE svg PUBLIC "-//W3C//DTD SVG 1.1//EN" "http://www.w3.org/Graphics/SVG/1.1/DTD/svg11.dtd">
<!-- Creator: CorelDRAW X8 -->
<svg xmlns="http://www.w3.org/2000/svg" xml:space="preserve" width="7.6321mm" height="5.8452mm" version="1.1" style="shape-rendering:geometricPrecision; text-rendering:geometricPrecision; image-rendering:optimizeQuality; fill-rule:evenodd; clip-rule:evenodd"
viewBox="0 0 5691 4358"
 xmlns:xlink="http://www.w3.org/1999/xlink">
 <defs>
  <style type="text/css">
   <![CDATA[
    .fil0 {fill:#292929}
   ]]>
  </style>
 </defs>
 <g id="Слой_x0020_1">
  <metadata id="CorelCorpID_0Corel-Layer"/>
  <path class="fil0" d="M3200 4105l-209 -889c337,-136 653,-300 1108,-557 153,-87 291,-162 396,-233 -4,13 -9,25 -13,37 -178,550 -357,1101 -535,1651 -286,333 -534,321 -747,-9zm-1229 -2323c-273,102 -458,282 -413,403 45,120 302,134 576,32 273,-102 458,-283 413,-403 -45,-120 -303,-134 -576,-32zm567 -780c-223,-88 -316,-112 -497,-22 -593,363 -1164,700 -1757,1063 -683,506 -67,1670 1125,1448 1127,-299 1476,-437 2405,-962 518,-292 864,-465 353,-719 -568,-282 -1060,-525 -1629,-808zm1566 -42c-249,77 -498,154 -747,231 439,206 879,412 1318,618 66,33 893,-532 1005,-664 49,-402 -73,-843 -442,-1098 -269,-108 -628,-26 -851,196 -248,247 -301,628 -283,717zm518 -657c263,-19 505,264 542,632 14,141 -4,274 -47,386l-906 -322c-34,-366 149,-677 411,-696zm-2294 1083c-109,-43 -141,-48 -229,-4 -289,177 -543,353 -832,530 -101,76 -268,240 -270,361 -4,272 439,455 819,345 563,-170 677,-222 1172,-469 260,-129 422,-227 173,-350 -278,-138 -555,-276 -833,-413z"/>
 </g>
</svg>
