<?xml version="1.0" encoding="UTF-8"?>
<!DOCTYPE svg PUBLIC "-//W3C//DTD SVG 1.1//EN" "http://www.w3.org/Graphics/SVG/1.1/DTD/svg11.dtd">
<!-- Creator: CorelDRAW X8 -->
<svg xmlns="http://www.w3.org/2000/svg" xml:space="preserve" width="3.7089mm" height="6.1338mm" version="1.1" style="shape-rendering:geometricPrecision; text-rendering:geometricPrecision; image-rendering:optimizeQuality; fill-rule:evenodd; clip-rule:evenodd"
viewBox="0 0 1398 2312"
 xmlns:xlink="http://www.w3.org/1999/xlink">
 <defs>
  <style type="text/css">
   <![CDATA[
    .fil0 {fill:#292929}
   ]]>
  </style>
 </defs>
 <g id="Слой_x0020_1">
  <metadata id="CorelCorpID_0Corel-Layer"/>
  <path class="fil0" d="M0 158l470 0 0 1995 -470 0 0 -1995zm550 -158l298 0 0 158 0 309 -298 0 0 -309 0 -158zm298 536l0 368 -298 0 0 -368 298 0zm0 436l0 374 -298 0 0 -374 298 0zm0 442l0 373 -298 0 0 -373 298 0zm0 442l0 297 0 159 -298 0 0 -159 0 -297 298 0zm80 -1698l470 0 0 1995 -470 0 0 -1995zm-773 1703c43,0 78,34 78,77 0,43 -35,78 -78,78 -43,0 -78,-35 -78,-78 0,-43 35,-77 78,-77zm1085 -1583c43,0 77,35 77,77 0,43 -34,78 -77,78 -43,0 -78,-35 -78,-78 0,-42 35,-77 78,-77zm-903 0c43,0 78,35 78,77 0,43 -35,78 -78,78 -43,0 -77,-35 -77,-78 0,-42 34,-77 77,-77zm-182 513c43,0 78,35 78,78 0,43 -35,78 -78,78 -43,0 -78,-35 -78,-78 0,-43 35,-78 78,-78zm182 556c43,0 78,35 78,78 0,43 -35,77 -78,77 -43,0 -77,-34 -77,-77 0,-43 34,-78 77,-78zm903 0c43,0 77,35 77,78 0,43 -34,77 -77,77 -43,0 -78,-34 -78,-77 0,-43 35,-78 78,-78zm-183 -556c43,0 78,35 78,78 0,43 -35,78 -78,78 -42,0 -77,-35 -77,-78 0,-43 35,-78 77,-78zm0 1070c43,0 78,34 78,77 0,43 -35,78 -78,78 -42,0 -77,-35 -77,-78 0,-43 35,-77 77,-77z"/>
 </g>
</svg>
