<?xml version="1.0" encoding="UTF-8"?>
<!DOCTYPE svg PUBLIC "-//W3C//DTD SVG 1.1//EN" "http://www.w3.org/Graphics/SVG/1.1/DTD/svg11.dtd">
<!-- Creator: CorelDRAW X8 -->
<svg xmlns="http://www.w3.org/2000/svg" xml:space="preserve" width="8.2365mm" height="5.9313mm" version="1.1" style="shape-rendering:geometricPrecision; text-rendering:geometricPrecision; image-rendering:optimizeQuality; fill-rule:evenodd; clip-rule:evenodd"
viewBox="0 0 10690 7698"
 xmlns:xlink="http://www.w3.org/1999/xlink">
 <defs>
  <style type="text/css">
   <![CDATA[
    .fil0 {fill:#292929}
   ]]>
  </style>
 </defs>
 <g id="Слой_x0020_1">
  <metadata id="CorelCorpID_0Corel-Layer"/>
  <path class="fil0" d="M4273 175l3250 3250c234,233 234,615 0,848l-3250 3250c-233,234 -615,234 -848,0l-3250 -3250c-233,-233 -233,-615 0,-848l3250 -3250c233,-233 615,-233 848,0z"/>
  <path class="fil0" d="M7265 175l3250 3250c234,233 233,615 0,848l-3250 3250c-233,234 -615,234 -848,0l-625 -625 2625 -2625c233,-233 233,-615 0,-848l-2625 -2625 625 -625c233,-233 615,-233 848,0z"/>
 </g>
</svg>
