<?xml version="1.0" encoding="UTF-8"?>
<!DOCTYPE svg PUBLIC "-//W3C//DTD SVG 1.1//EN" "http://www.w3.org/Graphics/SVG/1.1/DTD/svg11.dtd">
<!-- Creator: CorelDRAW X8 -->
<svg xmlns="http://www.w3.org/2000/svg" xml:space="preserve" width="13.3638mm" height="2.858mm" version="1.1" style="shape-rendering:geometricPrecision; text-rendering:geometricPrecision; image-rendering:optimizeQuality; fill-rule:evenodd; clip-rule:evenodd"
viewBox="0 0 17321 3704"
 xmlns:xlink="http://www.w3.org/1999/xlink">
 <defs>
  <style type="text/css">
   <![CDATA[
    .fil0 {fill:#292929}
   ]]>
  </style>
 </defs>
 <g id="Слой_x0020_1">
  <metadata id="CorelCorpID_0Corel-Layer"/>
  <path class="fil0" d="M10326 473c924,-193 1733,371 1915,1085 232,907 -499,1580 -1222,1721 -2074,404 -2773,-2372 -693,-2806zm-3968 3185l511 1 1 -3598 -517 -6 5 3603zm545 -1911l1552 1903 600 -4c-49,-112 -264,-349 -352,-458 -195,-239 -1087,-1298 -1165,-1476 123,-165 239,-253 362,-410l1079 -1214 -591 -10 -1299 1443c-77,76 -127,148 -186,226zm6189 1891l481 12 12 -3168c511,-51 1189,50 1216,582 33,628 -577,686 -1144,701 15,135 131,251 224,366 844,99 1630,-479 1337,-1376 -223,-685 -1311,-765 -2119,-666l-7 3549zm795 -30c736,-7 542,52 815,-275 282,-338 2009,-2410 2130,-2481l0 865 -679 17c-3,114 129,294 247,379l445 6 9 1499 467 1 -1 -3584 -505 2 -738 894c-231,283 -2081,2478 -2190,2677zm-13887 20l618 2 1414 -1709c191,-211 722,-906 912,-1038l-3 861 -693 19c44,144 150,231 210,376l494 3c27,479 -13,1002 17,1503l451 0 18 -3586 -525 3 -2913 3566zm3838 8l513 1 0 -3165c523,-31 1202,58 1207,592 7,657 -563,683 -1141,702 16,138 522,778 639,947l673 930 539 5c-61,-130 -177,-263 -269,-389 -92,-126 -186,-262 -287,-399 -93,-126 -203,-276 -289,-399 -80,-116 -232,-295 -275,-404 1008,-211 993,-1073 725,-1497 -362,-570 -1260,-504 -2037,-503l2 3579zm8886 -1581c149,-1114 -852,-1960 -1876,-2046 -1147,-97 -2139,635 -2281,1613 -165,1138 830,1973 1843,2071 1181,114 2179,-631 2314,-1638z"/>
 </g>
</svg>
