<?xml version="1.0" encoding="UTF-8"?>
<!DOCTYPE svg PUBLIC "-//W3C//DTD SVG 1.1//EN" "http://www.w3.org/Graphics/SVG/1.1/DTD/svg11.dtd">
<!-- Creator: CorelDRAW X8 -->
<svg xmlns="http://www.w3.org/2000/svg" xml:space="preserve" width="30.1837mm" height="32.1786mm" version="1.1" style="shape-rendering:geometricPrecision; text-rendering:geometricPrecision; image-rendering:optimizeQuality; fill-rule:evenodd; clip-rule:evenodd"
viewBox="0 0 28995 30912"
 xmlns:xlink="http://www.w3.org/1999/xlink">
 <defs>
  <style type="text/css">
   <![CDATA[
    .str0 {stroke:#2B2A29;stroke-width:569.267;stroke-linecap:round;stroke-linejoin:round}
    .fil0 {fill:none}
    .fil1 {fill:#FEFEFE}
    .fil2 {fill:#2B2A29;fill-rule:nonzero}
   ]]>
  </style>
 </defs>
 <g id="Слой_x0020_1">
  <metadata id="CorelCorpID_0Corel-Layer"/>
  <g id="_2536219247600">
   <rect class="fil0 str0" x="10508" y="285" width="10844" height="22849"/>
   <line class="fil0 str0" x1="10508" y1="7883" x2="21353" y2= "7883" />
   <line class="fil0 str0" x1="15930" y1="285" x2="15930" y2= "7883" />
   <line class="fil0 str0" x1="10508" y1="11709" x2="21353" y2= "11709" />
   <line class="fil0 str0" x1="21353" y1="14576" x2="11815" y2= "14576" />
   <line class="fil0 str0" x1="15930" y1="14576" x2="15930" y2= "23133" />
   <line class="fil0 str0" x1="14935" y1="5998" x2="14935" y2= "7015" />
   <line class="fil0 str0" x1="16894" y1="5998" x2="16894" y2= "7015" />
   <line class="fil0 str0" x1="14935" y1="15577" x2="14935" y2= "16594" />
   <line class="fil0 str0" x1="16894" y1="15577" x2="16894" y2= "16594" />
  </g>
  <path class="fil1" d="M1439 13920l2170 0c-4,44 -6,88 -6,133l0 0c0,846 692,1538 1538,1538l3835 0c846,0 1538,-692 1538,-1538l0 0c0,-45 -2,-89 -6,-133l2170 0c635,0 1155,519 1155,1154l0 14399c0,635 -520,1154 -1155,1154l-11239 0c-635,0 -1154,-519 -1154,-1154l0 -14399c0,-635 519,-1154 1154,-1154z"/>
  <path class="fil2" d="M1439 13635l2170 0c157,0 285,128 285,285l-6 80 0 53c0,345 141,658 368,885 227,227 541,368 885,368l3835 0c345,0 658,-141 885,-368 227,-227 368,-541 368,-885 0,-40 -1,-69 -4,-109 -14,-156 102,-294 259,-308l24 -1 2170 0c396,0 755,162 1016,423l1 1c260,260 422,620 422,1015l0 14399c0,395 -162,754 -422,1015l-1 1c-261,261 -620,423 -1016,423l-11239 0c-396,0 -756,-162 -1017,-423l-16 -18c-251,-259 -406,-612 -406,-998l0 -14399c0,-396 162,-756 422,-1016 261,-261 621,-423 1017,-423zm1886 569l-1886 0c-239,0 -456,98 -614,256 -158,158 -256,375 -256,614l0 14399c0,233 93,445 243,601l13 13c158,157 375,255 614,255l11239 0c240,0 457,-97 615,-255 157,-157 255,-375 255,-614l0 -14399c0,-239 -98,-457 -255,-615 -158,-157 -375,-255 -615,-255l-1886 0c-36,442 -232,840 -528,1136 -330,330 -786,535 -1288,535l-3835 0c-501,0 -957,-205 -1287,-535l0 -1c-297,-296 -492,-694 -529,-1135z"/>
  <rect class="fil1" x="1955" y="17079" width="10207" height="11999" rx="870" ry="829"/>
  <path class="fil2" d="M2825 16794l8467 0c318,0 607,130 816,339 209,209 339,498 339,816l0 10259c0,318 -130,606 -339,816 -209,209 -498,338 -816,338l-8467 0c-317,0 -605,-130 -814,-338l-1 -2c-210,-210 -339,-498 -339,-814l0 -10259c0,-317 130,-605 339,-815l1 -1c210,-209 498,-339 814,-339zm8467 570l-8467 0c-161,0 -308,65 -413,171l-1 1c-105,105 -171,251 -171,413l0 10259c0,161 66,308 171,413l1 1c105,106 252,171 413,171l8467 0c161,0 307,-66 413,-172 106,-106 172,-252 172,-413l0 -10259c0,-161 -66,-307 -172,-413 -106,-106 -252,-172 -413,-172z"/>
  <path class="fil2" d="M2908 18945c-124,-95 -149,-272 -54,-397 94,-125 272,-149 396,-54l672 509 1011 -1140c103,-117 283,-128 400,-24 117,103 128,283 24,400l-1184 1336c-98,110 -265,129 -384,38l-881 -668zm2951 8215c-157,0 -285,-127 -285,-284 0,-158 128,-285 285,-285l5240 0c157,0 284,127 284,285 0,157 -127,284 -284,284l-5240 0zm-2951 -393c-124,-94 -149,-272 -54,-397 94,-124 272,-149 396,-54l672 509 1011 -1140c103,-117 283,-128 400,-24 117,103 128,283 24,400l-1184 1337c-98,110 -265,128 -384,38l-881 -669zm2951 -2159c-157,0 -285,-127 -285,-284 0,-157 128,-285 285,-285l5240 0c157,0 284,128 284,285 0,157 -127,284 -284,284l-5240 0zm-2951 -393c-124,-94 -149,-272 -54,-396 94,-125 272,-150 396,-55l672 510 1011 -1140c103,-118 283,-129 400,-25 117,104 128,283 24,400l-1184 1337c-98,110 -265,128 -384,38l-881 -669zm2951 -2173c-157,0 -285,-128 -285,-285 0,-157 128,-285 285,-285l5240 0c157,0 284,128 284,285 0,157 -127,285 -284,285l-5240 0zm-2951 -393c-124,-95 -149,-273 -54,-397 94,-125 272,-149 396,-55l672 510 1011 -1140c103,-118 283,-129 400,-25 117,104 128,283 24,400l-1184 1337c-98,110 -265,128 -384,38l-881 -668zm2951 -2311c-157,0 -285,-127 -285,-285 0,-157 128,-284 285,-284l5240 0c157,0 284,127 284,284 0,158 -127,285 -284,285l-5240 0z"/>
  <path class="fil1" d="M5360 12933c1135,0 674,104 674,-577 0,-1214 2050,-1214 2050,0 0,681 -419,577 715,577 491,0 893,402 893,892l0 1c0,490 -402,892 -893,892l-3439 0c-490,0 -892,-402 -892,-892l0 -1c0,-490 402,-892 892,-892zm1699 -781c175,0 318,142 318,318 0,175 -143,317 -318,317 -176,0 -318,-142 -318,-317 0,-176 142,-318 318,-318z"/>
  <path class="fil2" d="M5360 12648c93,0 260,3 394,5l22 1c-16,-81 -27,-179 -27,-298 0,-577 349,-945 795,-1106 165,-59 341,-89 515,-89 173,0 349,30 514,89 447,161 795,529 795,1106 0,120 -11,220 -26,302 18,-3 39,-4 63,-5 136,-2 304,-5 394,-5 324,0 619,133 832,346l17 18c203,213 328,500 328,813 0,324 -132,619 -345,832 -213,213 -508,345 -832,345l-3439 0c-324,0 -618,-132 -831,-345 -213,-213 -346,-508 -346,-831 0,-323 133,-617 346,-831l1 -1c214,-213 508,-346 830,-346zm385 572c-70,-1 -159,-2 -385,-2 -167,0 -319,68 -429,177l-1 2c-109,109 -177,261 -177,428 0,167 68,319 178,429 111,111 263,179 429,179l3439 0c167,0 319,-68 429,-179 111,-110 179,-262 179,-428 0,-162 -63,-309 -166,-417l-13 -12c-110,-111 -262,-179 -429,-179 -226,0 -314,1 -385,2 -311,5 -448,7 -565,-87 -172,-139 -145,-246 -95,-438 18,-72 45,-178 45,-339 0,-297 -183,-488 -417,-572 -99,-36 -210,-54 -323,-54 -114,0 -225,18 -324,54 -234,84 -417,275 -417,572 0,163 34,272 57,342 57,183 90,287 -78,431 -115,98 -247,96 -552,91zm1314 -1353c165,0 316,68 425,176l1 0c109,109 176,260 176,427 0,166 -67,317 -176,426 -109,108 -260,176 -426,176 -167,0 -317,-67 -426,-176 -109,-109 -177,-260 -177,-426 0,-167 68,-318 177,-427 109,-108 259,-176 426,-176zm24 579c-6,-6 -15,-10 -24,-10 -10,0 -18,4 -24,10 -6,6 -10,14 -10,24 0,9 4,17 10,23 6,6 14,10 24,10 9,0 17,-4 23,-10 6,-6 10,-14 10,-23 0,-10 -4,-18 -9,-24z"/>
  <g id="_2536219251280">
   <rect class="fil0 str0" x="21353" y="7883" width="7358" height="15250"/>
   <line class="fil0 str0" x1="21353" y1="9812" x2="28711" y2= "9812" />
   <line class="fil0 str0" x1="21353" y1="11622" x2="28711" y2= "11622" />
   <line class="fil0 str0" x1="21353" y1="13347" x2="28711" y2= "13347" />
   <line class="fil0 str0" x1="25872" y1="13347" x2="25872" y2= "23133" />
   <line class="fil0 str0" x1="21353" y1="18326" x2="25872" y2= "18326" />
   <line class="fil0 str0" x1="26857" y1="14281" x2="26857" y2= "15298" />
   <line class="fil0 str0" x1="24853" y1="14281" x2="24853" y2= "15298" />
   <line class="fil0 str0" x1="24853" y1="19312" x2="24853" y2= "20328" />
  </g>
 </g>
</svg>
