<?xml version="1.0" encoding="UTF-8"?>
<!DOCTYPE svg PUBLIC "-//W3C//DTD SVG 1.1//EN" "http://www.w3.org/Graphics/SVG/1.1/DTD/svg11.dtd">
<!-- Creator: CorelDRAW X8 -->
<svg xmlns="http://www.w3.org/2000/svg" xml:space="preserve" width="28.271mm" height="32.1787mm" version="1.1" style="shape-rendering:geometricPrecision; text-rendering:geometricPrecision; image-rendering:optimizeQuality; fill-rule:evenodd; clip-rule:evenodd"
viewBox="0 0 22848 26006"
 xmlns:xlink="http://www.w3.org/1999/xlink">
 <defs>
  <style type="text/css">
   <![CDATA[
    .str0 {stroke:#2B2A29;stroke-width:478.931;stroke-linecap:round;stroke-linejoin:round}
    .str1 {stroke:#2B2A29;stroke-width:478.931;stroke-linecap:round;stroke-linejoin:round}
    .fil0 {fill:none}
    .fil1 {fill:#FEFEFE}
   ]]>
  </style>
 </defs>
 <g id="Слой_x0020_1">
  <metadata id="CorelCorpID_0Corel-Layer"/>
  <g id="_2536224463616">
   <rect class="fil0 str0" x="5281" y="239" width="4562" height="25527"/>
   <line class="fil0 str0" x1="5281" y1="24402" x2="7490" y2= "24402" />
   <line class="fil0 str0" x1="5281" y1="21544" x2="7490" y2= "21544" />
   <line class="fil0 str0" x1="5281" y1="22999" x2="6385" y2= "22999" />
   <line class="fil0 str0" x1="5281" y1="20082" x2="6385" y2= "20082" />
   <line class="fil0 str0" x1="5281" y1="18721" x2="7490" y2= "18721" />
   <line class="fil0 str0" x1="5281" y1="15862" x2="7490" y2= "15862" />
   <line class="fil0 str0" x1="5281" y1="17318" x2="6385" y2= "17318" />
   <line class="fil0 str0" x1="5281" y1="14401" x2="6385" y2= "14401" />
   <line class="fil0 str0" x1="5281" y1="12954" x2="7490" y2= "12954" />
   <line class="fil0 str0" x1="5281" y1="10096" x2="7490" y2= "10096" />
   <line class="fil0 str0" x1="5281" y1="11551" x2="6385" y2= "11551" />
   <line class="fil0 str0" x1="5281" y1="8634" x2="6385" y2= "8634" />
   <line class="fil0 str0" x1="5281" y1="7273" x2="7490" y2= "7273" />
   <line class="fil0 str0" x1="5281" y1="4415" x2="7490" y2= "4415" />
   <line class="fil0 str0" x1="5281" y1="5870" x2="6385" y2= "5870" />
   <line class="fil0 str0" x1="5281" y1="2953" x2="6385" y2= "2953" />
   <line class="fil0 str0" x1="5281" y1="1522" x2="7490" y2= "1522" />
  </g>
  <path class="fil0 str1" d="M10639 1496c245,17 487,41 727,73 445,-449 1141,-911 1902,-873l-1004 1028c221,47 440,101 657,161 508,-363 1250,-689 1977,-536l-1098 816c218,79 432,165 643,257 556,-304 1365,-552 2090,-292l-1261 693c187,100 372,205 553,315 592,-227 1429,-364 2112,-9l-1344 518 0 0c163,117 322,239 479,365 616,-148 1465,-174 2096,269l-1400 336 -2 0c149,140 294,284 434,432 632,-65 1476,22 2043,545l-1432 147 -2 0c121,148 238,300 352,455 634,17 1460,212 1954,804l-1439 -40c105,171 207,345 303,522 626,101 1418,403 1830,1054l-1420 -228c83,186 162,375 235,566 607,184 1351,588 1673,1287l-1377 -414c60,203 115,409 164,616 576,264 1259,764 1484,1500l-1310 -596c30,198 55,397 75,598 537,337 1149,924 1276,1683l-1221 -764 -1 0c2,77 3,154 3,231 0,128 -3,255 -7,381 488,405 1018,1068 1042,1839l-1108 -919 -1 0c-24,218 -55,435 -92,649 428,468 862,1197 782,1963l-973 -1060c-50,195 -105,389 -164,580 362,520 696,1299 516,2047l-825 -1179c-76,190 -158,377 -244,562 291,563 519,1380 241,2098l-662 -1279 0 0c-105,185 -215,366 -329,545 212,597 329,1438 -44,2113l-483 -1356 -1 -3c-122,160 -248,317 -377,470 132,621 137,1470 -322,2091l-300 -1408 0 -3c-144,145 -292,286 -443,423 49,632 -58,1475 -596,2029l-110 -1435 -1 -2c-163,126 -330,248 -501,365 -36,634 -255,1453 -860,1931l81 -1438c-174,101 -351,197 -530,288 -120,623 -444,1406 -1107,1798l269 -1412c-188,78 -379,151 -572,219 -202,600 -627,1332 -1335,1634l454 -1364c-205,53 -412,102 -621,145 -280,568 -801,1236 -1543,1440l634 -1292c-198,24 -398,43 -600,57 -198,296 -475,614 -815,854l0 -24069c386,-464 971,-930 1666,-988l-861 1155 -9 12z"/>
  <g id="_2536224461824">
   <rect class="fil1 str0" x="239" y="15788" width="2815" height="9979" rx="679" ry="998"/>
   <line class="fil0 str0" x1="1647" y1="15788" x2="1647" y2= "1948" />
   <polygon class="fil1 str0" points="1647,1948 756,1948 1201,239 1647,239 2092,239 2538,1948 "/>
   <line class="fil0 str0" x1="1183" y1="16480" x2="1183" y2= "25075" />
   <line class="fil0 str0" x1="2128" y1="16480" x2="2128" y2= "25075" />
  </g>
 </g>
</svg>
