<svg width="368" height="368" viewBox="0 0 368 368" fill="none" xmlns="http://www.w3.org/2000/svg">
<rect width="368" height="368" fill="white"/>
<path d="M59.5454 25.5107L62.0981 24.2341H70.6028L69.3391 21.6809H64.3222L67.3424 17.6341L66.0914 15.0809L60.9607 21.9362L58.408 23.2256L58.9135 20.4043L64.0694 13.5362L61.3019 13.0255L56.702 19.1277L52.1527 13L49.3725 13.5106L54.5032 20.4043L55.0087 23.2256L52.6835 22.0511L52.4813 21.949L47.3506 15.0426L46.0869 17.5958L49.1198 21.6809H44.065L42.8013 24.2341H51.3566L53.8587 25.5107L51.306 26.7873H42.8013L44.065 29.3405H49.0819L46.0616 33.3873L47.3127 35.9405L52.4433 29.0852L54.996 27.7958L54.4906 30.6171L49.3346 37.4852L52.1021 38.0086L56.702 31.8937L61.2514 38.0214L64.0315 37.5107L58.9009 30.6171L58.3954 27.7958L60.9228 29.0724L66.0535 35.9788L67.3172 33.4256L64.2843 29.3405H69.3391L70.6028 26.7873H62.0475" fill="#EAF1FF"/>
<path d="M181.545 85.5107L184.098 84.2341H192.603L191.339 81.6809H186.322L189.342 77.6341L188.091 75.0809L182.961 81.9362L180.408 83.2256L180.914 80.4043L186.069 73.5362L183.302 73.0255L178.702 79.1277L174.153 73L171.373 73.5106L176.503 80.4043L177.009 83.2256L174.683 82.0511L174.481 81.949L169.351 75.0426L168.087 77.5958L171.12 81.6809H166.065L164.801 84.2341H173.357L175.859 85.5107L173.306 86.7873H164.801L166.065 89.3405H171.082L168.062 93.3873L169.313 95.9405L174.443 89.0852L176.996 87.7958L176.491 90.6171L171.335 97.4852L174.102 98.0086L178.702 91.8937L183.251 98.0214L186.032 97.5107L180.901 90.6171L180.395 87.7958L182.923 89.0724L188.053 95.9788L189.317 93.4256L186.284 89.3405H191.339L192.603 86.7873H184.048" fill="#EAF1FF"/>
<path d="M297.545 25.5107L300.098 24.2341H308.603L307.339 21.6809H302.322L305.342 17.6341L304.091 15.0809L298.961 21.9362L296.408 23.2256L296.914 20.4043L302.069 13.5362L299.302 13.0255L294.702 19.1277L290.153 13L287.373 13.5106L292.503 20.4043L293.009 23.2256L290.683 22.0511L290.481 21.949L285.351 15.0426L284.087 17.5958L287.12 21.6809H282.065L280.801 24.2341H289.357L291.859 25.5107L289.306 26.7873H280.801L282.065 29.3405H287.082L284.062 33.3873L285.313 35.9405L290.443 29.0852L292.996 27.7958L292.491 30.6171L287.335 37.4852L290.102 38.0086L294.702 31.8937L299.251 38.0214L302.032 37.5107L296.901 30.6171L296.395 27.7958L298.923 29.0724L304.053 35.9788L305.317 33.4256L302.284 29.3405H307.339L308.603 26.7873H300.048" fill="#EAF1FF"/>
<path d="M31.7441 175.639L34.2968 174.362H42.8015L41.5378 171.809H36.5209L39.5412 167.762L38.2901 165.209L33.1595 172.064L30.6068 173.354L31.1123 170.532L36.2682 163.664L33.5007 163.153L28.9008 169.256L24.3514 163.128L21.5713 163.639L26.7019 170.532L27.2074 173.354L24.8822 172.179L24.68 172.077L19.5493 165.17L18.2856 167.724L21.3185 171.809H16.2637L15 174.362H23.5553L26.0574 175.639L23.5047 176.915H15L16.2637 179.468H21.2806L18.2604 183.515L19.5114 186.068L24.6421 179.213L27.1948 177.924L26.6893 180.745L21.5334 187.613L24.3009 188.137L28.9008 182.022L33.4501 188.149L36.2303 187.639L31.0996 180.745L30.5941 177.924L33.1215 179.2L38.2522 186.107L39.5159 183.554L36.483 179.468H41.5378L42.8015 176.915H34.2462" fill="#EAF1FF"/>
<path d="M153.744 235.639L156.297 234.362H164.802L163.538 231.809H158.521L161.541 227.762L160.29 225.209L155.159 232.064L152.607 233.354L153.112 230.532L158.268 223.664L155.501 223.153L150.901 229.256L146.351 223.128L143.571 223.639L148.702 230.532L149.207 233.354L146.882 232.179L146.68 232.077L141.549 225.17L140.286 227.724L143.319 231.809H138.264L137 234.362H145.555L148.057 235.639L145.505 236.915H137L138.264 239.468H143.281L140.26 243.515L141.511 246.068L146.642 239.213L149.195 237.924L148.689 240.745L143.533 247.613L146.301 248.137L150.901 242.022L155.45 248.149L158.23 247.639L153.1 240.745L152.594 237.924L155.122 239.2L160.252 246.107L161.516 243.554L158.483 239.468H163.538L164.802 236.915H156.246" fill="#EAF1FF"/>
<path d="M269.744 175.639L272.297 174.362H280.802L279.538 171.809H274.521L277.541 167.762L276.29 165.209L271.159 172.064L268.607 173.354L269.112 170.532L274.268 163.664L271.501 163.153L266.901 169.256L262.351 163.128L259.571 163.639L264.702 170.532L265.207 173.354L262.882 172.179L262.68 172.077L257.549 165.17L256.286 167.724L259.319 171.809H254.264L253 174.362H261.555L264.057 175.639L261.505 176.915H253L254.264 179.468H259.281L256.26 183.515L257.511 186.068L262.642 179.213L265.195 177.924L264.689 180.745L259.533 187.613L262.301 188.137L266.901 182.022L271.45 188.149L274.23 187.639L269.1 180.745L268.594 177.924L271.122 179.2L276.252 186.107L277.516 183.554L274.483 179.468H279.538L280.802 176.915H272.246" fill="#EAF1FF"/>
<path d="M101.248 124.052L103.801 122.775H112.305L111.042 120.222H106.025L109.045 116.175L107.794 113.622L102.663 120.477L100.111 121.767L100.616 118.945L105.772 112.077L103.005 111.567L98.4047 117.669L93.8553 111.541L91.0752 112.052L96.2058 118.945L96.7113 121.767L94.3861 120.592L94.1839 120.49L89.0532 113.584L87.7895 116.137L90.8224 120.222H85.7676L84.5039 122.775H93.0592L95.5613 124.052L93.0086 125.328H84.5039L85.7676 127.882H90.7845L87.7643 131.928L89.0153 134.482L94.146 127.626L96.6987 126.337L96.1932 129.158L91.0373 136.026L93.8048 136.55L98.4047 130.435L102.954 136.562L105.734 136.052L100.604 129.158L100.098 126.337L102.625 127.613L107.756 134.52L109.02 131.967L105.987 127.882H111.042L112.305 125.328H103.75" fill="#EAF1FF"/>
<path d="M223.248 184.052L225.801 182.775H234.305L233.042 180.222H228.025L231.045 176.175L229.794 173.622L224.663 180.477L222.111 181.767L222.616 178.945L227.772 172.077L225.005 171.567L220.405 177.669L215.855 171.541L213.075 172.052L218.206 178.945L218.711 181.767L216.386 180.592L216.184 180.49L211.053 173.584L209.79 176.137L212.822 180.222H207.768L206.504 182.775H215.059L217.561 184.052L215.009 185.328H206.504L207.768 187.882H212.785L209.764 191.928L211.015 194.482L216.146 187.626L218.699 186.337L218.193 189.158L213.037 196.026L215.805 196.55L220.405 190.435L224.954 196.562L227.734 196.052L222.604 189.158L222.098 186.337L224.625 187.613L229.756 194.52L231.02 191.967L227.987 187.882H233.042L234.305 185.328H225.75" fill="#EAF1FF"/>
<path d="M339.248 124.052L341.801 122.775H350.305L349.042 120.222H344.025L347.045 116.175L345.794 113.622L340.663 120.477L338.111 121.767L338.616 118.945L343.772 112.077L341.005 111.567L336.405 117.669L331.855 111.541L329.075 112.052L334.206 118.945L334.711 121.767L332.386 120.592L332.184 120.49L327.053 113.584L325.79 116.137L328.822 120.222H323.768L322.504 122.775H331.059L333.561 124.052L331.009 125.328H322.504L323.768 127.882H328.785L325.764 131.928L327.015 134.482L332.146 127.626L334.699 126.337L334.193 129.158L329.037 136.026L331.805 136.55L336.405 130.435L340.954 136.562L343.734 136.052L338.604 129.158L338.098 126.337L340.625 127.613L345.756 134.52L347.02 131.967L343.987 127.882H349.042L350.305 125.328H341.75" fill="#EAF1FF"/>
<path d="M51.205 291.478L53.7577 290.202H62.2625L60.9988 287.649H55.9819L59.0021 283.602L57.751 281.049L52.6204 287.904L50.0677 289.193L50.5732 286.372L55.7291 279.504L52.9616 278.993L48.3617 285.095L43.8124 278.968L41.0322 279.478L46.1629 286.372L46.6683 289.193L44.3431 288.019L44.1409 287.917L39.0103 281.01L37.7466 283.564L40.7795 287.649H35.7246L34.4609 290.202H43.0162L45.5184 291.478L42.9657 292.755H34.4609L35.7246 295.308H40.7416L37.7213 299.355L38.9724 301.908L44.103 295.053L46.6557 293.764L46.1502 296.585L40.9943 303.453L43.7618 303.976L48.3617 297.861L52.9111 303.989L55.6912 303.479L50.5606 296.585L50.0551 293.764L52.5825 295.04L57.7131 301.947L58.9768 299.393L55.9439 295.308H60.9988L62.2625 292.755H53.7072" fill="#EAF1FF"/>
<path d="M173.205 351.478L175.758 350.202H184.262L182.999 347.649H177.982L181.002 343.602L179.751 341.049L174.62 347.904L172.068 349.193L172.573 346.372L177.729 339.504L174.962 338.993L170.362 345.095L165.812 338.968L163.032 339.478L168.163 346.372L168.668 349.193L166.343 348.019L166.141 347.917L161.01 341.01L159.747 343.564L162.779 347.649H157.725L156.461 350.202H165.016L167.518 351.478L164.966 352.755H156.461L157.725 355.308H162.742L159.721 359.355L160.972 361.908L166.103 355.053L168.656 353.764L168.15 356.585L162.994 363.453L165.762 363.976L170.362 357.861L174.911 363.989L177.691 363.479L172.561 356.585L172.055 353.764L174.582 355.04L179.713 361.947L180.977 359.393L177.944 355.308H182.999L184.262 352.755H175.707" fill="#EAF1FF"/>
<path d="M289.205 291.478L291.758 290.202H300.262L298.999 287.649H293.982L297.002 283.602L295.751 281.049L290.62 287.904L288.068 289.193L288.573 286.372L293.729 279.504L290.962 278.993L286.362 285.095L281.812 278.968L279.032 279.478L284.163 286.372L284.668 289.193L282.343 288.019L282.141 287.917L277.01 281.01L275.747 283.564L278.779 287.649H273.725L272.461 290.202H281.016L283.518 291.478L280.966 292.755H272.461L273.725 295.308H278.742L275.721 299.355L276.972 301.908L282.103 295.053L284.656 293.764L284.15 296.585L278.994 303.453L281.762 303.976L286.362 297.861L290.911 303.989L293.691 303.479L288.561 296.585L288.055 293.764L290.582 295.04L295.713 301.947L296.977 299.393L293.944 295.308H298.999L300.262 292.755H291.707" fill="#EAF1FF"/>
<path d="M60.2054 78.7139L59.6235 78.3727C59.7288 78.2626 59.8496 78.1689 59.9819 78.0947C60.0684 78.0451 60.1321 77.9629 60.1592 77.8659C60.1863 77.7689 60.1746 77.665 60.1265 77.5768C60.0785 77.4885 59.9981 77.4231 59.9028 77.3948C59.8075 77.3665 59.705 77.3775 59.6177 77.4255C59.365 77.5675 59.1411 77.7567 58.9579 77.9833L57.4498 77.098L58.9575 76.2142C59.1407 76.4408 59.3646 76.6301 59.6173 76.772C59.6606 76.7968 59.7083 76.8126 59.7577 76.8186C59.8071 76.8246 59.8571 76.8205 59.905 76.8068C59.9528 76.793 59.9975 76.7698 60.0364 76.7384C60.0753 76.707 60.1078 76.6681 60.1318 76.6239C60.1559 76.5797 60.1711 76.5311 60.1765 76.481C60.182 76.4308 60.1776 76.38 60.1636 76.3316C60.1496 76.2831 60.1264 76.238 60.0951 76.1987C60.0639 76.1595 60.0253 76.1269 59.9815 76.1028C59.8492 76.0286 59.7285 75.9349 59.6231 75.8248L60.2051 75.4836C60.2496 75.4594 60.2889 75.4264 60.3206 75.3865C60.3523 75.3467 60.3757 75.3007 60.3896 75.2514C60.4035 75.2022 60.4074 75.1506 60.4013 75.0997C60.3951 75.0489 60.3789 74.9998 60.3537 74.9554C60.3284 74.911 60.2947 74.8722 60.2544 74.8414C60.2141 74.8105 60.1681 74.7881 60.1192 74.7757C60.0702 74.7632 60.0193 74.7609 59.9694 74.7688C59.9195 74.7767 59.8717 74.7947 59.8289 74.8217L59.2469 75.1628C59.2055 75.0151 59.1858 74.862 59.1884 74.7084C59.1895 74.6581 59.1808 74.6081 59.1628 74.5612C59.1448 74.5144 59.1179 74.4716 59.0836 74.4353C59.0493 74.399 59.0082 74.3699 58.9628 74.3498C58.9175 74.3296 58.8686 74.3188 58.819 74.3178H58.812C58.7134 74.3178 58.6186 74.3571 58.5482 74.4272C58.4778 74.4974 58.4373 74.5928 58.4355 74.693C58.4302 74.9859 58.4795 75.2772 58.581 75.5515L57.0733 76.4358V74.6685C57.3581 74.6207 57.6315 74.5185 57.8789 74.3673C57.9644 74.315 58.026 74.2303 58.05 74.1319C58.0741 74.0335 58.0586 73.9294 58.0071 73.8426C57.9555 73.7557 57.8721 73.6932 57.7752 73.6688C57.6783 73.6444 57.5757 73.6601 57.4902 73.7124C57.3605 73.7916 57.22 73.8508 57.0733 73.8881V73.31C57.0733 73.2086 57.0336 73.1114 56.963 73.0397C56.8924 72.968 56.7966 72.9277 56.6967 72.9277C56.5968 72.9277 56.5011 72.968 56.4305 73.0397C56.3598 73.1114 56.3202 73.2086 56.3202 73.31V73.8881C56.1734 73.8508 56.0329 73.7916 55.9032 73.7124C55.8177 73.6601 55.7152 73.6444 55.6182 73.6688C55.5213 73.6932 55.4379 73.7557 55.3863 73.8426C55.3348 73.9294 55.3193 74.0335 55.3434 74.1319C55.3674 74.2303 55.429 74.315 55.5145 74.3673C55.7619 74.5185 56.0353 74.6207 56.3202 74.6685V76.4358L54.8125 75.5515C54.914 75.2771 54.9635 74.9857 54.9583 74.6926C54.9564 74.5925 54.916 74.4971 54.8455 74.4269C54.7751 74.3567 54.6804 74.3174 54.5817 74.3175H54.5744C54.5249 74.3184 54.4761 74.3292 54.4308 74.3493C54.3855 74.3693 54.3445 74.3983 54.3102 74.4344C54.2758 74.4706 54.2489 74.5133 54.2308 74.56C54.2127 74.6068 54.2039 74.6567 54.2049 74.7069C54.2076 74.8606 54.1879 75.014 54.1465 75.1619L53.5646 74.8217C53.5217 74.7958 53.4742 74.7787 53.4248 74.7716C53.3754 74.7644 53.3251 74.7673 53.2768 74.7801C53.2285 74.7928 53.1832 74.8152 53.1435 74.8459C53.1038 74.8766 53.0705 74.915 53.0456 74.9589C53.0206 75.0027 53.0045 75.0512 52.9982 75.1014C52.9918 75.1517 52.9954 75.2027 53.0086 75.2515C53.0219 75.3004 53.0446 75.3461 53.0754 75.3859C53.1062 75.4258 53.1445 75.459 53.188 75.4837L53.7699 75.825C53.6646 75.9351 53.5438 76.0288 53.4115 76.103C53.3678 76.1271 53.3292 76.1596 53.298 76.1989C53.2667 76.2382 53.2434 76.2833 53.2295 76.3318C53.2155 76.3802 53.2111 76.431 53.2166 76.4811C53.222 76.5313 53.2372 76.5799 53.2613 76.6241C53.2853 76.6682 53.3177 76.7071 53.3567 76.7385C53.3956 76.7699 53.4403 76.7932 53.4881 76.8069C53.536 76.8207 53.586 76.8247 53.6354 76.8188C53.6847 76.8128 53.7325 76.797 53.7758 76.7722C54.0284 76.6302 54.2523 76.4409 54.4356 76.2144L55.9436 77.098L54.4359 77.9817C54.2526 77.7552 54.0288 77.5659 53.7761 77.4239C53.7328 77.3991 53.6851 77.3833 53.6357 77.3773C53.5863 77.3714 53.5363 77.3754 53.4885 77.3892C53.4406 77.4029 53.396 77.4262 53.357 77.4576C53.3181 77.489 53.2857 77.5279 53.2616 77.572C53.2376 77.6162 53.2224 77.6648 53.2169 77.715C53.2115 77.7651 53.2158 77.8159 53.2298 77.8644C53.2438 77.9128 53.2671 77.9579 53.2983 77.9972C53.3296 78.0365 53.3682 78.0691 53.4119 78.0931C53.5442 78.1673 53.6649 78.261 53.7703 78.3711L53.188 78.7139C53.1445 78.7386 53.1062 78.7719 53.0754 78.8117C53.0446 78.8516 53.0219 78.8973 53.0086 78.9461C52.9954 78.995 52.9918 79.046 52.9982 79.0962C53.0045 79.1465 53.0206 79.1949 53.0456 79.2388C53.0705 79.2827 53.1038 79.3211 53.1435 79.3518C53.1832 79.3825 53.2285 79.4048 53.2768 79.4176C53.3251 79.4304 53.3754 79.4332 53.4248 79.4261C53.4742 79.419 53.5217 79.4019 53.5646 79.376L54.1465 79.0349C54.1879 79.1826 54.2077 79.3357 54.205 79.4892C54.2033 79.5905 54.2412 79.6883 54.3105 79.7613C54.3797 79.8342 54.4746 79.8762 54.5744 79.8781H54.5814C54.6801 79.8781 54.7748 79.8388 54.8452 79.7687C54.9156 79.6985 54.9561 79.6031 54.9579 79.503C54.9632 79.21 54.9139 78.9187 54.8125 78.6444L56.3202 77.7602V79.5275C56.0353 79.5753 55.7619 79.6774 55.5145 79.8286C55.429 79.8809 55.3674 79.9656 55.3434 80.064C55.3193 80.1624 55.3348 80.2665 55.3863 80.3534C55.4379 80.4402 55.5213 80.5027 55.6182 80.5271C55.7152 80.5515 55.8177 80.5358 55.9032 80.4835C56.0329 80.4044 56.1734 80.3452 56.3202 80.3078V80.8859C56.3202 80.9873 56.3598 81.0845 56.4305 81.1562C56.5011 81.2279 56.5968 81.2682 56.6967 81.2682C56.7966 81.2682 56.8924 81.2279 56.963 81.1562C57.0336 81.0845 57.0733 80.9873 57.0733 80.8859V80.3078C57.22 80.3452 57.3605 80.4044 57.4902 80.4835C57.5757 80.5358 57.6783 80.5515 57.7752 80.5271C57.8721 80.5027 57.9555 80.4402 58.0071 80.3534C58.0586 80.2665 58.0741 80.1624 58.05 80.064C58.026 79.9656 57.9644 79.8809 57.8789 79.8286C57.6315 79.6774 57.3581 79.5753 57.0733 79.5275V77.7602L58.581 78.6444C58.4794 78.9188 58.4299 79.2102 58.4351 79.5033C58.437 79.6035 58.4775 79.6989 58.5479 79.769C58.6183 79.8392 58.713 79.8785 58.8117 79.8785H58.819C58.8685 79.8775 58.9173 79.8667 58.9626 79.8467C59.008 79.8266 59.049 79.7976 59.0833 79.7615C59.1176 79.7253 59.1445 79.6827 59.1626 79.6359C59.1807 79.5892 59.1895 79.5393 59.1886 79.4891C59.1858 79.3353 59.2055 79.1819 59.2469 79.034L59.8289 79.3751C59.8717 79.403 59.9197 79.4218 59.9699 79.4304C60.0201 79.439 60.0716 79.4371 60.121 79.4249C60.1705 79.4127 60.2171 79.3905 60.2579 79.3595C60.2986 79.3286 60.3328 79.2895 60.3583 79.2448C60.3838 79.2 60.4001 79.1505 60.4062 79.0991C60.4122 79.0478 60.408 78.9958 60.3937 78.9461C60.3794 78.8965 60.3554 78.8504 60.323 78.8104C60.2906 78.7705 60.2506 78.7377 60.2054 78.7139V78.7139Z" fill="#EAF1FF"/>
<path d="M182.205 138.714L181.623 138.373C181.729 138.263 181.85 138.169 181.982 138.095C182.068 138.045 182.132 137.963 182.159 137.866C182.186 137.769 182.175 137.665 182.127 137.577C182.078 137.489 181.998 137.423 181.903 137.395C181.807 137.366 181.705 137.377 181.618 137.426C181.365 137.567 181.141 137.757 180.958 137.983L179.45 137.098L180.958 136.214C181.141 136.441 181.365 136.63 181.617 136.772C181.661 136.797 181.708 136.813 181.758 136.819C181.807 136.825 181.857 136.821 181.905 136.807C181.953 136.793 181.997 136.77 182.036 136.738C182.075 136.707 182.108 136.668 182.132 136.624C182.156 136.58 182.171 136.531 182.177 136.481C182.182 136.431 182.178 136.38 182.164 136.332C182.15 136.283 182.126 136.238 182.095 136.199C182.064 136.159 182.025 136.127 181.982 136.103C181.849 136.029 181.728 135.935 181.623 135.825L182.205 135.484C182.25 135.459 182.289 135.426 182.321 135.387C182.352 135.347 182.376 135.301 182.39 135.251C182.403 135.202 182.407 135.151 182.401 135.1C182.395 135.049 182.379 135 182.354 134.955C182.328 134.911 182.295 134.872 182.254 134.841C182.214 134.81 182.168 134.788 182.119 134.776C182.07 134.763 182.019 134.761 181.969 134.769C181.92 134.777 181.872 134.795 181.829 134.822L181.247 135.163C181.205 135.015 181.186 134.862 181.188 134.708C181.189 134.658 181.181 134.608 181.163 134.561C181.145 134.514 181.118 134.472 181.084 134.435C181.049 134.399 181.008 134.37 180.963 134.35C180.917 134.33 180.869 134.319 180.819 134.318H180.812C180.713 134.318 180.619 134.357 180.548 134.427C180.478 134.497 180.437 134.593 180.435 134.693C180.43 134.986 180.48 135.277 180.581 135.552L179.073 136.436V134.668C179.358 134.621 179.631 134.518 179.879 134.367C179.964 134.315 180.026 134.23 180.05 134.132C180.074 134.033 180.059 133.929 180.007 133.843C179.956 133.756 179.872 133.693 179.775 133.669C179.678 133.644 179.576 133.66 179.49 133.712C179.361 133.792 179.22 133.851 179.073 133.888V133.31C179.073 133.209 179.034 133.111 178.963 133.04C178.892 132.968 178.797 132.928 178.697 132.928C178.597 132.928 178.501 132.968 178.43 133.04C178.36 133.111 178.32 133.209 178.32 133.31V133.888C178.173 133.851 178.033 133.792 177.903 133.712C177.818 133.66 177.715 133.644 177.618 133.669C177.521 133.693 177.438 133.756 177.386 133.843C177.335 133.929 177.319 134.033 177.343 134.132C177.367 134.23 177.429 134.315 177.515 134.367C177.762 134.518 178.035 134.621 178.32 134.668V136.436L176.812 135.552C176.914 135.277 176.964 134.986 176.958 134.693C176.956 134.592 176.916 134.497 176.846 134.427C176.775 134.357 176.68 134.317 176.582 134.317H176.574C176.525 134.318 176.476 134.329 176.431 134.349C176.385 134.369 176.344 134.398 176.31 134.434C176.276 134.471 176.249 134.513 176.231 134.56C176.213 134.607 176.204 134.657 176.205 134.707C176.208 134.861 176.188 135.014 176.146 135.162L175.565 134.822C175.522 134.796 175.474 134.779 175.425 134.772C175.375 134.764 175.325 134.767 175.277 134.78C175.229 134.793 175.183 134.815 175.144 134.846C175.104 134.877 175.071 134.915 175.046 134.959C175.021 135.003 175.005 135.051 174.998 135.101C174.992 135.152 174.995 135.203 175.009 135.252C175.022 135.3 175.045 135.346 175.075 135.386C175.106 135.426 175.144 135.459 175.188 135.484L175.77 135.825C175.665 135.935 175.544 136.029 175.412 136.103C175.368 136.127 175.329 136.16 175.298 136.199C175.267 136.238 175.243 136.283 175.229 136.332C175.215 136.38 175.211 136.431 175.217 136.481C175.222 136.531 175.237 136.58 175.261 136.624C175.285 136.668 175.318 136.707 175.357 136.739C175.396 136.77 175.44 136.793 175.488 136.807C175.536 136.821 175.586 136.825 175.635 136.819C175.685 136.813 175.732 136.797 175.776 136.772C176.028 136.63 176.252 136.441 176.436 136.214L177.944 137.098L176.436 137.982C176.253 137.755 176.029 137.566 175.776 137.424C175.733 137.399 175.685 137.383 175.636 137.377C175.586 137.371 175.536 137.375 175.488 137.389C175.441 137.403 175.396 137.426 175.357 137.458C175.318 137.489 175.286 137.528 175.262 137.572C175.238 137.616 175.222 137.665 175.217 137.715C175.211 137.765 175.216 137.816 175.23 137.864C175.244 137.913 175.267 137.958 175.298 137.997C175.33 138.036 175.368 138.069 175.412 138.093C175.544 138.167 175.665 138.261 175.77 138.371L175.188 138.714C175.144 138.739 175.106 138.772 175.075 138.812C175.045 138.852 175.022 138.897 175.009 138.946C174.995 138.995 174.992 139.046 174.998 139.096C175.005 139.146 175.021 139.195 175.046 139.239C175.071 139.283 175.104 139.321 175.144 139.352C175.183 139.382 175.229 139.405 175.277 139.418C175.325 139.43 175.375 139.433 175.425 139.426C175.474 139.419 175.522 139.402 175.565 139.376L176.146 139.035C176.188 139.183 176.208 139.336 176.205 139.489C176.203 139.591 176.241 139.688 176.31 139.761C176.38 139.834 176.475 139.876 176.574 139.878H176.581C176.68 139.878 176.775 139.839 176.845 139.769C176.916 139.699 176.956 139.603 176.958 139.503C176.963 139.21 176.914 138.919 176.812 138.644L178.32 137.76V139.527C178.035 139.575 177.762 139.677 177.515 139.829C177.429 139.881 177.367 139.966 177.343 140.064C177.319 140.162 177.335 140.267 177.386 140.353C177.438 140.44 177.521 140.503 177.618 140.527C177.715 140.552 177.818 140.536 177.903 140.483C178.033 140.404 178.173 140.345 178.32 140.308V140.886C178.32 140.987 178.36 141.085 178.43 141.156C178.501 141.228 178.597 141.268 178.697 141.268C178.797 141.268 178.892 141.228 178.963 141.156C179.034 141.085 179.073 140.987 179.073 140.886V140.308C179.22 140.345 179.361 140.404 179.49 140.483C179.576 140.536 179.678 140.552 179.775 140.527C179.872 140.503 179.956 140.44 180.007 140.353C180.059 140.267 180.074 140.162 180.05 140.064C180.026 139.966 179.964 139.881 179.879 139.829C179.631 139.677 179.358 139.575 179.073 139.527V137.76L180.581 138.644C180.479 138.919 180.43 139.21 180.435 139.503C180.437 139.603 180.477 139.699 180.548 139.769C180.618 139.839 180.713 139.878 180.812 139.878H180.819C180.868 139.878 180.917 139.867 180.963 139.847C181.008 139.827 181.049 139.798 181.083 139.761C181.118 139.725 181.145 139.683 181.163 139.636C181.181 139.589 181.19 139.539 181.189 139.489C181.186 139.335 181.205 139.182 181.247 139.034L181.829 139.375C181.872 139.403 181.92 139.422 181.97 139.43C182.02 139.439 182.072 139.437 182.121 139.425C182.171 139.413 182.217 139.39 182.258 139.36C182.299 139.329 182.333 139.29 182.358 139.245C182.384 139.2 182.4 139.15 182.406 139.099C182.412 139.048 182.408 138.996 182.394 138.946C182.379 138.897 182.355 138.85 182.323 138.81C182.291 138.771 182.251 138.738 182.205 138.714V138.714Z" fill="#EAF1FF"/>
<path d="M298.205 78.7139L297.623 78.3727C297.729 78.2626 297.85 78.1689 297.982 78.0947C298.068 78.0451 298.132 77.9629 298.159 77.8659C298.186 77.7689 298.175 77.665 298.127 77.5768C298.078 77.4885 297.998 77.4231 297.903 77.3948C297.807 77.3665 297.705 77.3775 297.618 77.4255C297.365 77.5675 297.141 77.7567 296.958 77.9833L295.45 77.098L296.958 76.2142C297.141 76.4408 297.365 76.6301 297.617 76.772C297.661 76.7968 297.708 76.8126 297.758 76.8186C297.807 76.8246 297.857 76.8205 297.905 76.8068C297.953 76.793 297.997 76.7698 298.036 76.7384C298.075 76.707 298.108 76.6681 298.132 76.6239C298.156 76.5797 298.171 76.5311 298.177 76.481C298.182 76.4308 298.178 76.38 298.164 76.3316C298.15 76.2831 298.126 76.238 298.095 76.1987C298.064 76.1595 298.025 76.1269 297.982 76.1028C297.849 76.0286 297.728 75.9349 297.623 75.8248L298.205 75.4836C298.25 75.4594 298.289 75.4264 298.321 75.3865C298.352 75.3467 298.376 75.3007 298.39 75.2514C298.403 75.2022 298.407 75.1506 298.401 75.0997C298.395 75.0489 298.379 74.9998 298.354 74.9554C298.328 74.911 298.295 74.8722 298.254 74.8414C298.214 74.8105 298.168 74.7881 298.119 74.7757C298.07 74.7632 298.019 74.7609 297.969 74.7688C297.92 74.7767 297.872 74.7947 297.829 74.8217L297.247 75.1628C297.205 75.0151 297.186 74.862 297.188 74.7084C297.189 74.6581 297.181 74.6081 297.163 74.5612C297.145 74.5144 297.118 74.4716 297.084 74.4353C297.049 74.399 297.008 74.3699 296.963 74.3498C296.917 74.3296 296.869 74.3188 296.819 74.3178H296.812C296.713 74.3178 296.619 74.3571 296.548 74.4272C296.478 74.4974 296.437 74.5928 296.435 74.693C296.43 74.9859 296.48 75.2772 296.581 75.5515L295.073 76.4358V74.6685C295.358 74.6207 295.631 74.5185 295.879 74.3673C295.964 74.315 296.026 74.2303 296.05 74.1319C296.074 74.0335 296.059 73.9294 296.007 73.8426C295.956 73.7557 295.872 73.6932 295.775 73.6688C295.678 73.6444 295.576 73.6601 295.49 73.7124C295.361 73.7916 295.22 73.8508 295.073 73.8881V73.31C295.073 73.2086 295.034 73.1114 294.963 73.0397C294.892 72.968 294.797 72.9277 294.697 72.9277C294.597 72.9277 294.501 72.968 294.43 73.0397C294.36 73.1114 294.32 73.2086 294.32 73.31V73.8881C294.173 73.8508 294.033 73.7916 293.903 73.7124C293.818 73.6601 293.715 73.6444 293.618 73.6688C293.521 73.6932 293.438 73.7557 293.386 73.8426C293.335 73.9294 293.319 74.0335 293.343 74.1319C293.367 74.2303 293.429 74.315 293.515 74.3673C293.762 74.5185 294.035 74.6207 294.32 74.6685V76.4358L292.812 75.5515C292.914 75.2771 292.964 74.9857 292.958 74.6926C292.956 74.5925 292.916 74.4971 292.846 74.4269C292.775 74.3567 292.68 74.3174 292.582 74.3175H292.574C292.525 74.3184 292.476 74.3292 292.431 74.3493C292.385 74.3693 292.344 74.3983 292.31 74.4344C292.276 74.4706 292.249 74.5133 292.231 74.56C292.213 74.6068 292.204 74.6567 292.205 74.7069C292.208 74.8606 292.188 75.014 292.146 75.1619L291.565 74.8217C291.522 74.7958 291.474 74.7787 291.425 74.7716C291.375 74.7644 291.325 74.7673 291.277 74.7801C291.229 74.7928 291.183 74.8152 291.144 74.8459C291.104 74.8766 291.071 74.915 291.046 74.9589C291.021 75.0027 291.005 75.0512 290.998 75.1014C290.992 75.1517 290.995 75.2027 291.009 75.2515C291.022 75.3004 291.045 75.3461 291.075 75.3859C291.106 75.4258 291.144 75.459 291.188 75.4837L291.77 75.825C291.665 75.9351 291.544 76.0288 291.412 76.103C291.368 76.1271 291.329 76.1596 291.298 76.1989C291.267 76.2382 291.243 76.2833 291.229 76.3318C291.215 76.3802 291.211 76.431 291.217 76.4811C291.222 76.5313 291.237 76.5799 291.261 76.6241C291.285 76.6682 291.318 76.7071 291.357 76.7385C291.396 76.7699 291.44 76.7932 291.488 76.8069C291.536 76.8207 291.586 76.8247 291.635 76.8188C291.685 76.8128 291.732 76.797 291.776 76.7722C292.028 76.6302 292.252 76.4409 292.436 76.2144L293.944 77.098L292.436 77.9817C292.253 77.7552 292.029 77.5659 291.776 77.4239C291.733 77.3991 291.685 77.3833 291.636 77.3773C291.586 77.3714 291.536 77.3754 291.488 77.3892C291.441 77.4029 291.396 77.4262 291.357 77.4576C291.318 77.489 291.286 77.5279 291.262 77.572C291.238 77.6162 291.222 77.6648 291.217 77.715C291.211 77.7651 291.216 77.8159 291.23 77.8644C291.244 77.9128 291.267 77.9579 291.298 77.9972C291.33 78.0365 291.368 78.0691 291.412 78.0931C291.544 78.1673 291.665 78.261 291.77 78.3711L291.188 78.7139C291.144 78.7386 291.106 78.7719 291.075 78.8117C291.045 78.8516 291.022 78.8973 291.009 78.9461C290.995 78.995 290.992 79.046 290.998 79.0962C291.005 79.1465 291.021 79.1949 291.046 79.2388C291.071 79.2827 291.104 79.3211 291.144 79.3518C291.183 79.3825 291.229 79.4048 291.277 79.4176C291.325 79.4304 291.375 79.4332 291.425 79.4261C291.474 79.419 291.522 79.4019 291.565 79.376L292.146 79.0349C292.188 79.1826 292.208 79.3357 292.205 79.4892C292.203 79.5905 292.241 79.6883 292.31 79.7613C292.38 79.8342 292.475 79.8762 292.574 79.8781H292.581C292.68 79.8781 292.775 79.8388 292.845 79.7687C292.916 79.6985 292.956 79.6031 292.958 79.503C292.963 79.21 292.914 78.9187 292.812 78.6444L294.32 77.7602V79.5275C294.035 79.5753 293.762 79.6774 293.515 79.8286C293.429 79.8809 293.367 79.9656 293.343 80.064C293.319 80.1624 293.335 80.2665 293.386 80.3534C293.438 80.4402 293.521 80.5027 293.618 80.5271C293.715 80.5515 293.818 80.5358 293.903 80.4835C294.033 80.4044 294.173 80.3452 294.32 80.3078V80.8859C294.32 80.9873 294.36 81.0845 294.43 81.1562C294.501 81.2279 294.597 81.2682 294.697 81.2682C294.797 81.2682 294.892 81.2279 294.963 81.1562C295.034 81.0845 295.073 80.9873 295.073 80.8859V80.3078C295.22 80.3452 295.361 80.4044 295.49 80.4835C295.576 80.5358 295.678 80.5515 295.775 80.5271C295.872 80.5027 295.956 80.4402 296.007 80.3534C296.059 80.2665 296.074 80.1624 296.05 80.064C296.026 79.9656 295.964 79.8809 295.879 79.8286C295.631 79.6774 295.358 79.5753 295.073 79.5275V77.7602L296.581 78.6444C296.479 78.9188 296.43 79.2102 296.435 79.5033C296.437 79.6035 296.477 79.6989 296.548 79.769C296.618 79.8392 296.713 79.8785 296.812 79.8785H296.819C296.868 79.8775 296.917 79.8667 296.963 79.8467C297.008 79.8266 297.049 79.7976 297.083 79.7615C297.118 79.7253 297.145 79.6827 297.163 79.6359C297.181 79.5892 297.19 79.5393 297.189 79.4891C297.186 79.3353 297.205 79.1819 297.247 79.034L297.829 79.3751C297.872 79.403 297.92 79.4218 297.97 79.4304C298.02 79.439 298.072 79.4371 298.121 79.4249C298.171 79.4127 298.217 79.3905 298.258 79.3595C298.299 79.3286 298.333 79.2895 298.358 79.2448C298.384 79.2 298.4 79.1505 298.406 79.0991C298.412 79.0478 298.408 78.9958 298.394 78.9461C298.379 78.8965 298.355 78.8504 298.323 78.8104C298.291 78.7705 298.251 78.7377 298.205 78.7139V78.7139Z" fill="#EAF1FF"/>
<path d="M101.908 177.255L101.326 176.914C101.431 176.804 101.552 176.71 101.685 176.636C101.771 176.586 101.835 176.504 101.862 176.407C101.889 176.31 101.877 176.206 101.829 176.118C101.781 176.03 101.701 175.964 101.605 175.936C101.51 175.907 101.408 175.919 101.32 175.967C101.068 176.108 100.844 176.298 100.66 176.524L99.1524 175.639L100.66 174.755C100.843 174.982 101.067 175.171 101.32 175.313C101.363 175.338 101.411 175.354 101.46 175.36C101.51 175.366 101.56 175.362 101.608 175.348C101.655 175.334 101.7 175.311 101.739 175.279C101.778 175.248 101.81 175.209 101.834 175.165C101.859 175.121 101.874 175.072 101.879 175.022C101.885 174.972 101.88 174.921 101.866 174.873C101.852 174.824 101.829 174.779 101.798 174.74C101.766 174.7 101.728 174.668 101.684 174.644C101.552 174.57 101.431 174.476 101.326 174.366L101.908 174.025C101.952 174 101.991 173.967 102.023 173.928C102.055 173.888 102.078 173.842 102.092 173.792C102.106 173.743 102.11 173.692 102.104 173.641C102.098 173.59 102.082 173.541 102.056 173.496C102.031 173.452 101.997 173.413 101.957 173.382C101.917 173.351 101.871 173.329 101.822 173.317C101.773 173.304 101.722 173.302 101.672 173.31C101.622 173.318 101.574 173.336 101.532 173.363L100.95 173.704C100.908 173.556 100.888 173.403 100.891 173.249C100.892 173.199 100.883 173.149 100.865 173.102C100.847 173.055 100.821 173.013 100.786 172.976C100.752 172.94 100.711 172.911 100.665 172.891C100.62 172.871 100.571 172.86 100.522 172.859H100.515C100.416 172.859 100.321 172.898 100.251 172.968C100.18 173.038 100.14 173.134 100.138 173.234C100.133 173.527 100.182 173.818 100.284 174.093L98.7759 174.977V173.209C99.0608 173.162 99.3341 173.059 99.5815 172.908C99.6671 172.856 99.7286 172.771 99.7527 172.673C99.7767 172.575 99.7613 172.47 99.7097 172.384C99.6582 172.297 99.5748 172.234 99.4778 172.21C99.3809 172.185 99.2784 172.201 99.1928 172.253C99.0632 172.333 98.9227 172.392 98.7759 172.429V171.851C98.7759 171.75 98.7362 171.652 98.6656 171.581C98.595 171.509 98.4992 171.469 98.3994 171.469C98.2995 171.469 98.2037 171.509 98.1331 171.581C98.0625 171.652 98.0228 171.75 98.0228 171.851V172.429C97.8761 172.392 97.7355 172.333 97.6059 172.253C97.5203 172.201 97.4178 172.185 97.3209 172.21C97.2239 172.234 97.1405 172.297 97.089 172.384C97.0374 172.47 97.022 172.575 97.046 172.673C97.0701 172.771 97.1316 172.856 97.2172 172.908C97.4646 173.059 97.7379 173.162 98.0228 173.209V174.977L96.5151 174.093C96.6167 173.818 96.6662 173.527 96.6609 173.234C96.6591 173.133 96.6186 173.038 96.5482 172.968C96.4778 172.898 96.383 172.858 96.2844 172.858H96.277C96.2276 172.859 96.1788 172.87 96.1334 172.89C96.0881 172.91 96.0471 172.939 96.0128 172.975C95.9785 173.012 95.9515 173.054 95.9335 173.101C95.9154 173.148 95.9066 173.198 95.9075 173.248C95.9103 173.402 95.8906 173.555 95.8491 173.703L95.2672 173.363C95.2243 173.337 95.1768 173.32 95.1274 173.313C95.078 173.305 95.0277 173.308 94.9794 173.321C94.9312 173.334 94.8858 173.356 94.8462 173.387C94.8065 173.418 94.7732 173.456 94.7482 173.5C94.7233 173.544 94.7071 173.592 94.7008 173.642C94.6945 173.693 94.698 173.744 94.7113 173.793C94.7245 173.841 94.7472 173.887 94.778 173.927C94.8088 173.967 94.8471 174 94.8907 174.025L95.4726 174.366C95.3672 174.476 95.2465 174.57 95.1142 174.644C95.0705 174.668 95.0319 174.701 95.0006 174.74C94.9694 174.779 94.9461 174.824 94.9321 174.873C94.9181 174.921 94.9138 174.972 94.9192 175.022C94.9247 175.072 94.9399 175.121 94.9639 175.165C94.9879 175.209 95.0204 175.248 95.0593 175.28C95.0982 175.311 95.1429 175.334 95.1908 175.348C95.2386 175.362 95.2886 175.366 95.338 175.36C95.3874 175.354 95.4351 175.338 95.4784 175.313C95.7311 175.171 95.9549 174.982 96.1382 174.755L97.6463 175.639L96.1386 176.523C95.9553 176.296 95.7314 176.107 95.4787 175.965C95.4354 175.94 95.3877 175.924 95.3383 175.918C95.289 175.912 95.2389 175.916 95.1911 175.93C95.1433 175.944 95.0986 175.967 95.0597 175.999C95.0207 176.03 94.9883 176.069 94.9642 176.113C94.9402 176.157 94.925 176.206 94.9196 176.256C94.9141 176.306 94.9185 176.357 94.9324 176.405C94.9464 176.454 94.9697 176.499 95.001 176.538C95.0322 176.577 95.0708 176.61 95.1145 176.634C95.2468 176.708 95.3676 176.802 95.4729 176.912L94.8907 177.255C94.8471 177.28 94.8088 177.313 94.778 177.353C94.7472 177.393 94.7245 177.438 94.7113 177.487C94.698 177.536 94.6945 177.587 94.7008 177.637C94.7071 177.687 94.7233 177.736 94.7482 177.78C94.7732 177.824 94.8065 177.862 94.8462 177.893C94.8858 177.923 94.9312 177.946 94.9794 177.959C95.0277 177.971 95.078 177.974 95.1274 177.967C95.1768 177.96 95.2243 177.943 95.2672 177.917L95.8491 177.576C95.8906 177.724 95.9103 177.877 95.9077 178.03C95.9059 178.132 95.9438 178.229 96.0131 178.302C96.0823 178.375 96.1773 178.417 96.277 178.419H96.284C96.3827 178.419 96.4774 178.38 96.5478 178.31C96.6183 178.24 96.6587 178.144 96.6606 178.044C96.6659 177.751 96.6165 177.46 96.5151 177.185L98.0228 176.301V178.068C97.7379 178.116 97.4646 178.218 97.2172 178.37C97.1316 178.422 97.0701 178.507 97.046 178.605C97.022 178.703 97.0374 178.808 97.089 178.894C97.1405 178.981 97.2239 179.044 97.3209 179.068C97.4178 179.093 97.5203 179.077 97.6059 179.025C97.7355 178.945 97.8761 178.886 98.0228 178.849V179.427C98.0228 179.528 98.0625 179.626 98.1331 179.697C98.2037 179.769 98.2995 179.809 98.3994 179.809C98.4992 179.809 98.595 179.769 98.6656 179.697C98.7362 179.626 98.7759 179.528 98.7759 179.427V178.849C98.9227 178.886 99.0632 178.945 99.1928 179.025C99.2784 179.077 99.3809 179.093 99.4778 179.068C99.5748 179.044 99.6582 178.981 99.7097 178.894C99.7613 178.808 99.7767 178.703 99.7527 178.605C99.7286 178.507 99.6671 178.422 99.5815 178.37C99.3341 178.218 99.0608 178.116 98.7759 178.068V176.301L100.284 177.185C100.182 177.46 100.133 177.751 100.138 178.044C100.14 178.144 100.18 178.24 100.251 178.31C100.321 178.38 100.416 178.419 100.514 178.419H100.522C100.571 178.419 100.62 178.408 100.665 178.388C100.711 178.368 100.752 178.339 100.786 178.302C100.82 178.266 100.847 178.224 100.865 178.177C100.883 178.13 100.892 178.08 100.891 178.03C100.888 177.876 100.908 177.723 100.95 177.575L101.532 177.916C101.574 177.944 101.622 177.963 101.673 177.971C101.723 177.98 101.774 177.978 101.824 177.966C101.873 177.954 101.92 177.932 101.96 177.901C102.001 177.87 102.035 177.831 102.061 177.786C102.086 177.741 102.103 177.691 102.109 177.64C102.115 177.589 102.111 177.537 102.096 177.487C102.082 177.438 102.058 177.391 102.026 177.351C101.993 177.312 101.953 177.279 101.908 177.255V177.255Z" fill="#EAF1FF"/>
<path d="M223.908 237.255L223.326 236.914C223.431 236.804 223.552 236.71 223.685 236.636C223.771 236.586 223.835 236.504 223.862 236.407C223.889 236.31 223.877 236.206 223.829 236.118C223.781 236.03 223.701 235.964 223.605 235.936C223.51 235.907 223.408 235.919 223.32 235.967C223.068 236.108 222.844 236.298 222.66 236.524L221.152 235.639L222.66 234.755C222.843 234.982 223.067 235.171 223.32 235.313C223.363 235.338 223.411 235.354 223.46 235.36C223.51 235.366 223.56 235.362 223.608 235.348C223.655 235.334 223.7 235.311 223.739 235.279C223.778 235.248 223.81 235.209 223.834 235.165C223.859 235.121 223.874 235.072 223.879 235.022C223.885 234.972 223.88 234.921 223.866 234.873C223.852 234.824 223.829 234.779 223.798 234.74C223.766 234.7 223.728 234.668 223.684 234.644C223.552 234.57 223.431 234.476 223.326 234.366L223.908 234.025C223.952 234 223.991 233.967 224.023 233.928C224.055 233.888 224.078 233.842 224.092 233.792C224.106 233.743 224.11 233.692 224.104 233.641C224.098 233.59 224.082 233.541 224.056 233.496C224.031 233.452 223.997 233.413 223.957 233.382C223.917 233.351 223.871 233.329 223.822 233.317C223.773 233.304 223.722 233.302 223.672 233.31C223.622 233.318 223.574 233.336 223.532 233.363L222.95 233.704C222.908 233.556 222.888 233.403 222.891 233.249C222.892 233.199 222.883 233.149 222.865 233.102C222.847 233.055 222.821 233.013 222.786 232.976C222.752 232.94 222.711 232.911 222.665 232.891C222.62 232.871 222.571 232.86 222.522 232.859H222.515C222.416 232.859 222.321 232.898 222.251 232.968C222.18 233.038 222.14 233.134 222.138 233.234C222.133 233.527 222.182 233.818 222.284 234.093L220.776 234.977V233.209C221.061 233.162 221.334 233.059 221.582 232.908C221.667 232.856 221.729 232.771 221.753 232.673C221.777 232.575 221.761 232.47 221.71 232.384C221.658 232.297 221.575 232.234 221.478 232.21C221.381 232.185 221.278 232.201 221.193 232.253C221.063 232.333 220.923 232.392 220.776 232.429V231.851C220.776 231.75 220.736 231.652 220.666 231.581C220.595 231.509 220.499 231.469 220.399 231.469C220.299 231.469 220.204 231.509 220.133 231.581C220.062 231.652 220.023 231.75 220.023 231.851V232.429C219.876 232.392 219.736 232.333 219.606 232.253C219.52 232.201 219.418 232.185 219.321 232.21C219.224 232.234 219.141 232.297 219.089 232.384C219.037 232.47 219.022 232.575 219.046 232.673C219.07 232.771 219.132 232.856 219.217 232.908C219.465 233.059 219.738 233.162 220.023 233.209V234.977L218.515 234.093C218.617 233.818 218.666 233.527 218.661 233.234C218.659 233.133 218.619 233.038 218.548 232.968C218.478 232.898 218.383 232.858 218.284 232.858H218.277C218.228 232.859 218.179 232.87 218.133 232.89C218.088 232.91 218.047 232.939 218.013 232.975C217.978 233.012 217.952 233.054 217.933 233.101C217.915 233.148 217.907 233.198 217.907 233.248C217.91 233.402 217.891 233.555 217.849 233.703L217.267 233.363C217.224 233.337 217.177 233.32 217.127 233.313C217.078 233.305 217.028 233.308 216.979 233.321C216.931 233.334 216.886 233.356 216.846 233.387C216.806 233.418 216.773 233.456 216.748 233.5C216.723 233.544 216.707 233.592 216.701 233.642C216.694 233.693 216.698 233.744 216.711 233.793C216.725 233.841 216.747 233.887 216.778 233.927C216.809 233.967 216.847 234 216.891 234.025L217.473 234.366C217.367 234.476 217.246 234.57 217.114 234.644C217.07 234.668 217.032 234.701 217.001 234.74C216.969 234.779 216.946 234.824 216.932 234.873C216.918 234.921 216.914 234.972 216.919 235.022C216.925 235.072 216.94 235.121 216.964 235.165C216.988 235.209 217.02 235.248 217.059 235.28C217.098 235.311 217.143 235.334 217.191 235.348C217.239 235.362 217.289 235.366 217.338 235.36C217.387 235.354 217.435 235.338 217.478 235.313C217.731 235.171 217.955 234.982 218.138 234.755L219.646 235.639L218.139 236.523C217.955 236.296 217.731 236.107 217.479 235.965C217.435 235.94 217.388 235.924 217.338 235.918C217.289 235.912 217.239 235.916 217.191 235.93C217.143 235.944 217.099 235.967 217.06 235.999C217.021 236.03 216.988 236.069 216.964 236.113C216.94 236.157 216.925 236.206 216.92 236.256C216.914 236.306 216.918 236.357 216.932 236.405C216.946 236.454 216.97 236.499 217.001 236.538C217.032 236.577 217.071 236.61 217.115 236.634C217.247 236.708 217.368 236.802 217.473 236.912L216.891 237.255C216.847 237.28 216.809 237.313 216.778 237.353C216.747 237.393 216.725 237.438 216.711 237.487C216.698 237.536 216.694 237.587 216.701 237.637C216.707 237.687 216.723 237.736 216.748 237.78C216.773 237.824 216.806 237.862 216.846 237.893C216.886 237.923 216.931 237.946 216.979 237.959C217.028 237.971 217.078 237.974 217.127 237.967C217.177 237.96 217.224 237.943 217.267 237.917L217.849 237.576C217.891 237.724 217.91 237.877 217.908 238.03C217.906 238.132 217.944 238.229 218.013 238.302C218.082 238.375 218.177 238.417 218.277 238.419H218.284C218.383 238.419 218.477 238.38 218.548 238.31C218.618 238.24 218.659 238.144 218.661 238.044C218.666 237.751 218.617 237.46 218.515 237.185L220.023 236.301V238.068C219.738 238.116 219.465 238.218 219.217 238.37C219.132 238.422 219.07 238.507 219.046 238.605C219.022 238.703 219.037 238.808 219.089 238.894C219.141 238.981 219.224 239.044 219.321 239.068C219.418 239.093 219.52 239.077 219.606 239.025C219.736 238.945 219.876 238.886 220.023 238.849V239.427C220.023 239.528 220.062 239.626 220.133 239.697C220.204 239.769 220.299 239.809 220.399 239.809C220.499 239.809 220.595 239.769 220.666 239.697C220.736 239.626 220.776 239.528 220.776 239.427V238.849C220.923 238.886 221.063 238.945 221.193 239.025C221.278 239.077 221.381 239.093 221.478 239.068C221.575 239.044 221.658 238.981 221.71 238.894C221.761 238.808 221.777 238.703 221.753 238.605C221.729 238.507 221.667 238.422 221.582 238.37C221.334 238.218 221.061 238.116 220.776 238.068V236.301L222.284 237.185C222.182 237.46 222.133 237.751 222.138 238.044C222.14 238.144 222.18 238.24 222.251 238.31C222.321 238.38 222.416 238.419 222.514 238.419H222.522C222.571 238.419 222.62 238.408 222.665 238.388C222.711 238.368 222.752 238.339 222.786 238.302C222.82 238.266 222.847 238.224 222.865 238.177C222.883 238.13 222.892 238.08 222.891 238.03C222.888 237.876 222.908 237.723 222.95 237.575L223.532 237.916C223.574 237.944 223.622 237.963 223.673 237.971C223.723 237.98 223.774 237.978 223.824 237.966C223.873 237.954 223.92 237.932 223.96 237.901C224.001 237.87 224.035 237.831 224.061 237.786C224.086 237.741 224.103 237.691 224.109 237.64C224.115 237.589 224.111 237.537 224.096 237.487C224.082 237.438 224.058 237.391 224.026 237.351C223.993 237.312 223.953 237.279 223.908 237.255V237.255Z" fill="#EAF1FF"/>
<path d="M339.908 177.255L339.326 176.914C339.431 176.804 339.552 176.71 339.685 176.636C339.771 176.586 339.835 176.504 339.862 176.407C339.889 176.31 339.877 176.206 339.829 176.118C339.781 176.03 339.701 175.964 339.605 175.936C339.51 175.907 339.408 175.919 339.32 175.967C339.068 176.108 338.844 176.298 338.66 176.524L337.152 175.639L338.66 174.755C338.843 174.982 339.067 175.171 339.32 175.313C339.363 175.338 339.411 175.354 339.46 175.36C339.51 175.366 339.56 175.362 339.608 175.348C339.655 175.334 339.7 175.311 339.739 175.279C339.778 175.248 339.81 175.209 339.834 175.165C339.859 175.121 339.874 175.072 339.879 175.022C339.885 174.972 339.88 174.921 339.866 174.873C339.852 174.824 339.829 174.779 339.798 174.74C339.766 174.7 339.728 174.668 339.684 174.644C339.552 174.57 339.431 174.476 339.326 174.366L339.908 174.025C339.952 174 339.991 173.967 340.023 173.928C340.055 173.888 340.078 173.842 340.092 173.792C340.106 173.743 340.11 173.692 340.104 173.641C340.098 173.59 340.082 173.541 340.056 173.496C340.031 173.452 339.997 173.413 339.957 173.382C339.917 173.351 339.871 173.329 339.822 173.317C339.773 173.304 339.722 173.302 339.672 173.31C339.622 173.318 339.574 173.336 339.532 173.363L338.95 173.704C338.908 173.556 338.888 173.403 338.891 173.249C338.892 173.199 338.883 173.149 338.865 173.102C338.847 173.055 338.821 173.013 338.786 172.976C338.752 172.94 338.711 172.911 338.665 172.891C338.62 172.871 338.571 172.86 338.522 172.859H338.515C338.416 172.859 338.321 172.898 338.251 172.968C338.18 173.038 338.14 173.134 338.138 173.234C338.133 173.527 338.182 173.818 338.284 174.093L336.776 174.977V173.209C337.061 173.162 337.334 173.059 337.582 172.908C337.667 172.856 337.729 172.771 337.753 172.673C337.777 172.575 337.761 172.47 337.71 172.384C337.658 172.297 337.575 172.234 337.478 172.21C337.381 172.185 337.278 172.201 337.193 172.253C337.063 172.333 336.923 172.392 336.776 172.429V171.851C336.776 171.75 336.736 171.652 336.666 171.581C336.595 171.509 336.499 171.469 336.399 171.469C336.299 171.469 336.204 171.509 336.133 171.581C336.062 171.652 336.023 171.75 336.023 171.851V172.429C335.876 172.392 335.736 172.333 335.606 172.253C335.52 172.201 335.418 172.185 335.321 172.21C335.224 172.234 335.141 172.297 335.089 172.384C335.037 172.47 335.022 172.575 335.046 172.673C335.07 172.771 335.132 172.856 335.217 172.908C335.465 173.059 335.738 173.162 336.023 173.209V174.977L334.515 174.093C334.617 173.818 334.666 173.527 334.661 173.234C334.659 173.133 334.619 173.038 334.548 172.968C334.478 172.898 334.383 172.858 334.284 172.858H334.277C334.228 172.859 334.179 172.87 334.133 172.89C334.088 172.91 334.047 172.939 334.013 172.975C333.978 173.012 333.952 173.054 333.933 173.101C333.915 173.148 333.907 173.198 333.907 173.248C333.91 173.402 333.891 173.555 333.849 173.703L333.267 173.363C333.224 173.337 333.177 173.32 333.127 173.313C333.078 173.305 333.028 173.308 332.979 173.321C332.931 173.334 332.886 173.356 332.846 173.387C332.806 173.418 332.773 173.456 332.748 173.5C332.723 173.544 332.707 173.592 332.701 173.642C332.694 173.693 332.698 173.744 332.711 173.793C332.725 173.841 332.747 173.887 332.778 173.927C332.809 173.967 332.847 174 332.891 174.025L333.473 174.366C333.367 174.476 333.246 174.57 333.114 174.644C333.07 174.668 333.032 174.701 333.001 174.74C332.969 174.779 332.946 174.824 332.932 174.873C332.918 174.921 332.914 174.972 332.919 175.022C332.925 175.072 332.94 175.121 332.964 175.165C332.988 175.209 333.02 175.248 333.059 175.28C333.098 175.311 333.143 175.334 333.191 175.348C333.239 175.362 333.289 175.366 333.338 175.36C333.387 175.354 333.435 175.338 333.478 175.313C333.731 175.171 333.955 174.982 334.138 174.755L335.646 175.639L334.139 176.523C333.955 176.296 333.731 176.107 333.479 175.965C333.435 175.94 333.388 175.924 333.338 175.918C333.289 175.912 333.239 175.916 333.191 175.93C333.143 175.944 333.099 175.967 333.06 175.999C333.021 176.03 332.988 176.069 332.964 176.113C332.94 176.157 332.925 176.206 332.92 176.256C332.914 176.306 332.918 176.357 332.932 176.405C332.946 176.454 332.97 176.499 333.001 176.538C333.032 176.577 333.071 176.61 333.115 176.634C333.247 176.708 333.368 176.802 333.473 176.912L332.891 177.255C332.847 177.28 332.809 177.313 332.778 177.353C332.747 177.393 332.725 177.438 332.711 177.487C332.698 177.536 332.694 177.587 332.701 177.637C332.707 177.687 332.723 177.736 332.748 177.78C332.773 177.824 332.806 177.862 332.846 177.893C332.886 177.923 332.931 177.946 332.979 177.959C333.028 177.971 333.078 177.974 333.127 177.967C333.177 177.96 333.224 177.943 333.267 177.917L333.849 177.576C333.891 177.724 333.91 177.877 333.908 178.03C333.906 178.132 333.944 178.229 334.013 178.302C334.082 178.375 334.177 178.417 334.277 178.419H334.284C334.383 178.419 334.477 178.38 334.548 178.31C334.618 178.24 334.659 178.144 334.661 178.044C334.666 177.751 334.617 177.46 334.515 177.185L336.023 176.301V178.068C335.738 178.116 335.465 178.218 335.217 178.37C335.132 178.422 335.07 178.507 335.046 178.605C335.022 178.703 335.037 178.808 335.089 178.894C335.141 178.981 335.224 179.044 335.321 179.068C335.418 179.093 335.52 179.077 335.606 179.025C335.736 178.945 335.876 178.886 336.023 178.849V179.427C336.023 179.528 336.062 179.626 336.133 179.697C336.204 179.769 336.299 179.809 336.399 179.809C336.499 179.809 336.595 179.769 336.666 179.697C336.736 179.626 336.776 179.528 336.776 179.427V178.849C336.923 178.886 337.063 178.945 337.193 179.025C337.278 179.077 337.381 179.093 337.478 179.068C337.575 179.044 337.658 178.981 337.71 178.894C337.761 178.808 337.777 178.703 337.753 178.605C337.729 178.507 337.667 178.422 337.582 178.37C337.334 178.218 337.061 178.116 336.776 178.068V176.301L338.284 177.185C338.182 177.46 338.133 177.751 338.138 178.044C338.14 178.144 338.18 178.24 338.251 178.31C338.321 178.38 338.416 178.419 338.514 178.419H338.522C338.571 178.419 338.62 178.408 338.665 178.388C338.711 178.368 338.752 178.339 338.786 178.302C338.82 178.266 338.847 178.224 338.865 178.177C338.883 178.13 338.892 178.08 338.891 178.03C338.888 177.876 338.908 177.723 338.95 177.575L339.532 177.916C339.574 177.944 339.622 177.963 339.673 177.971C339.723 177.98 339.774 177.978 339.824 177.966C339.873 177.954 339.92 177.932 339.96 177.901C340.001 177.87 340.035 177.831 340.061 177.786C340.086 177.741 340.103 177.691 340.109 177.64C340.115 177.589 340.111 177.537 340.096 177.487C340.082 177.438 340.058 177.391 340.026 177.351C339.993 177.312 339.953 177.279 339.908 177.255V177.255Z" fill="#EAF1FF"/>
<path d="M105.34 57.1576H103.596L105.022 55.743C105.124 55.6408 105.205 55.5194 105.26 55.3858C105.316 55.2522 105.344 55.109 105.344 54.9644C105.344 54.8198 105.316 54.6766 105.26 54.543C105.205 54.4094 105.124 54.288 105.022 54.1858C104.919 54.0836 104.798 54.0024 104.664 53.9471C104.531 53.8918 104.388 53.8633 104.243 53.8633C104.098 53.8633 103.955 53.8918 103.822 53.9471C103.688 54.0024 103.567 54.0836 103.464 54.1858L100.504 57.1576H98.1129L100.635 54.6464C100.737 54.5441 100.818 54.4227 100.874 54.2892C100.929 54.1556 100.958 54.0124 100.958 53.8678C100.958 53.7232 100.929 53.58 100.874 53.4464C100.818 53.3128 100.737 53.1914 100.635 53.0892C100.533 52.9869 100.411 52.9058 100.278 52.8505C100.144 52.7952 100.001 52.7667 99.8565 52.7667C99.7119 52.7667 99.5688 52.7952 99.4352 52.8505C99.3016 52.9058 99.1802 52.9869 99.0779 53.0892L96.5667 55.6114V53.2208L99.5385 50.2599C99.6408 50.1577 99.7219 50.0363 99.7772 49.9027C99.8325 49.7691 99.861 49.6259 99.861 49.4813C99.861 49.3367 99.8325 49.1935 99.7772 49.0599C99.7219 48.9264 99.6408 48.805 99.5385 48.7027C99.4363 48.6005 99.3149 48.5194 99.1813 48.464C99.0477 48.4087 98.9045 48.3802 98.7599 48.3802C98.4679 48.3802 98.1878 48.4962 97.9813 48.7027L96.5667 50.1283V48.3847C96.5667 48.0939 96.4511 47.8149 96.2455 47.6093C96.0398 47.4036 95.7609 47.2881 95.4701 47.2881C95.1792 47.2881 94.9003 47.4036 94.6946 47.6093C94.489 47.8149 94.3735 48.0939 94.3735 48.3847V50.1283L92.9588 48.7027C92.8566 48.6005 92.7352 48.5194 92.6016 48.464C92.468 48.4087 92.3248 48.3802 92.1802 48.3802C92.0356 48.3802 91.8924 48.4087 91.7588 48.464C91.6253 48.5194 91.5039 48.6005 91.4016 48.7027C91.1951 48.9092 91.0791 49.1893 91.0791 49.4813C91.0791 49.7733 91.1951 50.0534 91.4016 50.2599L94.3735 53.2208V55.6114L91.8622 53.0892C91.76 52.9869 91.6386 52.9058 91.505 52.8505C91.3714 52.7952 91.2282 52.7667 91.0836 52.7667C90.939 52.7667 90.7958 52.7952 90.6622 52.8505C90.5286 52.9058 90.4073 52.9869 90.305 53.0892C90.2028 53.1914 90.1217 53.3128 90.0663 53.4464C90.011 53.58 89.9825 53.7232 89.9825 53.8678C89.9825 54.0124 90.011 54.1556 90.0663 54.2892C90.1217 54.4227 90.2028 54.5441 90.305 54.6464L92.8272 57.1576H90.4366L87.4757 54.1858C87.2692 53.9793 86.9892 53.8633 86.6971 53.8633C86.4051 53.8633 86.125 53.9793 85.9185 54.1858C85.712 54.3923 85.596 54.6724 85.596 54.9644C85.596 55.2564 85.712 55.5365 85.9185 55.743L87.3441 57.1576H85.6005C85.3097 57.1576 85.0308 57.2732 84.8251 57.4788C84.6194 57.6845 84.5039 57.9634 84.5039 58.2542C84.5039 58.5451 84.6194 58.824 84.8251 59.0297C85.0308 59.2353 85.3097 59.3509 85.6005 59.3509H87.3441L85.9185 60.7655C85.8158 60.8674 85.7342 60.9887 85.6785 61.1224C85.6228 61.256 85.5942 61.3993 85.5942 61.5441C85.5942 61.6889 85.6228 61.8322 85.6785 61.9658C85.7342 62.0995 85.8158 62.2208 85.9185 62.3227C86.0205 62.4255 86.1418 62.5071 86.2754 62.5627C86.409 62.6184 86.5524 62.6471 86.6971 62.6471C86.8419 62.6471 86.9852 62.6184 87.1189 62.5627C87.2525 62.5071 87.3738 62.4255 87.4757 62.3227L90.4366 59.3509H92.8272L90.305 61.8621C90.2022 61.9641 90.1206 62.0853 90.065 62.219C90.0093 62.3526 89.9806 62.4959 89.9806 62.6407C89.9806 62.7855 90.0093 62.9288 90.065 63.0624C90.1206 63.1961 90.2022 63.3174 90.305 63.4193C90.407 63.5221 90.5282 63.6037 90.6619 63.6594C90.7955 63.715 90.9388 63.7437 91.0836 63.7437C91.2284 63.7437 91.3717 63.715 91.5053 63.6594C91.639 63.6037 91.7603 63.5221 91.8622 63.4193L94.3735 60.8971V63.2877L91.4016 66.2486C91.1951 66.4551 91.0791 66.7351 91.0791 67.0272C91.0791 67.3192 91.1951 67.5993 91.4016 67.8058C91.6081 68.0123 91.8882 68.1283 92.1802 68.1283C92.4723 68.1283 92.7523 68.0123 92.9588 67.8058L94.3735 66.3802V68.1238C94.3735 68.4146 94.489 68.6936 94.6946 68.8992C94.9003 69.1049 95.1792 69.2204 95.4701 69.2204C95.7609 69.2204 96.0398 69.1049 96.2455 68.8992C96.4511 68.6936 96.5667 68.4146 96.5667 68.1238V66.3802L97.9813 67.8058C98.0833 67.9086 98.2046 67.9901 98.3382 68.0458C98.4718 68.1015 98.6152 68.1302 98.7599 68.1302C98.9047 68.1302 99.048 68.1015 99.1817 68.0458C99.3153 67.9901 99.4366 67.9086 99.5385 67.8058C99.6413 67.7038 99.7229 67.5825 99.7786 67.4489C99.8342 67.3153 99.8629 67.1719 99.8629 67.0272C99.8629 66.8824 99.8342 66.7391 99.7786 66.6054C99.7229 66.4718 99.6413 66.3505 99.5385 66.2486L96.5667 63.2877V60.8971L99.0779 63.4193C99.1799 63.5221 99.3012 63.6037 99.4348 63.6594C99.5684 63.715 99.7118 63.7437 99.8565 63.7437C100.001 63.7437 100.145 63.715 100.278 63.6594C100.412 63.6037 100.533 63.5221 100.635 63.4193C100.738 63.3174 100.819 63.1961 100.875 63.0624C100.931 62.9288 100.96 62.7855 100.96 62.6407C100.96 62.4959 100.931 62.3526 100.875 62.219C100.819 62.0853 100.738 61.9641 100.635 61.8621L98.1129 59.3509H100.504L103.464 62.3227C103.566 62.4255 103.688 62.5071 103.821 62.5627C103.955 62.6184 104.098 62.6471 104.243 62.6471C104.388 62.6471 104.531 62.6184 104.665 62.5627C104.798 62.5071 104.92 62.4255 105.022 62.3227C105.124 62.2208 105.206 62.0995 105.262 61.9658C105.317 61.8322 105.346 61.6889 105.346 61.5441C105.346 61.3993 105.317 61.256 105.262 61.1224C105.206 60.9887 105.124 60.8674 105.022 60.7655L103.596 59.3509H105.34C105.63 59.3509 105.909 59.2353 106.115 59.0297C106.321 58.824 106.436 58.5451 106.436 58.2542C106.436 57.9634 106.321 57.6845 106.115 57.4788C105.909 57.2732 105.63 57.1576 105.34 57.1576Z" fill="#EAF1FF"/>
<path d="M227.34 117.158H225.596L227.022 115.743C227.124 115.641 227.205 115.519 227.26 115.386C227.316 115.252 227.344 115.109 227.344 114.964C227.344 114.82 227.316 114.677 227.26 114.543C227.205 114.409 227.124 114.288 227.022 114.186C226.919 114.084 226.798 114.002 226.664 113.947C226.531 113.892 226.388 113.863 226.243 113.863C226.098 113.863 225.955 113.892 225.822 113.947C225.688 114.002 225.567 114.084 225.464 114.186L222.504 117.158H220.113L222.635 114.646C222.737 114.544 222.818 114.423 222.874 114.289C222.929 114.156 222.958 114.012 222.958 113.868C222.958 113.723 222.929 113.58 222.874 113.446C222.818 113.313 222.737 113.191 222.635 113.089C222.533 112.987 222.411 112.906 222.278 112.85C222.144 112.795 222.001 112.767 221.857 112.767C221.712 112.767 221.569 112.795 221.435 112.85C221.302 112.906 221.18 112.987 221.078 113.089L218.567 115.611V113.221L221.539 110.26C221.641 110.158 221.722 110.036 221.777 109.903C221.833 109.769 221.861 109.626 221.861 109.481C221.861 109.337 221.833 109.194 221.777 109.06C221.722 108.926 221.641 108.805 221.539 108.703C221.436 108.6 221.315 108.519 221.181 108.464C221.048 108.409 220.905 108.38 220.76 108.38C220.468 108.38 220.188 108.496 219.981 108.703L218.567 110.128V108.385C218.567 108.094 218.451 107.815 218.245 107.609C218.04 107.404 217.761 107.288 217.47 107.288C217.179 107.288 216.9 107.404 216.695 107.609C216.489 107.815 216.373 108.094 216.373 108.385V110.128L214.959 108.703C214.857 108.6 214.735 108.519 214.602 108.464C214.468 108.409 214.325 108.38 214.18 108.38C214.036 108.38 213.892 108.409 213.759 108.464C213.625 108.519 213.504 108.6 213.402 108.703C213.195 108.909 213.079 109.189 213.079 109.481C213.079 109.773 213.195 110.053 213.402 110.26L216.373 113.221V115.611L213.862 113.089C213.76 112.987 213.639 112.906 213.505 112.85C213.371 112.795 213.228 112.767 213.084 112.767C212.939 112.767 212.796 112.795 212.662 112.85C212.529 112.906 212.407 112.987 212.305 113.089C212.203 113.191 212.122 113.313 212.066 113.446C212.011 113.58 211.983 113.723 211.983 113.868C211.983 114.012 212.011 114.156 212.066 114.289C212.122 114.423 212.203 114.544 212.305 114.646L214.827 117.158H212.437L209.476 114.186C209.269 113.979 208.989 113.863 208.697 113.863C208.405 113.863 208.125 113.979 207.919 114.186C207.712 114.392 207.596 114.672 207.596 114.964C207.596 115.256 207.712 115.537 207.919 115.743L209.344 117.158H207.601C207.31 117.158 207.031 117.273 206.825 117.479C206.619 117.684 206.504 117.963 206.504 118.254C206.504 118.545 206.619 118.824 206.825 119.03C207.031 119.235 207.31 119.351 207.601 119.351H209.344L207.919 120.765C207.816 120.867 207.734 120.989 207.679 121.122C207.623 121.256 207.594 121.399 207.594 121.544C207.594 121.689 207.623 121.832 207.679 121.966C207.734 122.099 207.816 122.221 207.919 122.323C208.02 122.425 208.142 122.507 208.275 122.563C208.409 122.618 208.552 122.647 208.697 122.647C208.842 122.647 208.985 122.618 209.119 122.563C209.253 122.507 209.374 122.425 209.476 122.323L212.437 119.351H214.827L212.305 121.862C212.202 121.964 212.121 122.085 212.065 122.219C212.009 122.353 211.981 122.496 211.981 122.641C211.981 122.785 212.009 122.929 212.065 123.062C212.121 123.196 212.202 123.317 212.305 123.419C212.407 123.522 212.528 123.604 212.662 123.659C212.796 123.715 212.939 123.744 213.084 123.744C213.228 123.744 213.372 123.715 213.505 123.659C213.639 123.604 213.76 123.522 213.862 123.419L216.373 120.897V123.288L213.402 126.249C213.195 126.455 213.079 126.735 213.079 127.027C213.079 127.319 213.195 127.599 213.402 127.806C213.608 128.012 213.888 128.128 214.18 128.128C214.472 128.128 214.752 128.012 214.959 127.806L216.373 126.38V128.124C216.373 128.415 216.489 128.694 216.695 128.899C216.9 129.105 217.179 129.22 217.47 129.22C217.761 129.22 218.04 129.105 218.245 128.899C218.451 128.694 218.567 128.415 218.567 128.124V126.38L219.981 127.806C220.083 127.909 220.205 127.99 220.338 128.046C220.472 128.101 220.615 128.13 220.76 128.13C220.905 128.13 221.048 128.101 221.182 128.046C221.315 127.99 221.437 127.909 221.539 127.806C221.641 127.704 221.723 127.583 221.779 127.449C221.834 127.315 221.863 127.172 221.863 127.027C221.863 126.882 221.834 126.739 221.779 126.605C221.723 126.472 221.641 126.351 221.539 126.249L218.567 123.288V120.897L221.078 123.419C221.18 123.522 221.301 123.604 221.435 123.659C221.568 123.715 221.712 123.744 221.857 123.744C222.001 123.744 222.145 123.715 222.278 123.659C222.412 123.604 222.533 123.522 222.635 123.419C222.738 123.317 222.819 123.196 222.875 123.062C222.931 122.929 222.96 122.785 222.96 122.641C222.96 122.496 222.931 122.353 222.875 122.219C222.819 122.085 222.738 121.964 222.635 121.862L220.113 119.351H222.504L225.464 122.323C225.566 122.425 225.688 122.507 225.821 122.563C225.955 122.618 226.098 122.647 226.243 122.647C226.388 122.647 226.531 122.618 226.665 122.563C226.798 122.507 226.92 122.425 227.022 122.323C227.124 122.221 227.206 122.099 227.262 121.966C227.317 121.832 227.346 121.689 227.346 121.544C227.346 121.399 227.317 121.256 227.262 121.122C227.206 120.989 227.124 120.867 227.022 120.765L225.596 119.351H227.34C227.63 119.351 227.909 119.235 228.115 119.03C228.321 118.824 228.436 118.545 228.436 118.254C228.436 117.963 228.321 117.684 228.115 117.479C227.909 117.273 227.63 117.158 227.34 117.158Z" fill="#EAF1FF"/>
<path d="M343.34 57.1576H341.596L343.022 55.743C343.124 55.6408 343.205 55.5194 343.26 55.3858C343.316 55.2522 343.344 55.109 343.344 54.9644C343.344 54.8198 343.316 54.6766 343.26 54.543C343.205 54.4094 343.124 54.288 343.022 54.1858C342.919 54.0836 342.798 54.0024 342.664 53.9471C342.531 53.8918 342.388 53.8633 342.243 53.8633C342.098 53.8633 341.955 53.8918 341.822 53.9471C341.688 54.0024 341.567 54.0836 341.464 54.1858L338.504 57.1576H336.113L338.635 54.6464C338.737 54.5441 338.818 54.4227 338.874 54.2892C338.929 54.1556 338.958 54.0124 338.958 53.8678C338.958 53.7232 338.929 53.58 338.874 53.4464C338.818 53.3128 338.737 53.1914 338.635 53.0892C338.533 52.9869 338.411 52.9058 338.278 52.8505C338.144 52.7952 338.001 52.7667 337.857 52.7667C337.712 52.7667 337.569 52.7952 337.435 52.8505C337.302 52.9058 337.18 52.9869 337.078 53.0892L334.567 55.6114V53.2208L337.539 50.2599C337.641 50.1577 337.722 50.0363 337.777 49.9027C337.833 49.7691 337.861 49.6259 337.861 49.4813C337.861 49.3367 337.833 49.1935 337.777 49.0599C337.722 48.9264 337.641 48.805 337.539 48.7027C337.436 48.6005 337.315 48.5194 337.181 48.464C337.048 48.4087 336.905 48.3802 336.76 48.3802C336.468 48.3802 336.188 48.4962 335.981 48.7027L334.567 50.1283V48.3847C334.567 48.0939 334.451 47.8149 334.245 47.6093C334.04 47.4036 333.761 47.2881 333.47 47.2881C333.179 47.2881 332.9 47.4036 332.695 47.6093C332.489 47.8149 332.373 48.0939 332.373 48.3847V50.1283L330.959 48.7027C330.857 48.6005 330.735 48.5194 330.602 48.464C330.468 48.4087 330.325 48.3802 330.18 48.3802C330.036 48.3802 329.892 48.4087 329.759 48.464C329.625 48.5194 329.504 48.6005 329.402 48.7027C329.195 48.9092 329.079 49.1893 329.079 49.4813C329.079 49.7733 329.195 50.0534 329.402 50.2599L332.373 53.2208V55.6114L329.862 53.0892C329.76 52.9869 329.639 52.9058 329.505 52.8505C329.371 52.7952 329.228 52.7667 329.084 52.7667C328.939 52.7667 328.796 52.7952 328.662 52.8505C328.529 52.9058 328.407 52.9869 328.305 53.0892C328.203 53.1914 328.122 53.3128 328.066 53.4464C328.011 53.58 327.983 53.7232 327.983 53.8678C327.983 54.0124 328.011 54.1556 328.066 54.2892C328.122 54.4227 328.203 54.5441 328.305 54.6464L330.827 57.1576H328.437L325.476 54.1858C325.269 53.9793 324.989 53.8633 324.697 53.8633C324.405 53.8633 324.125 53.9793 323.919 54.1858C323.712 54.3923 323.596 54.6724 323.596 54.9644C323.596 55.2564 323.712 55.5365 323.919 55.743L325.344 57.1576H323.601C323.31 57.1576 323.031 57.2732 322.825 57.4788C322.619 57.6845 322.504 57.9634 322.504 58.2542C322.504 58.5451 322.619 58.824 322.825 59.0297C323.031 59.2353 323.31 59.3509 323.601 59.3509H325.344L323.919 60.7655C323.816 60.8674 323.734 60.9887 323.679 61.1224C323.623 61.256 323.594 61.3993 323.594 61.5441C323.594 61.6889 323.623 61.8322 323.679 61.9658C323.734 62.0995 323.816 62.2208 323.919 62.3227C324.02 62.4255 324.142 62.5071 324.275 62.5627C324.409 62.6184 324.552 62.6471 324.697 62.6471C324.842 62.6471 324.985 62.6184 325.119 62.5627C325.253 62.5071 325.374 62.4255 325.476 62.3227L328.437 59.3509H330.827L328.305 61.8621C328.202 61.9641 328.121 62.0853 328.065 62.219C328.009 62.3526 327.981 62.4959 327.981 62.6407C327.981 62.7855 328.009 62.9288 328.065 63.0624C328.121 63.1961 328.202 63.3174 328.305 63.4193C328.407 63.5221 328.528 63.6037 328.662 63.6594C328.796 63.715 328.939 63.7437 329.084 63.7437C329.228 63.7437 329.372 63.715 329.505 63.6594C329.639 63.6037 329.76 63.5221 329.862 63.4193L332.373 60.8971V63.2877L329.402 66.2486C329.195 66.4551 329.079 66.7351 329.079 67.0272C329.079 67.3192 329.195 67.5993 329.402 67.8058C329.608 68.0123 329.888 68.1283 330.18 68.1283C330.472 68.1283 330.752 68.0123 330.959 67.8058L332.373 66.3802V68.1238C332.373 68.4146 332.489 68.6936 332.695 68.8992C332.9 69.1049 333.179 69.2204 333.47 69.2204C333.761 69.2204 334.04 69.1049 334.245 68.8992C334.451 68.6936 334.567 68.4146 334.567 68.1238V66.3802L335.981 67.8058C336.083 67.9086 336.205 67.9901 336.338 68.0458C336.472 68.1015 336.615 68.1302 336.76 68.1302C336.905 68.1302 337.048 68.1015 337.182 68.0458C337.315 67.9901 337.437 67.9086 337.539 67.8058C337.641 67.7038 337.723 67.5825 337.779 67.4489C337.834 67.3153 337.863 67.1719 337.863 67.0272C337.863 66.8824 337.834 66.7391 337.779 66.6054C337.723 66.4718 337.641 66.3505 337.539 66.2486L334.567 63.2877V60.8971L337.078 63.4193C337.18 63.5221 337.301 63.6037 337.435 63.6594C337.568 63.715 337.712 63.7437 337.857 63.7437C338.001 63.7437 338.145 63.715 338.278 63.6594C338.412 63.6037 338.533 63.5221 338.635 63.4193C338.738 63.3174 338.819 63.1961 338.875 63.0624C338.931 62.9288 338.96 62.7855 338.96 62.6407C338.96 62.4959 338.931 62.3526 338.875 62.219C338.819 62.0853 338.738 61.9641 338.635 61.8621L336.113 59.3509H338.504L341.464 62.3227C341.566 62.4255 341.688 62.5071 341.821 62.5627C341.955 62.6184 342.098 62.6471 342.243 62.6471C342.388 62.6471 342.531 62.6184 342.665 62.5627C342.798 62.5071 342.92 62.4255 343.022 62.3227C343.124 62.2208 343.206 62.0995 343.262 61.9658C343.317 61.8322 343.346 61.6889 343.346 61.5441C343.346 61.3993 343.317 61.256 343.262 61.1224C343.206 60.9887 343.124 60.8674 343.022 60.7655L341.596 59.3509H343.34C343.63 59.3509 343.909 59.2353 344.115 59.0297C344.321 58.824 344.436 58.5451 344.436 58.2542C344.436 57.9634 344.321 57.6845 344.115 57.4788C343.909 57.2732 343.63 57.1576 343.34 57.1576Z" fill="#EAF1FF"/>
<path d="M88.0408 241.575H86.2972L87.7228 240.16C87.825 240.058 87.9061 239.936 87.9615 239.803C88.0168 239.669 88.0453 239.526 88.0453 239.381C88.0453 239.237 88.0168 239.094 87.9615 238.96C87.9061 238.826 87.825 238.705 87.7228 238.603C87.6205 238.501 87.4991 238.419 87.3655 238.364C87.232 238.309 87.0888 238.28 86.9442 238.28C86.7996 238.28 86.6564 238.309 86.5228 238.364C86.3892 238.419 86.2678 238.501 86.1656 238.603L83.2047 241.575H80.8141L83.3363 239.063C83.4385 238.961 83.5197 238.84 83.575 238.706C83.6303 238.573 83.6588 238.429 83.6588 238.285C83.6588 238.14 83.6303 237.997 83.575 237.863C83.5197 237.73 83.4385 237.608 83.3363 237.506C83.2341 237.404 83.1127 237.323 82.9791 237.267C82.8455 237.212 82.7023 237.184 82.5577 237.184C82.4131 237.184 82.2699 237.212 82.1363 237.267C82.0027 237.323 81.8814 237.404 81.7791 237.506L79.2679 240.028V237.638L82.2397 234.677C82.3419 234.575 82.423 234.453 82.4784 234.32C82.5337 234.186 82.5622 234.043 82.5622 233.898C82.5622 233.754 82.5337 233.611 82.4784 233.477C82.423 233.343 82.3419 233.222 82.2397 233.12C82.1374 233.017 82.0161 232.936 81.8825 232.881C81.7489 232.826 81.6057 232.797 81.4611 232.797C81.1691 232.797 80.889 232.913 80.6825 233.12L79.2679 234.545V232.802C79.2679 232.511 79.1523 232.232 78.9467 232.026C78.741 231.821 78.4621 231.705 78.1712 231.705C77.8804 231.705 77.6015 231.821 77.3958 232.026C77.1902 232.232 77.0746 232.511 77.0746 232.802V234.545L75.66 233.12C75.5577 233.017 75.4364 232.936 75.3028 232.881C75.1692 232.826 75.026 232.797 74.8814 232.797C74.7368 232.797 74.5936 232.826 74.46 232.881C74.3264 232.936 74.205 233.017 74.1028 233.12C73.8963 233.326 73.7803 233.606 73.7803 233.898C73.7803 234.19 73.8963 234.47 74.1028 234.677L77.0746 237.638V240.028L74.5634 237.506C74.4611 237.404 74.3397 237.323 74.2062 237.267C74.0726 237.212 73.9294 237.184 73.7848 237.184C73.6402 237.184 73.497 237.212 73.3634 237.267C73.2298 237.323 73.1084 237.404 73.0062 237.506C72.9039 237.608 72.8228 237.73 72.7675 237.863C72.7122 237.997 72.6837 238.14 72.6837 238.285C72.6837 238.429 72.7122 238.573 72.7675 238.706C72.8228 238.84 72.9039 238.961 73.0062 239.063L75.5284 241.575H73.1378L70.1769 238.603C69.9704 238.396 69.6903 238.28 69.3983 238.28C69.1063 238.28 68.8262 238.396 68.6197 238.603C68.4132 238.809 68.2972 239.089 68.2972 239.381C68.2972 239.673 68.4132 239.953 68.6197 240.16L70.0453 241.575H68.3017C68.0109 241.575 67.7319 241.69 67.5263 241.896C67.3206 242.101 67.2051 242.38 67.2051 242.671C67.2051 242.962 67.3206 243.241 67.5263 243.447C67.7319 243.652 68.0109 243.768 68.3017 243.768H70.0453L68.6197 245.182C68.5169 245.284 68.4353 245.406 68.3797 245.539C68.324 245.673 68.2953 245.816 68.2953 245.961C68.2953 246.106 68.324 246.249 68.3797 246.383C68.4353 246.516 68.5169 246.638 68.6197 246.74C68.7217 246.842 68.8429 246.924 68.9766 246.98C69.1102 247.035 69.2535 247.064 69.3983 247.064C69.5431 247.064 69.6864 247.035 69.82 246.98C69.9537 246.924 70.075 246.842 70.1769 246.74L73.1378 243.768H75.5284L73.0062 246.279C72.9034 246.381 72.8218 246.502 72.7661 246.636C72.7105 246.77 72.6818 246.913 72.6818 247.058C72.6818 247.202 72.7105 247.346 72.7661 247.479C72.8218 247.613 72.9034 247.734 73.0062 247.836C73.1081 247.939 73.2294 248.021 73.363 248.076C73.4967 248.132 73.64 248.161 73.7848 248.161C73.9295 248.161 74.0729 248.132 74.2065 248.076C74.3401 248.021 74.4614 247.939 74.5634 247.836L77.0746 245.314V247.705L74.1028 250.666C73.8963 250.872 73.7803 251.152 73.7803 251.444C73.7803 251.736 73.8963 252.016 74.1028 252.223C74.3093 252.429 74.5894 252.545 74.8814 252.545C75.1734 252.545 75.4535 252.429 75.66 252.223L77.0746 250.797V252.541C77.0746 252.832 77.1902 253.111 77.3958 253.316C77.6015 253.522 77.8804 253.637 78.1712 253.637C78.4621 253.637 78.741 253.522 78.9467 253.316C79.1523 253.111 79.2679 252.832 79.2679 252.541V250.797L80.6825 252.223C80.7844 252.326 80.9057 252.407 81.0394 252.463C81.173 252.518 81.3163 252.547 81.4611 252.547C81.6059 252.547 81.7492 252.518 81.8828 252.463C82.0165 252.407 82.1377 252.326 82.2397 252.223C82.3425 252.121 82.4241 252 82.4797 251.866C82.5354 251.732 82.5641 251.589 82.5641 251.444C82.5641 251.299 82.5354 251.156 82.4797 251.022C82.4241 250.889 82.3425 250.768 82.2397 250.666L79.2679 247.705V245.314L81.7791 247.836C81.8811 247.939 82.0023 248.021 82.136 248.076C82.2696 248.132 82.4129 248.161 82.5577 248.161C82.7025 248.161 82.8458 248.132 82.9794 248.076C83.1131 248.021 83.2344 247.939 83.3363 247.836C83.4391 247.734 83.5207 247.613 83.5763 247.479C83.632 247.346 83.6607 247.202 83.6607 247.058C83.6607 246.913 83.632 246.77 83.5763 246.636C83.5207 246.502 83.4391 246.381 83.3363 246.279L80.8141 243.768H83.2047L86.1656 246.74C86.2675 246.842 86.3888 246.924 86.5224 246.98C86.6561 247.035 86.7994 247.064 86.9442 247.064C87.0889 247.064 87.2323 247.035 87.3659 246.98C87.4995 246.924 87.6208 246.842 87.7228 246.74C87.8256 246.638 87.9071 246.516 87.9628 246.383C88.0185 246.249 88.0471 246.106 88.0471 245.961C88.0471 245.816 88.0185 245.673 87.9628 245.539C87.9071 245.406 87.8256 245.284 87.7228 245.182L86.2972 243.768H88.0408C88.3316 243.768 88.6106 243.652 88.8162 243.447C89.0219 243.241 89.1374 242.962 89.1374 242.671C89.1374 242.38 89.0219 242.101 88.8162 241.896C88.6106 241.69 88.3316 241.575 88.0408 241.575Z" fill="#EAF1FF"/>
<path d="M210.041 301.575H208.297L209.723 300.16C209.825 300.058 209.906 299.936 209.961 299.803C210.017 299.669 210.045 299.526 210.045 299.381C210.045 299.237 210.017 299.094 209.961 298.96C209.906 298.826 209.825 298.705 209.723 298.603C209.621 298.501 209.499 298.419 209.366 298.364C209.232 298.309 209.089 298.28 208.944 298.28C208.8 298.28 208.656 298.309 208.523 298.364C208.389 298.419 208.268 298.501 208.166 298.603L205.205 301.575H202.814L205.336 299.063C205.439 298.961 205.52 298.84 205.575 298.706C205.63 298.573 205.659 298.429 205.659 298.285C205.659 298.14 205.63 297.997 205.575 297.863C205.52 297.73 205.439 297.608 205.336 297.506C205.234 297.404 205.113 297.323 204.979 297.267C204.845 297.212 204.702 297.184 204.558 297.184C204.413 297.184 204.27 297.212 204.136 297.267C204.003 297.323 203.881 297.404 203.779 297.506L201.268 300.028V297.638L204.24 294.677C204.342 294.575 204.423 294.453 204.478 294.32C204.534 294.186 204.562 294.043 204.562 293.898C204.562 293.754 204.534 293.611 204.478 293.477C204.423 293.343 204.342 293.222 204.24 293.12C204.137 293.017 204.016 292.936 203.882 292.881C203.749 292.826 203.606 292.797 203.461 292.797C203.169 292.797 202.889 292.913 202.682 293.12L201.268 294.545V292.802C201.268 292.511 201.152 292.232 200.947 292.026C200.741 291.821 200.462 291.705 200.171 291.705C199.88 291.705 199.601 291.821 199.396 292.026C199.19 292.232 199.075 292.511 199.075 292.802V294.545L197.66 293.12C197.558 293.017 197.436 292.936 197.303 292.881C197.169 292.826 197.026 292.797 196.881 292.797C196.737 292.797 196.594 292.826 196.46 292.881C196.326 292.936 196.205 293.017 196.103 293.12C195.896 293.326 195.78 293.606 195.78 293.898C195.78 294.19 195.896 294.47 196.103 294.677L199.075 297.638V300.028L196.563 297.506C196.461 297.404 196.34 297.323 196.206 297.267C196.073 297.212 195.929 297.184 195.785 297.184C195.64 297.184 195.497 297.212 195.363 297.267C195.23 297.323 195.108 297.404 195.006 297.506C194.904 297.608 194.823 297.73 194.767 297.863C194.712 297.997 194.684 298.14 194.684 298.285C194.684 298.429 194.712 298.573 194.767 298.706C194.823 298.84 194.904 298.961 195.006 299.063L197.528 301.575H195.138L192.177 298.603C191.97 298.396 191.69 298.28 191.398 298.28C191.106 298.28 190.826 298.396 190.62 298.603C190.413 298.809 190.297 299.089 190.297 299.381C190.297 299.673 190.413 299.953 190.62 300.16L192.045 301.575H190.302C190.011 301.575 189.732 301.69 189.526 301.896C189.321 302.101 189.205 302.38 189.205 302.671C189.205 302.962 189.321 303.241 189.526 303.447C189.732 303.652 190.011 303.768 190.302 303.768H192.045L190.62 305.182C190.517 305.284 190.435 305.406 190.38 305.539C190.324 305.673 190.295 305.816 190.295 305.961C190.295 306.106 190.324 306.249 190.38 306.383C190.435 306.516 190.517 306.638 190.62 306.74C190.722 306.842 190.843 306.924 190.977 306.98C191.11 307.035 191.254 307.064 191.398 307.064C191.543 307.064 191.686 307.035 191.82 306.98C191.954 306.924 192.075 306.842 192.177 306.74L195.138 303.768H197.528L195.006 306.279C194.903 306.381 194.822 306.502 194.766 306.636C194.71 306.77 194.682 306.913 194.682 307.058C194.682 307.202 194.71 307.346 194.766 307.479C194.822 307.613 194.903 307.734 195.006 307.836C195.108 307.939 195.229 308.021 195.363 308.076C195.497 308.132 195.64 308.161 195.785 308.161C195.93 308.161 196.073 308.132 196.207 308.076C196.34 308.021 196.461 307.939 196.563 307.836L199.075 305.314V307.705L196.103 310.666C195.896 310.872 195.78 311.152 195.78 311.444C195.78 311.736 195.896 312.016 196.103 312.223C196.309 312.429 196.589 312.545 196.881 312.545C197.173 312.545 197.453 312.429 197.66 312.223L199.075 310.797V312.541C199.075 312.832 199.19 313.111 199.396 313.316C199.601 313.522 199.88 313.637 200.171 313.637C200.462 313.637 200.741 313.522 200.947 313.316C201.152 313.111 201.268 312.832 201.268 312.541V310.797L202.682 312.223C202.784 312.326 202.906 312.407 203.039 312.463C203.173 312.518 203.316 312.547 203.461 312.547C203.606 312.547 203.749 312.518 203.883 312.463C204.016 312.407 204.138 312.326 204.24 312.223C204.342 312.121 204.424 312 204.48 311.866C204.535 311.732 204.564 311.589 204.564 311.444C204.564 311.299 204.535 311.156 204.48 311.022C204.424 310.889 204.342 310.768 204.24 310.666L201.268 307.705V305.314L203.779 307.836C203.881 307.939 204.002 308.021 204.136 308.076C204.27 308.132 204.413 308.161 204.558 308.161C204.702 308.161 204.846 308.132 204.979 308.076C205.113 308.021 205.234 307.939 205.336 307.836C205.439 307.734 205.521 307.613 205.576 307.479C205.632 307.346 205.661 307.202 205.661 307.058C205.661 306.913 205.632 306.77 205.576 306.636C205.521 306.502 205.439 306.381 205.336 306.279L202.814 303.768H205.205L208.166 306.74C208.268 306.842 208.389 306.924 208.522 306.98C208.656 307.035 208.799 307.064 208.944 307.064C209.089 307.064 209.232 307.035 209.366 306.98C209.5 306.924 209.621 306.842 209.723 306.74C209.826 306.638 209.907 306.516 209.963 306.383C210.018 306.249 210.047 306.106 210.047 305.961C210.047 305.816 210.018 305.673 209.963 305.539C209.907 305.406 209.826 305.284 209.723 305.182L208.297 303.768H210.041C210.332 303.768 210.611 303.652 210.816 303.447C211.022 303.241 211.137 302.962 211.137 302.671C211.137 302.38 211.022 302.101 210.816 301.896C210.611 301.69 210.332 301.575 210.041 301.575Z" fill="#EAF1FF"/>
<path d="M326.041 241.575H324.297L325.723 240.16C325.825 240.058 325.906 239.936 325.961 239.803C326.017 239.669 326.045 239.526 326.045 239.381C326.045 239.237 326.017 239.094 325.961 238.96C325.906 238.826 325.825 238.705 325.723 238.603C325.621 238.501 325.499 238.419 325.366 238.364C325.232 238.309 325.089 238.28 324.944 238.28C324.8 238.28 324.656 238.309 324.523 238.364C324.389 238.419 324.268 238.501 324.166 238.603L321.205 241.575H318.814L321.336 239.063C321.439 238.961 321.52 238.84 321.575 238.706C321.63 238.573 321.659 238.429 321.659 238.285C321.659 238.14 321.63 237.997 321.575 237.863C321.52 237.73 321.439 237.608 321.336 237.506C321.234 237.404 321.113 237.323 320.979 237.267C320.845 237.212 320.702 237.184 320.558 237.184C320.413 237.184 320.27 237.212 320.136 237.267C320.003 237.323 319.881 237.404 319.779 237.506L317.268 240.028V237.638L320.24 234.677C320.342 234.575 320.423 234.453 320.478 234.32C320.534 234.186 320.562 234.043 320.562 233.898C320.562 233.754 320.534 233.611 320.478 233.477C320.423 233.343 320.342 233.222 320.24 233.12C320.137 233.017 320.016 232.936 319.882 232.881C319.749 232.826 319.606 232.797 319.461 232.797C319.169 232.797 318.889 232.913 318.682 233.12L317.268 234.545V232.802C317.268 232.511 317.152 232.232 316.947 232.026C316.741 231.821 316.462 231.705 316.171 231.705C315.88 231.705 315.601 231.821 315.396 232.026C315.19 232.232 315.075 232.511 315.075 232.802V234.545L313.66 233.12C313.558 233.017 313.436 232.936 313.303 232.881C313.169 232.826 313.026 232.797 312.881 232.797C312.737 232.797 312.594 232.826 312.46 232.881C312.326 232.936 312.205 233.017 312.103 233.12C311.896 233.326 311.78 233.606 311.78 233.898C311.78 234.19 311.896 234.47 312.103 234.677L315.075 237.638V240.028L312.563 237.506C312.461 237.404 312.34 237.323 312.206 237.267C312.073 237.212 311.929 237.184 311.785 237.184C311.64 237.184 311.497 237.212 311.363 237.267C311.23 237.323 311.108 237.404 311.006 237.506C310.904 237.608 310.823 237.73 310.767 237.863C310.712 237.997 310.684 238.14 310.684 238.285C310.684 238.429 310.712 238.573 310.767 238.706C310.823 238.84 310.904 238.961 311.006 239.063L313.528 241.575H311.138L308.177 238.603C307.97 238.396 307.69 238.28 307.398 238.28C307.106 238.28 306.826 238.396 306.62 238.603C306.413 238.809 306.297 239.089 306.297 239.381C306.297 239.673 306.413 239.953 306.62 240.16L308.045 241.575H306.302C306.011 241.575 305.732 241.69 305.526 241.896C305.321 242.101 305.205 242.38 305.205 242.671C305.205 242.962 305.321 243.241 305.526 243.447C305.732 243.652 306.011 243.768 306.302 243.768H308.045L306.62 245.182C306.517 245.284 306.435 245.406 306.38 245.539C306.324 245.673 306.295 245.816 306.295 245.961C306.295 246.106 306.324 246.249 306.38 246.383C306.435 246.516 306.517 246.638 306.62 246.74C306.722 246.842 306.843 246.924 306.977 246.98C307.11 247.035 307.254 247.064 307.398 247.064C307.543 247.064 307.686 247.035 307.82 246.98C307.954 246.924 308.075 246.842 308.177 246.74L311.138 243.768H313.528L311.006 246.279C310.903 246.381 310.822 246.502 310.766 246.636C310.71 246.77 310.682 246.913 310.682 247.058C310.682 247.202 310.71 247.346 310.766 247.479C310.822 247.613 310.903 247.734 311.006 247.836C311.108 247.939 311.229 248.021 311.363 248.076C311.497 248.132 311.64 248.161 311.785 248.161C311.93 248.161 312.073 248.132 312.207 248.076C312.34 248.021 312.461 247.939 312.563 247.836L315.075 245.314V247.705L312.103 250.666C311.896 250.872 311.78 251.152 311.78 251.444C311.78 251.736 311.896 252.016 312.103 252.223C312.309 252.429 312.589 252.545 312.881 252.545C313.173 252.545 313.453 252.429 313.66 252.223L315.075 250.797V252.541C315.075 252.832 315.19 253.111 315.396 253.316C315.601 253.522 315.88 253.637 316.171 253.637C316.462 253.637 316.741 253.522 316.947 253.316C317.152 253.111 317.268 252.832 317.268 252.541V250.797L318.682 252.223C318.784 252.326 318.906 252.407 319.039 252.463C319.173 252.518 319.316 252.547 319.461 252.547C319.606 252.547 319.749 252.518 319.883 252.463C320.016 252.407 320.138 252.326 320.24 252.223C320.342 252.121 320.424 252 320.48 251.866C320.535 251.732 320.564 251.589 320.564 251.444C320.564 251.299 320.535 251.156 320.48 251.022C320.424 250.889 320.342 250.768 320.24 250.666L317.268 247.705V245.314L319.779 247.836C319.881 247.939 320.002 248.021 320.136 248.076C320.27 248.132 320.413 248.161 320.558 248.161C320.702 248.161 320.846 248.132 320.979 248.076C321.113 248.021 321.234 247.939 321.336 247.836C321.439 247.734 321.521 247.613 321.576 247.479C321.632 247.346 321.661 247.202 321.661 247.058C321.661 246.913 321.632 246.77 321.576 246.636C321.521 246.502 321.439 246.381 321.336 246.279L318.814 243.768H321.205L324.166 246.74C324.268 246.842 324.389 246.924 324.522 246.98C324.656 247.035 324.799 247.064 324.944 247.064C325.089 247.064 325.232 247.035 325.366 246.98C325.5 246.924 325.621 246.842 325.723 246.74C325.826 246.638 325.907 246.516 325.963 246.383C326.018 246.249 326.047 246.106 326.047 245.961C326.047 245.816 326.018 245.673 325.963 245.539C325.907 245.406 325.826 245.284 325.723 245.182L324.297 243.768H326.041C326.332 243.768 326.611 243.652 326.816 243.447C327.022 243.241 327.137 242.962 327.137 242.671C327.137 242.38 327.022 242.101 326.816 241.896C326.611 241.69 326.332 241.575 326.041 241.575Z" fill="#EAF1FF"/>
</svg>
