<svg width="25" height="21" viewBox="0 0 25 21" fill="none" xmlns="http://www.w3.org/2000/svg">
<path d="M21.5432 5.63477V3.38042C21.5432 1.52059 20.0216 -0.00109863 18.1617 -0.00109863H6.88999C5.03016 -0.00109863 3.50847 1.52059 3.50847 3.38042V5.63477C1.64864 5.63477 0.126953 7.15645 0.126953 9.01629V14.6522C0.126953 16.512 1.64864 18.0337 3.50847 18.0337V19.1608C3.50847 19.7808 4.0157 20.288 4.63565 20.288C5.25559 20.288 5.76282 19.7808 5.76282 19.1608V18.0337H19.2889V19.1608C19.2889 19.7808 19.7961 20.288 20.4161 20.288C21.036 20.288 21.5432 19.7808 21.5432 19.1608V18.0337C23.4031 18.0337 24.9248 16.512 24.9248 14.6522V9.01629C24.9248 7.15645 23.4031 5.63477 21.5432 5.63477ZM5.76282 3.38042C5.76282 2.76048 6.27005 2.25325 6.88999 2.25325H18.1617C18.7817 2.25325 19.2889 2.76048 19.2889 3.38042V6.51396C18.6013 7.13391 18.1617 8.02437 18.1617 9.01629V11.2706H6.88999V9.01629C6.88999 8.02437 6.45039 7.13391 5.76282 6.51396V3.38042ZM22.6704 14.6522C22.6704 15.2721 22.1632 15.7793 21.5432 15.7793H3.50847C2.88853 15.7793 2.3813 15.2721 2.3813 14.6522V9.01629C2.3813 8.39634 2.88853 7.88911 3.50847 7.88911C4.12842 7.88911 4.63565 8.39634 4.63565 9.01629V13.525H20.4161V9.01629C20.4161 8.39634 20.9233 7.88911 21.5432 7.88911C22.1632 7.88911 22.6704 8.39634 22.6704 9.01629V14.6522Z" fill="black"/>
</svg>
