<svg width="29" height="29" viewBox="0 0 29 29" fill="none" xmlns="http://www.w3.org/2000/svg">
<path d="M26.5701 7.76071L17.5709 2.81114C17.438 2.73804 17.2888 2.69971 17.1371 2.69971C16.9855 2.69971 16.8363 2.73804 16.7034 2.81114L7.70416 7.76071C7.56306 7.83839 7.4454 7.95252 7.36346 8.09119C7.28151 8.22985 7.23828 8.38797 7.23828 8.54904C7.23828 8.71011 7.28151 8.86822 7.36346 9.00689C7.4454 9.14555 7.56306 9.25968 7.70416 9.33737L16.2372 14.0305V23.6767L13.505 22.1738L12.6375 23.7496L16.7034 25.9859C16.8362 26.0592 16.9854 26.0976 17.1371 26.0976C17.2888 26.0976 17.4381 26.0592 17.5709 25.9859L26.5701 21.0363C26.7112 20.9587 26.829 20.8446 26.911 20.7059C26.993 20.5672 27.0362 20.4091 27.0363 20.248V8.54904C27.0362 8.38794 26.993 8.2298 26.911 8.09114C26.829 7.95247 26.7112 7.83835 26.5701 7.76071ZM17.1371 4.62718L24.269 8.54904L17.1371 12.4709L10.0053 8.54904L17.1371 4.62718ZM25.2364 19.7162L18.037 23.6758V14.0296L25.2364 10.0699V19.7162Z" fill="black"/>
<path d="M9.03823 14.3986H1.83887V12.5988H9.03823V14.3986Z" fill="black"/>
<path d="M10.838 21.5981H3.63867V19.7982H10.838V21.5981Z" fill="black"/>
<path d="M12.6378 17.9983H5.43848V16.1985H12.6378V17.9983Z" fill="black"/>
</svg>
