<svg width="28" height="28" viewBox="0 0 28 28" fill="none" xmlns="http://www.w3.org/2000/svg">
<path d="M14.2992 15.5262C13.4632 15.5262 12.6459 15.2783 11.9508 14.8138C11.2557 14.3494 10.7139 13.6892 10.394 12.9169C10.0741 12.1445 9.99039 11.2946 10.1535 10.4747C10.3166 9.65472 10.7192 8.90156 11.3103 8.31042C11.9014 7.71928 12.6546 7.3167 13.4745 7.15361C14.2945 6.99051 15.1444 7.07422 15.9167 7.39414C16.6891 7.71407 17.3493 8.25584 17.8137 8.95095C18.2782 9.64606 18.5261 10.4633 18.5261 11.2993C18.5247 12.4199 18.079 13.4943 17.2866 14.2867C16.4941 15.0791 15.4198 15.5248 14.2992 15.5262ZM14.2992 8.76315C13.7976 8.76315 13.3072 8.91189 12.8902 9.19057C12.4731 9.46924 12.148 9.86533 11.9561 10.3288C11.7641 10.7922 11.7139 11.3021 11.8118 11.7941C11.9096 12.286 12.1512 12.7379 12.5058 13.0926C12.8605 13.4473 13.3124 13.6888 13.8044 13.7867C14.2964 13.8846 14.8063 13.8343 15.2697 13.6424C15.7331 13.4504 16.1292 13.1254 16.4079 12.7083C16.6866 12.2912 16.8353 11.8009 16.8353 11.2993C16.8346 10.6269 16.5672 9.98218 16.0917 9.50671C15.6163 9.03124 14.9716 8.76382 14.2992 8.76315Z" fill="black"/>
<path d="M14.2992 25.6706L7.16756 17.26C7.06847 17.1337 6.9704 17.0066 6.87337 16.8787C5.65516 15.274 4.99706 13.3139 5.00001 11.2992C5.00001 8.83288 5.97974 6.4676 7.72368 4.72367C9.46761 2.97973 11.8329 2 14.2992 2C16.7655 2 19.1308 2.97973 20.8747 4.72367C22.6186 6.4676 23.5984 8.83288 23.5984 11.2992C23.6013 13.313 22.9435 15.2722 21.7259 16.8762L21.725 16.8787C21.725 16.8787 21.4714 17.2118 21.4334 17.2566L14.2992 25.6706ZM8.2226 15.86C8.22429 15.86 8.42042 16.1204 8.46522 16.1762L14.2992 23.0567L20.1408 16.1669C20.178 16.1204 20.3758 15.8583 20.3766 15.8575C21.3718 14.5464 21.9096 12.9452 21.9076 11.2992C21.9076 9.2813 21.106 7.34607 19.6792 5.91921C18.2523 4.49236 16.3171 3.69076 14.2992 3.69076C12.2813 3.69076 10.3461 4.49236 8.91922 5.91921C7.49237 7.34607 6.69077 9.2813 6.69077 11.2992C6.689 12.9462 7.2274 14.5483 8.22344 15.86H8.2226Z" fill="black"/>
</svg>
