<svg width="598" height="494" viewBox="0 0 598 494" fill="none" xmlns="http://www.w3.org/2000/svg">
<path d="M35.4477 251.983C26.1566 254.213 2.35732 253.852 -0.000244141 251.983C23.3746 289.918 36.8485 310.905 58.079 350.475C51.6735 365.247 47.8175 373.061 40.5282 386.269C46.8592 385.391 50.4882 385.325 57.1552 386.269C80.8261 333.746 95.3951 304.35 123.317 251.983H104.612C91.9967 279.994 84.9305 295.606 72.7431 317.798C57.8275 292.553 49.3879 278.5 35.4477 251.983Z" fill="white"/>
<path fill-rule="evenodd" clip-rule="evenodd" d="M136.711 316.99V250.828H163.153C174.966 252.08 180.819 255.793 181.281 266.762C181.743 277.732 175.392 285.237 164.538 286.853C153.684 288.47 151.26 288.124 151.26 288.124V316.99C145.618 316.393 142.438 316.311 136.711 316.99ZM151.26 256.14V282.466C151.26 282.466 154.146 282.812 159.227 281.427C164.307 280.041 166.039 274.614 166.27 268.841C166.501 263.067 163.384 256.486 158.188 256.14C152.992 255.793 151.26 256.14 151.26 256.14Z" fill="white"/>
<path d="M268.111 250.482C259.484 274.488 253.237 289.389 241.207 316.875C245.034 316.411 247.096 316.373 250.56 316.875C256.886 297.507 260.721 287.113 268.111 269.534C275.498 287.62 279.28 298.009 285.546 316.875C292.413 315.953 296.119 315.986 302.52 316.875C292.31 291.672 286.575 277.19 276.309 250.482C273.108 251.014 271.312 250.919 268.111 250.482Z" fill="white"/>
<path fill-rule="evenodd" clip-rule="evenodd" d="M175.277 316.875C186.291 290.667 192.413 275.96 202.642 249.559C205.573 250.083 207.216 250.092 210.147 249.559L237.282 316.875C230.937 316.503 227.289 316.543 220.77 316.875L213.727 296.899C205.075 296.63 200.236 296.578 191.442 296.899L184.167 316.875C180.616 316.505 178.683 316.569 175.277 316.875ZM202.642 268.495L194.213 290.664C200.864 291.126 204.624 291.164 211.417 290.664L202.642 268.495Z" fill="white"/>
<path fill-rule="evenodd" clip-rule="evenodd" d="M49.3037 452.199C50.6237 443.976 50.6096 439.308 49.3037 430.838H57.5018C77.4358 385.519 88.2743 359.325 106.459 309.945C112.953 311.303 116.684 311.394 123.548 309.945C141.116 358.355 151.311 384.989 170.543 430.953H180.011C178.421 439.381 178.095 444.06 180.011 452.199H176.893C171.878 447.318 166.223 445.892 151.722 445.386C120.65 445.079 103.243 444.942 72.6278 445.848C63.1411 446.174 58.1003 446.731 52.4213 452.199H49.3037ZM106.575 348.164C93.4146 380.266 86.4459 398.371 74.7061 430.838C98.6243 432.015 112.246 432.041 136.942 430.953C125.614 397.937 118.872 379.93 106.575 348.164Z" fill="white"/>
<path fill-rule="evenodd" clip-rule="evenodd" d="M268.573 424.028L271.113 426.221L266.956 437.191C246.757 447.969 234.741 447.467 215.69 442.271C206.774 439.839 193.937 427.684 189.132 411.904C183.67 393.964 187.169 376.687 196.291 363.062C205.413 349.437 228.275 345.28 242.247 347.012C256.218 348.744 265.541 356.449 271.344 372.414C274.358 382.139 274.828 387.337 274.808 396.431H216.151C218.681 421.242 223.725 430.29 242.709 433.034C255.081 433.152 260.363 430.572 268.573 424.028ZM226.774 356.596C220.885 358.559 218.033 368.799 216.151 386.501H247.327C245.976 370.612 243.748 358.443 238.667 356.596C233.587 354.748 232.663 354.633 226.774 356.596Z" fill="white"/>
<path d="M291.204 444.119V348.629C301.559 350.16 307.48 350.136 318.223 348.629V390.658C318.223 390.658 319.724 390.774 320.301 390.658C320.879 390.543 343.804 365.335 358.52 348.629C364.77 349.335 368.457 349.284 375.263 348.629C364.583 362.115 356.286 370.368 341.778 385.001C356.581 407.922 364.556 420.839 377.572 444.119C365.98 443.217 359.353 443.137 347.205 444.119C334.866 422.212 326.66 404.755 318.223 398.51V444.119C307.47 442.896 301.567 442.962 291.204 444.119Z" fill="white"/>
<path fill-rule="evenodd" clip-rule="evenodd" d="M505.046 348.514V494C515.868 492.847 521.936 492.768 532.758 494V432.111C538.847 441.414 543.15 445.505 558.507 446.197C573.864 446.89 594.648 433.15 597.072 402.898C599.497 372.646 582.87 351.054 572.363 348.514C561.855 345.973 555.169 345.852 547.191 348.514C538.724 353.019 535.496 356.786 531.603 365.025V348.514C521.438 349.571 515.632 349.613 505.046 348.514ZM550.886 358.79C537.146 359.136 531.257 381.421 531.603 396.547C531.95 411.673 532.758 427.376 543.727 432.111C554.697 436.845 566.474 427.954 568.091 405.553C569.707 383.153 564.627 358.444 550.886 358.79Z" fill="white"/>
<path fill-rule="evenodd" clip-rule="evenodd" d="M386.694 406.244C385.905 391.109 387.178 383.428 392.352 371.027C398.912 359.729 403.863 355.63 414.059 350.705C427.853 345.717 436.606 345.246 454.242 349.088C469.838 354.399 476.564 360.069 484.032 376.223C487.333 391.333 487.37 399.197 484.032 412.364C479.852 424.098 475.893 429.149 467.058 436.496C455.469 444.297 448.038 445.895 433.92 446.195C414.813 444.733 406.207 439.81 393.738 425.411C389.67 418.493 388.097 414.308 386.694 406.244ZM419.371 371.027C416.271 379.611 415.668 387.524 415.907 405.205C417.179 418.068 419.197 424.264 425.722 433.032C430.71 436.952 433.801 437.982 440.155 436.496C445.904 434.551 449.016 430.982 454.242 417.098C458.045 401.407 458.249 392.611 456.204 376.916C451.37 361.286 447.532 355.731 437.384 355.208C427.515 355.957 423.796 359.854 419.371 371.027Z" fill="white"/>
<path d="M76.5828 209.083L81.3541 221.195L96.1575 191.588L99.7054 206.514C107.611 193.261 111.809 186.835 118.424 179.109L119.647 195.013L140.201 170.545L141.179 185.838L163.446 164.673L162.834 180.332C172.624 172.712 178.114 168.811 187.914 163.449L184.733 178.62C194.976 172.315 200.838 169.2 211.526 164.55L207.244 179.476C218.13 174.93 224.325 172.912 235.505 170.056L228.532 184.247C240.054 181.452 246.39 180.435 257.527 179.354L249.941 191.833C261.986 191.069 268.481 190.897 279.304 191.343L270.617 203.088C282.86 203.816 289.105 204.666 299.245 206.881L289.58 216.668C301.47 219.263 307.689 220.955 317.107 224.865L307.198 233.184C319.496 237.793 325.732 240.437 333.991 245.418L322.613 252.392C333.579 258.446 339.317 261.988 348.182 268.786L335.948 273.435L359.805 293.254L346.592 296.924L359.805 310.137H399.688L208.345 0.367188L76.5828 209.083Z" fill="#CB9D29"/>
<path d="M228.532 0.246094H210.547L402.135 310.139H421.098L228.532 0.246094Z" fill="#C1C47F"/>
<path d="M314.293 0H296.309L487.897 309.892H506.86L314.293 0Z" fill="#C1C47F"/>
<path d="M399.933 0H381.949L573.536 309.892H592.499L399.933 0Z" fill="#C1C47F"/>
<path d="M294.107 0.125L262.176 50.897L423.056 310.14L485.572 309.895L294.107 0.125Z" fill="#AE4C3B"/>
<path d="M379.869 0L347.937 50.772L508.817 309.892H571.823L379.869 0Z" fill="#570E00"/>
</svg>
