<svg width="89" height="73" viewBox="0 0 89 73" fill="none" xmlns="http://www.w3.org/2000/svg">
<g clip-path="url(#clip0)">
<path d="M5.24323 37.2126C3.86896 37.5419 0.348717 37.4887 0 37.2126C3.45746 42.8148 5.45043 45.9142 8.59066 51.7577C7.64325 53.9392 7.07289 55.0931 5.99471 57.0438C6.93115 56.9142 7.46793 56.9044 8.45407 57.0438C11.9553 49.2874 14.1103 44.9461 18.2403 37.2126H15.4735C13.6076 41.3493 12.5624 43.6549 10.7598 46.9321C8.55351 43.204 7.30517 41.1286 5.24323 37.2126Z" fill="black"/>
<path fill-rule="evenodd" clip-rule="evenodd" d="M20.2217 46.8128V37.0421H24.1328C25.8801 37.2269 26.7459 37.7753 26.8141 39.3953C26.8825 41.0152 25.9431 42.1235 24.3377 42.3622C22.7323 42.601 22.3737 42.5498 22.3737 42.5498V46.8128C21.5392 46.7246 21.0687 46.7125 20.2217 46.8128ZM22.3737 37.8264V41.7143C22.3737 41.7143 22.8006 41.7655 23.5521 41.5608C24.3035 41.3562 24.5598 40.5548 24.594 39.7022C24.628 38.8495 24.1669 37.8776 23.3984 37.8264C22.6298 37.7753 22.3737 37.8264 22.3737 37.8264Z" fill="black"/>
<path d="M39.6571 36.9906C38.381 40.5358 37.4571 42.7362 35.6777 46.7954C36.2437 46.7268 36.5488 46.7212 37.0612 46.7954C37.9968 43.9352 38.564 42.4002 39.6571 39.8042C40.7498 42.4749 41.3091 44.0093 42.236 46.7954C43.2517 46.6592 43.7999 46.664 44.7466 46.7954C43.2365 43.0735 42.3882 40.9347 40.8698 36.9906C40.3962 37.0692 40.1307 37.0551 39.6571 36.9906Z" fill="black"/>
<path fill-rule="evenodd" clip-rule="evenodd" d="M25.9258 46.7961C27.555 42.9258 28.4606 40.7538 29.9735 36.855C30.407 36.9323 30.65 36.9337 31.0836 36.855L35.0972 46.7961C34.1587 46.7412 33.6192 46.7471 32.655 46.7961L31.6131 43.8462C30.3333 43.8064 29.6176 43.7987 28.3169 43.8462L27.2409 46.7961C26.7156 46.7415 26.4297 46.7509 25.9258 46.7961ZM29.9735 39.6515L28.7267 42.9254C29.7105 42.9936 30.2667 42.9992 31.2715 42.9254L29.9735 39.6515Z" fill="black"/>
<path fill-rule="evenodd" clip-rule="evenodd" d="M7.29297 66.7809C7.48821 65.5664 7.48612 64.8772 7.29297 63.6263H8.50557C11.4541 56.9338 13.0572 53.0654 15.7471 45.7731C16.7076 45.9736 17.2594 45.9871 18.2748 45.7731C20.8732 52.9222 22.3812 56.8554 25.2258 63.6433H26.6264C26.3912 64.888 26.343 65.579 26.6264 66.7809H26.1652C25.4233 66.06 24.5869 65.8495 22.442 65.7748C17.8461 65.7294 15.2713 65.7092 10.7429 65.843C9.33969 65.891 8.59407 65.9734 7.7541 66.7809H7.29297ZM15.7642 51.4173C13.8176 56.158 12.7868 58.8317 11.0504 63.6263C14.5882 63.8002 16.603 63.804 20.2559 63.6433C18.5803 58.7676 17.5831 56.1084 15.7642 51.4173Z" fill="black"/>
<path fill-rule="evenodd" clip-rule="evenodd" d="M39.7263 62.6202L40.1021 62.9441L39.4872 64.564C36.4995 66.1558 34.7221 66.0817 31.9041 65.3143C30.5854 64.9552 28.6866 63.1601 27.976 60.8297C27.168 58.1804 27.6856 55.629 29.0349 53.6168C30.3841 51.6047 33.7658 50.9909 35.8323 51.2466C37.8989 51.5024 39.2779 52.6402 40.1361 54.998C40.582 56.4341 40.6515 57.2018 40.6486 58.5447H31.9725C32.3465 62.2088 33.0927 63.545 35.9006 63.9502C37.7307 63.9677 38.5119 63.5866 39.7263 62.6202ZM33.5437 52.662C32.6727 52.9518 32.2508 54.464 31.9725 57.0784H36.5837C36.3839 54.7318 36.0543 52.9348 35.3028 52.662C34.5513 52.3891 34.4147 52.3721 33.5437 52.662Z" fill="black"/>
<path d="M43.0732 65.5867V51.4849C44.6049 51.711 45.4807 51.7074 47.0697 51.4849V57.6917C47.0697 57.6917 47.2918 57.7088 47.3772 57.6917C47.4626 57.6747 50.8536 53.952 53.0303 51.4849C53.9548 51.5892 54.5001 51.5815 55.5068 51.4849C53.9271 53.4765 52.6998 54.6952 50.5538 56.8562C52.7434 60.2412 53.923 62.1487 55.8483 65.5867C54.1336 65.4535 53.1534 65.4416 51.3566 65.5867C49.5315 62.3515 48.3176 59.7734 47.0697 58.8512V65.5867C45.4794 65.406 44.6062 65.4158 43.0732 65.5867Z" fill="black"/>
<path fill-rule="evenodd" clip-rule="evenodd" d="M74.7036 51.468V72.9531C76.3043 72.7829 77.2017 72.7711 78.8025 72.9531V63.8134C79.7032 65.1873 80.3396 65.7914 82.6111 65.8937C84.8826 65.9961 87.9567 63.9669 88.3155 59.4993C88.6743 55.0318 86.2147 51.8431 84.6606 51.468C83.1064 51.0928 82.1174 51.0749 80.9374 51.468C79.685 52.1333 79.2076 52.6896 78.6317 53.9063V51.468C77.1282 51.6241 76.2693 51.6303 74.7036 51.468ZM81.4839 52.9855C79.4515 53.0367 78.5805 56.3277 78.6317 58.5614C78.6829 60.7952 78.8025 63.1143 80.425 63.8134C82.0475 64.5125 83.7896 63.1996 84.0287 59.8915C84.2677 56.5835 83.5163 52.9344 81.4839 52.9855Z" fill="black"/>
<path fill-rule="evenodd" clip-rule="evenodd" d="M57.1983 59.9935C57.0815 57.7583 57.2698 56.6241 58.0352 54.7926C59.0055 53.1242 59.7379 52.5189 61.246 51.7916C63.2863 51.055 64.581 50.9854 67.1894 51.5529C69.4963 52.3371 70.4913 53.1743 71.5958 55.56C72.0841 57.7914 72.0896 58.9528 71.5958 60.8972C70.9777 62.63 70.392 63.3761 69.0853 64.461C67.371 65.613 66.2719 65.849 64.1836 65.8934C61.3574 65.6774 60.0845 64.9504 58.2401 62.8241C57.6384 61.8023 57.4059 61.1843 57.1983 59.9935ZM62.0317 54.7926C61.5731 56.0604 61.484 57.2289 61.5193 59.84C61.7075 61.7397 62.0059 62.6546 62.971 63.9495C63.7088 64.5284 64.1661 64.6806 65.1059 64.461C65.9562 64.1738 66.4166 63.6467 67.1894 61.5963C67.7521 59.2792 67.7823 57.9802 67.4799 55.6623C66.7648 53.3542 66.197 52.5339 64.696 52.4566C63.2363 52.5672 62.6862 53.1427 62.0317 54.7926Z" fill="black"/>
<path d="M11.3276 30.8772L12.0334 32.6659L14.223 28.2936L14.7478 30.4978C15.9172 28.5407 16.538 27.5917 17.5165 26.4507L17.6975 28.7995L20.7376 25.186L20.8824 27.4444L24.1759 24.3187L24.0854 26.6314C25.5335 25.5061 26.3456 24.93 27.7951 24.1381L27.3246 26.3784C28.8397 25.4474 29.7068 24.9874 31.2876 24.3007L30.6542 26.5049C32.2644 25.8337 33.1808 25.5355 34.8345 25.1138L33.803 27.2095C35.5073 26.7967 36.4445 26.6466 38.0917 26.4868L36.9698 28.3297C38.7513 28.217 39.712 28.1915 41.3128 28.2574L40.028 29.9919C41.8389 30.0994 42.7627 30.2249 44.2625 30.552L42.8329 31.9973C44.5916 32.3806 45.5114 32.6305 46.9045 33.2078L45.4387 34.4365C47.2579 35.1171 48.1802 35.5075 49.4018 36.2432L47.7188 37.273C49.3409 38.1671 50.1896 38.6901 51.5009 39.694L49.6913 40.3806L53.2201 43.3075L51.2657 43.8495L53.2201 45.8008H59.1194L30.8171 0.0544434L11.3276 30.8772Z" fill="#CB9D29"/>
<path d="M33.8027 0.036499H31.1426L59.4809 45.8009H62.2859L33.8027 0.036499Z" fill="#C1C47F"/>
<path d="M46.4888 0H43.8286L72.1671 45.7644H74.9719L46.4888 0Z" fill="#C1C47F"/>
<path d="M59.1562 0H56.4961L84.8346 45.7644H87.6392L59.1562 0Z" fill="#C1C47F"/>
<path d="M43.5028 0.0181885L38.7798 7.5161L62.5761 45.8006L71.8232 45.7645L43.5028 0.0181885Z" fill="#AE4C3B"/>
<path d="M56.1879 0L51.4648 7.49792L75.2612 45.7644H84.5806L56.1879 0Z" fill="#570E00"/>
</g>
<defs>
<clipPath id="clip0">
<rect width="88.4198" height="73" fill="white"/>
</clipPath>
</defs>
</svg>
